<svg width="535" height="133" viewBox="0 0 535 133" fill="none" xmlns="http://www.w3.org/2000/svg">
<path d="M1.08125 5.088H4.88925C5.21592 5.088 5.56125 5.12533 5.92525 5.2C6.28925 5.27467 6.64858 5.396 7.00325 5.564C7.36725 5.72267 7.71258 5.93267 8.03925 6.194C8.37525 6.45533 8.66925 6.77267 8.92125 7.146C9.17325 7.51 9.37392 7.93467 9.52325 8.42C9.67258 8.896 9.74725 9.43733 9.74725 10.044C9.74725 10.6507 9.67258 11.1967 9.52325 11.682C9.37392 12.158 9.17325 12.5827 8.92125 12.956C8.66925 13.32 8.37525 13.6327 8.03925 13.894C7.71258 14.1553 7.36725 14.37 7.00325 14.538C6.64858 14.6967 6.28925 14.8133 5.92525 14.888C5.56125 14.9627 5.21592 15 4.88925 15H1.08125V5.088ZM2.25725 13.908H4.49725C5.06658 13.908 5.59392 13.8333 6.07925 13.684C6.56458 13.5347 6.98458 13.306 7.33925 12.998C7.69392 12.6807 7.97392 12.2793 8.17925 11.794C8.38458 11.3087 8.48725 10.7253 8.48725 10.044C8.48725 9.36267 8.38458 8.77933 8.17925 8.294C7.97392 7.80867 7.69392 7.412 7.33925 7.104C6.98458 6.78667 6.56458 6.55333 6.07925 6.404C5.59392 6.25467 5.06658 6.18 4.49725 6.18H2.25725V13.908ZM17.2962 13.81C16.9042 14.314 16.4749 14.6687 16.0082 14.874C15.5415 15.07 15.0002 15.168 14.3842 15.168C13.8709 15.168 13.4089 15.0793 12.9982 14.902C12.5875 14.7153 12.2375 14.468 11.9482 14.16C11.6682 13.852 11.4489 13.488 11.2902 13.068C11.1409 12.648 11.0662 12.2 11.0662 11.724C11.0662 11.22 11.1502 10.758 11.3182 10.338C11.4862 9.90867 11.7195 9.54467 12.0182 9.246C12.3169 8.938 12.6715 8.7 13.0822 8.532C13.4929 8.364 13.9409 8.28 14.4262 8.28C14.8835 8.28 15.3035 8.35933 15.6862 8.518C16.0689 8.66733 16.3955 8.89133 16.6662 9.19C16.9462 9.47933 17.1609 9.83867 17.3102 10.268C17.4595 10.688 17.5342 11.1687 17.5342 11.71V12.06H12.2422C12.2609 12.34 12.3262 12.6107 12.4382 12.872C12.5595 13.124 12.7135 13.348 12.9002 13.544C13.0869 13.7307 13.3062 13.88 13.5582 13.992C13.8102 14.104 14.0855 14.16 14.3842 14.16C14.8602 14.16 15.2615 14.076 15.5882 13.908C15.9149 13.74 16.2089 13.4927 16.4702 13.166L17.2962 13.81ZM16.3582 11.136C16.3395 10.576 16.1575 10.128 15.8122 9.792C15.4669 9.456 14.9909 9.288 14.3842 9.288C13.7775 9.288 13.2875 9.456 12.9142 9.792C12.5409 10.128 12.3169 10.576 12.2422 11.136H16.3582ZM20.9175 11.472L18.5655 8.448H19.9935L21.7295 10.8L23.3675 8.448H24.6975L22.4435 11.472L25.1455 15H23.7035L21.6315 12.172L19.5875 15H18.2295L20.9175 11.472ZM29.8075 9.372H27.8755V12.648C27.8755 12.8627 27.8802 13.0633 27.8895 13.25C27.8988 13.4273 27.9362 13.586 28.0015 13.726C28.0668 13.8567 28.1648 13.964 28.2955 14.048C28.4262 14.1227 28.6128 14.16 28.8555 14.16C29.0142 14.16 29.1775 14.1413 29.3455 14.104C29.5135 14.0667 29.6722 14.0107 29.8215 13.936L29.8635 14.93C29.6768 15.014 29.4668 15.0747 29.2335 15.112C29.0095 15.1493 28.7948 15.168 28.5895 15.168C28.1975 15.168 27.8848 15.1167 27.6515 15.014C27.4182 14.9113 27.2362 14.7667 27.1055 14.58C26.9748 14.3933 26.8862 14.1647 26.8395 13.894C26.8022 13.614 26.7835 13.306 26.7835 12.97V9.372H25.3555V8.448H26.7835V6.586H27.8755V8.448H29.8075V9.372ZM36.9974 13.81C36.6054 14.314 36.176 14.6687 35.7094 14.874C35.2427 15.07 34.7014 15.168 34.0854 15.168C33.572 15.168 33.11 15.0793 32.6994 14.902C32.2887 14.7153 31.9387 14.468 31.6494 14.16C31.3694 13.852 31.15 13.488 30.9914 13.068C30.842 12.648 30.7674 12.2 30.7674 11.724C30.7674 11.22 30.8514 10.758 31.0194 10.338C31.1874 9.90867 31.4207 9.54467 31.7194 9.246C32.018 8.938 32.3727 8.7 32.7834 8.532C33.194 8.364 33.642 8.28 34.1274 8.28C34.5847 8.28 35.0047 8.35933 35.3874 8.518C35.77 8.66733 36.0967 8.89133 36.3674 9.19C36.6474 9.47933 36.862 9.83867 37.0114 10.268C37.1607 10.688 37.2354 11.1687 37.2354 11.71V12.06H31.9434C31.962 12.34 32.0274 12.6107 32.1394 12.872C32.2607 13.124 32.4147 13.348 32.6014 13.544C32.788 13.7307 33.0074 13.88 33.2594 13.992C33.5114 14.104 33.7867 14.16 34.0854 14.16C34.5614 14.16 34.9627 14.076 35.2894 13.908C35.616 13.74 35.91 13.4927 36.1714 13.166L36.9974 13.81ZM36.0594 11.136C36.0407 10.576 35.8587 10.128 35.5134 9.792C35.168 9.456 34.692 9.288 34.0854 9.288C33.4787 9.288 32.9887 9.456 32.6154 9.792C32.242 10.128 32.018 10.576 31.9434 11.136H36.0594ZM38.9247 10.002C38.9247 9.70333 38.9153 9.42333 38.8967 9.162C38.878 8.90067 38.8687 8.66267 38.8687 8.448H39.9047C39.9047 8.62533 39.9093 8.80267 39.9187 8.98C39.928 9.15733 39.9327 9.33933 39.9327 9.526H39.9607C40.0353 9.36733 40.138 9.21333 40.2687 9.064C40.4087 8.91467 40.572 8.784 40.7587 8.672C40.9453 8.55067 41.1553 8.45733 41.3887 8.392C41.622 8.31733 41.874 8.28 42.1447 8.28C42.2193 8.28 42.294 8.28467 42.3687 8.294C42.4433 8.30333 42.518 8.322 42.5927 8.35L42.5227 9.456C42.336 9.4 42.14 9.372 41.9347 9.372C41.2627 9.372 40.7727 9.59133 40.4647 10.03C40.166 10.4593 40.0167 11.052 40.0167 11.808V15H38.9247V10.002ZM47.841 8.448H48.933V15H47.841V8.448ZM47.589 5.886C47.589 5.67133 47.6637 5.48467 47.813 5.326C47.9717 5.16733 48.163 5.088 48.387 5.088C48.611 5.088 48.7977 5.16733 48.947 5.326C49.1057 5.48467 49.185 5.67133 49.185 5.886C49.185 6.11933 49.1104 6.31067 48.961 6.46C48.8117 6.60933 48.6204 6.684 48.387 6.684C48.1537 6.684 47.9624 6.60933 47.813 6.46C47.6637 6.31067 47.589 6.11933 47.589 5.886ZM51.2463 13.278C51.461 13.5487 51.6943 13.7633 51.9463 13.922C52.2076 14.0807 52.5343 14.16 52.9263 14.16C53.0943 14.16 53.2623 14.1413 53.4303 14.104C53.6076 14.0667 53.7663 14.006 53.9063 13.922C54.0463 13.838 54.1583 13.7353 54.2423 13.614C54.3263 13.4833 54.3683 13.3293 54.3683 13.152C54.3683 12.9747 54.3263 12.83 54.2423 12.718C54.1676 12.606 54.065 12.5127 53.9343 12.438C53.8036 12.354 53.6543 12.2887 53.4863 12.242C53.3183 12.1953 53.1456 12.1533 52.9683 12.116C52.6603 12.0507 52.3663 11.976 52.0863 11.892C51.8063 11.808 51.559 11.7007 51.3443 11.57C51.139 11.43 50.971 11.2527 50.8403 11.038C50.719 10.8233 50.6583 10.548 50.6583 10.212C50.6583 9.89467 50.7283 9.61467 50.8683 9.372C51.0083 9.12933 51.195 8.92867 51.4283 8.77C51.6616 8.61133 51.923 8.49 52.2123 8.406C52.5016 8.322 52.8003 8.28 53.1083 8.28C53.575 8.28 54.0043 8.37333 54.3963 8.56C54.7976 8.74667 55.1103 9.05 55.3343 9.47L54.4243 10.072C54.2843 9.83867 54.0976 9.652 53.8643 9.512C53.6403 9.36267 53.365 9.288 53.0383 9.288C52.889 9.288 52.735 9.30667 52.5763 9.344C52.427 9.38133 52.2916 9.43733 52.1703 9.512C52.049 9.58667 51.9463 9.68467 51.8623 9.806C51.7876 9.918 51.7503 10.0487 51.7503 10.198C51.7503 10.338 51.7923 10.4593 51.8763 10.562C51.9696 10.6553 52.091 10.7393 52.2403 10.814C52.399 10.8887 52.5763 10.954 52.7723 11.01C52.9776 11.066 53.1876 11.1127 53.4023 11.15C53.6916 11.206 53.967 11.2807 54.2283 11.374C54.4896 11.458 54.7183 11.5747 54.9143 11.724C55.1103 11.8733 55.2643 12.06 55.3763 12.284C55.4883 12.508 55.5443 12.7833 55.5443 13.11C55.5443 13.4833 55.4696 13.8007 55.3203 14.062C55.171 14.3233 54.9703 14.538 54.7183 14.706C54.4756 14.8647 54.1956 14.9813 53.8783 15.056C53.5703 15.1307 53.253 15.168 52.9263 15.168C52.3663 15.168 51.881 15.084 51.4703 14.916C51.069 14.7387 50.705 14.4167 50.3783 13.95L51.2463 13.278ZM64.5477 9.372H62.6157V12.648C62.6157 12.8627 62.6204 13.0633 62.6297 13.25C62.6391 13.4273 62.6764 13.586 62.7417 13.726C62.8071 13.8567 62.9051 13.964 63.0357 14.048C63.1664 14.1227 63.3531 14.16 63.5957 14.16C63.7544 14.16 63.9177 14.1413 64.0857 14.104C64.2537 14.0667 64.4124 14.0107 64.5617 13.936L64.6037 14.93C64.4171 15.014 64.2071 15.0747 63.9737 15.112C63.7497 15.1493 63.5351 15.168 63.3297 15.168C62.9377 15.168 62.6251 15.1167 62.3917 15.014C62.1584 14.9113 61.9764 14.7667 61.8457 14.58C61.7151 14.3933 61.6264 14.1647 61.5797 13.894C61.5424 13.614 61.5237 13.306 61.5237 12.97V9.372H60.0957V8.448H61.5237V6.586H62.6157V8.448H64.5477V9.372ZM65.8993 4.416H66.9913V9.358H67.0193C67.0939 9.22733 67.1966 9.10133 67.3273 8.98C67.4579 8.84933 67.6119 8.73267 67.7893 8.63C67.9759 8.52733 68.1813 8.44333 68.4053 8.378C68.6293 8.31267 68.8673 8.28 69.1193 8.28C69.5486 8.28 69.9173 8.34533 70.2253 8.476C70.5426 8.60667 70.8039 8.78867 71.0093 9.022C71.2146 9.25533 71.3639 9.54 71.4573 9.876C71.5599 10.2027 71.6113 10.562 71.6113 10.954V15H70.5193V11.066C70.5193 10.5153 70.3979 10.0813 70.1553 9.764C69.9126 9.44667 69.5346 9.288 69.0213 9.288C68.6666 9.288 68.3586 9.34867 68.0973 9.47C67.8453 9.59133 67.6353 9.764 67.4673 9.988C67.3086 10.212 67.1873 10.478 67.1033 10.786C67.0286 11.094 66.9913 11.4347 66.9913 11.808V15H65.8993V4.416ZM73.7766 8.448H74.8686V15H73.7766V8.448ZM73.5246 5.886C73.5246 5.67133 73.5992 5.48467 73.7486 5.326C73.9072 5.16733 74.0986 5.088 74.3226 5.088C74.5466 5.088 74.7332 5.16733 74.8826 5.326C75.0412 5.48467 75.1206 5.67133 75.1206 5.886C75.1206 6.11933 75.0459 6.31067 74.8966 6.46C74.7472 6.60933 74.5559 6.684 74.3226 6.684C74.0892 6.684 73.8979 6.60933 73.7486 6.46C73.5992 6.31067 73.5246 6.11933 73.5246 5.886ZM77.0419 10.002C77.0419 9.70333 77.0325 9.42333 77.0139 9.162C76.9952 8.90067 76.9859 8.66267 76.9859 8.448H78.0219C78.0219 8.62533 78.0265 8.80267 78.0359 8.98C78.0452 9.15733 78.0499 9.33933 78.0499 9.526H78.0779C78.1525 9.36733 78.2552 9.21333 78.3859 9.064C78.5259 8.91467 78.6892 8.784 78.8759 8.672C79.0625 8.55067 79.2725 8.45733 79.5059 8.392C79.7392 8.31733 79.9912 8.28 80.2619 8.28C80.6912 8.28 81.0599 8.34533 81.3679 8.476C81.6852 8.60667 81.9465 8.78867 82.1519 9.022C82.3572 9.25533 82.5065 9.54 82.5999 9.876C82.7025 10.2027 82.7539 10.562 82.7539 10.954V15H81.6619V11.066C81.6619 10.5153 81.5405 10.0813 81.2979 9.764C81.0552 9.44667 80.6772 9.288 80.1639 9.288C79.8092 9.288 79.5012 9.34867 79.2399 9.47C78.9879 9.59133 78.7779 9.764 78.6099 9.988C78.4512 10.212 78.3299 10.478 78.2459 10.786C78.1712 11.094 78.1339 11.4347 78.1339 11.808V15H77.0419V10.002ZM84.8212 4.416H85.9132V11.332L88.8952 8.448H90.4492L87.2852 11.43L90.7712 15H89.1612L85.9132 11.556V15H84.8212V4.416ZM91.9192 8.448H93.0112V15H91.9192V8.448ZM91.6672 5.886C91.6672 5.67133 91.7418 5.48467 91.8912 5.326C92.0498 5.16733 92.2412 5.088 92.4652 5.088C92.6892 5.088 92.8758 5.16733 93.0252 5.326C93.1838 5.48467 93.2632 5.67133 93.2632 5.886C93.2632 6.11933 93.1885 6.31067 93.0392 6.46C92.8898 6.60933 92.6985 6.684 92.4652 6.684C92.2318 6.684 92.0405 6.60933 91.8912 6.46C91.7418 6.31067 91.6672 6.11933 91.6672 5.886ZM95.1844 10.002C95.1844 9.70333 95.1751 9.42333 95.1564 9.162C95.1378 8.90067 95.1284 8.66267 95.1284 8.448H96.1644C96.1644 8.62533 96.1691 8.80267 96.1784 8.98C96.1878 9.15733 96.1924 9.33933 96.1924 9.526H96.2204C96.2951 9.36733 96.3978 9.21333 96.5284 9.064C96.6684 8.91467 96.8318 8.784 97.0184 8.672C97.2051 8.55067 97.4151 8.45733 97.6484 8.392C97.8818 8.31733 98.1338 8.28 98.4044 8.28C98.8338 8.28 99.2024 8.34533 99.5104 8.476C99.8278 8.60667 100.089 8.78867 100.294 9.022C100.5 9.25533 100.649 9.54 100.742 9.876C100.845 10.2027 100.896 10.562 100.896 10.954V15H99.8044V11.066C99.8044 10.5153 99.6831 10.0813 99.4404 9.764C99.1978 9.44667 98.8198 9.288 98.3064 9.288C97.9518 9.288 97.6438 9.34867 97.3824 9.47C97.1304 9.59133 96.9204 9.764 96.7524 9.988C96.5938 10.212 96.4724 10.478 96.3884 10.786C96.3138 11.094 96.2764 11.4347 96.2764 11.808V15H95.1844V10.002ZM109.502 14.706C109.502 15.9007 109.194 16.806 108.578 17.422C107.971 18.0473 107.089 18.36 105.932 18.36C105.288 18.36 104.704 18.2667 104.182 18.08C103.668 17.8933 103.178 17.5713 102.712 17.114L103.496 16.218C103.841 16.5913 104.205 16.8713 104.588 17.058C104.98 17.254 105.428 17.352 105.932 17.352C106.417 17.352 106.818 17.2773 107.136 17.128C107.462 16.988 107.719 16.792 107.906 16.54C108.092 16.2973 108.223 16.0173 108.298 15.7C108.372 15.3827 108.41 15.0513 108.41 14.706V13.866H108.382C108.12 14.286 107.78 14.594 107.36 14.79C106.94 14.986 106.51 15.084 106.072 15.084C105.558 15.084 105.087 15 104.658 14.832C104.228 14.664 103.86 14.4307 103.552 14.132C103.244 13.8333 103.006 13.4787 102.838 13.068C102.67 12.6573 102.586 12.2093 102.586 11.724C102.586 11.192 102.67 10.7113 102.838 10.282C103.006 9.85267 103.239 9.49333 103.538 9.204C103.846 8.90533 104.214 8.67667 104.644 8.518C105.073 8.35933 105.549 8.28 106.072 8.28C106.296 8.28 106.52 8.308 106.744 8.364C106.968 8.41067 107.182 8.49 107.388 8.602C107.602 8.70467 107.794 8.84 107.962 9.008C108.13 9.16667 108.27 9.35333 108.382 9.568H108.41V8.448H109.502V14.706ZM103.762 11.724C103.762 12.06 103.822 12.3727 103.944 12.662C104.065 12.942 104.228 13.1893 104.434 13.404C104.648 13.6093 104.896 13.7727 105.176 13.894C105.456 14.0153 105.754 14.076 106.072 14.076C106.445 14.076 106.776 14.0107 107.066 13.88C107.355 13.7493 107.598 13.5767 107.794 13.362C107.999 13.138 108.153 12.886 108.256 12.606C108.358 12.3167 108.41 12.0133 108.41 11.696C108.41 11.3413 108.354 11.0193 108.242 10.73C108.13 10.4313 107.971 10.1747 107.766 9.96C107.56 9.74533 107.313 9.582 107.024 9.47C106.734 9.34867 106.417 9.288 106.072 9.288C105.726 9.288 105.409 9.35333 105.12 9.484C104.84 9.60533 104.597 9.778 104.392 10.002C104.196 10.2167 104.042 10.4733 103.93 10.772C103.818 11.0613 103.762 11.3787 103.762 11.724ZM112.432 13.404C112.666 13.404 112.862 13.488 113.02 13.656C113.188 13.8147 113.272 14.0107 113.272 14.244C113.272 14.4773 113.184 14.678 113.006 14.846C112.838 15.0047 112.647 15.084 112.432 15.084C112.218 15.084 112.022 15.0047 111.844 14.846C111.676 14.678 111.592 14.4773 111.592 14.244C111.592 14.0107 111.672 13.8147 111.83 13.656C111.998 13.488 112.199 13.404 112.432 13.404ZM116.329 13.404C116.562 13.404 116.758 13.488 116.917 13.656C117.085 13.8147 117.169 14.0107 117.169 14.244C117.169 14.4773 117.08 14.678 116.903 14.846C116.735 15.0047 116.543 15.084 116.329 15.084C116.114 15.084 115.918 15.0047 115.741 14.846C115.573 14.678 115.489 14.4773 115.489 14.244C115.489 14.0107 115.568 13.8147 115.727 13.656C115.895 13.488 116.095 13.404 116.329 13.404ZM120.225 13.404C120.459 13.404 120.655 13.488 120.813 13.656C120.981 13.8147 121.065 14.0107 121.065 14.244C121.065 14.4773 120.977 14.678 120.799 14.846C120.631 15.0047 120.44 15.084 120.225 15.084C120.011 15.084 119.815 15.0047 119.637 14.846C119.469 14.678 119.385 14.4773 119.385 14.244C119.385 14.0107 119.465 13.8147 119.623 13.656C119.791 13.488 119.992 13.404 120.225 13.404ZM124.122 13.404C124.355 13.404 124.551 13.488 124.71 13.656C124.878 13.8147 124.962 14.0107 124.962 14.244C124.962 14.4773 124.873 14.678 124.696 14.846C124.528 15.0047 124.336 15.084 124.122 15.084C123.907 15.084 123.711 15.0047 123.534 14.846C123.366 14.678 123.282 14.4773 123.282 14.244C123.282 14.0107 123.361 13.8147 123.52 13.656C123.688 13.488 123.888 13.404 124.122 13.404ZM128.018 13.404C128.252 13.404 128.448 13.488 128.606 13.656C128.774 13.8147 128.858 14.0107 128.858 14.244C128.858 14.4773 128.77 14.678 128.592 14.846C128.424 15.0047 128.233 15.084 128.018 15.084C127.804 15.084 127.608 15.0047 127.43 14.846C127.262 14.678 127.178 14.4773 127.178 14.244C127.178 14.0107 127.258 13.8147 127.416 13.656C127.584 13.488 127.785 13.404 128.018 13.404Z" fill="white"/>
<path d="M535 59H0V40.5L10 34H535V59Z" fill="url(#paint0_linear_5_1789)"/>
<path d="M535 96H0V77.5L10 71H535V96Z" fill="url(#paint1_linear_5_1789)"/>
<path d="M535 133H0V114.5L10 108H535V133Z" fill="url(#paint2_linear_5_1789)"/>
<defs>
<linearGradient id="paint0_linear_5_1789" x1="535" y1="46.5" x2="0" y2="46.5" gradientUnits="userSpaceOnUse">
<stop offset="0.55" stop-color="#2A7D82" stop-opacity="0"/>
<stop offset="1" stop-color="#2A7D82"/>
</linearGradient>
<linearGradient id="paint1_linear_5_1789" x1="535" y1="83.5" x2="0" y2="83.5" gradientUnits="userSpaceOnUse">
<stop offset="0.07" stop-color="#2A7D82" stop-opacity="0"/>
<stop offset="1" stop-color="#2A7D82"/>
</linearGradient>
<linearGradient id="paint2_linear_5_1789" x1="535" y1="120.5" x2="0" y2="120.5" gradientUnits="userSpaceOnUse">
<stop offset="0.285" stop-color="#2A7D82" stop-opacity="0"/>
<stop offset="1" stop-color="#2A7D82"/>
</linearGradient>
</defs>
</svg>
