<svg width="1160" height="823" viewBox="0 0 1160 823" fill="none" xmlns="http://www.w3.org/2000/svg">
<path d="M1 212.039V56.2354L60.8332 6.16086L1133.41 1L1159 40.4738V822H1V343.711" stroke="url(#paint0_radial_5_1585)" stroke-width="1.63784"/>
<path d="M1 56.2354V212.039V343.711V822H1159V40.4738L1133.41 1L60.8332 6.16086L1 56.2354Z" fill="#0C3538"/>
<path d="M136 695.156V676.584L144.559 670L1015.25 670L1024 680.995V761.572L1006.21 773H144.559L136 762.297V710.851" stroke="url(#paint1_radial_5_1585)" stroke-width="2"/>
<path d="M174.224 712.424H176.336V718.892H184.41V712.424H186.522V728H184.41V720.872H176.336V728H174.224V712.424ZM191.63 722.786C191.63 723.314 191.711 723.805 191.872 724.26C192.034 724.7 192.261 725.081 192.554 725.404C192.848 725.712 193.207 725.961 193.632 726.152C194.058 726.328 194.534 726.416 195.062 726.416C195.59 726.416 196.067 726.328 196.492 726.152C196.918 725.961 197.277 725.712 197.57 725.404C197.864 725.081 198.091 724.7 198.252 724.26C198.414 723.805 198.494 723.314 198.494 722.786C198.494 722.258 198.414 721.774 198.252 721.334C198.091 720.879 197.864 720.498 197.57 720.19C197.277 719.867 196.918 719.618 196.492 719.442C196.067 719.251 195.59 719.156 195.062 719.156C194.534 719.156 194.058 719.251 193.632 719.442C193.207 719.618 192.848 719.867 192.554 720.19C192.261 720.498 192.034 720.879 191.872 721.334C191.711 721.774 191.63 722.258 191.63 722.786ZM189.518 722.786C189.518 722.023 189.658 721.312 189.936 720.652C190.23 719.992 190.626 719.413 191.124 718.914C191.623 718.415 192.21 718.027 192.884 717.748C193.559 717.455 194.285 717.308 195.062 717.308C195.84 717.308 196.566 717.455 197.24 717.748C197.915 718.027 198.502 718.415 199 718.914C199.499 719.413 199.888 719.992 200.166 720.652C200.46 721.312 200.606 722.023 200.606 722.786C200.606 723.549 200.46 724.267 200.166 724.942C199.888 725.602 199.499 726.181 199 726.68C198.502 727.164 197.915 727.553 197.24 727.846C196.566 728.125 195.84 728.264 195.062 728.264C194.285 728.264 193.559 728.125 192.884 727.846C192.21 727.553 191.623 727.164 191.124 726.68C190.626 726.181 190.23 725.602 189.936 724.942C189.658 724.267 189.518 723.549 189.518 722.786ZM201.833 717.572H204.055L206.409 725.36H206.453L208.939 717.572H211.029L213.669 725.36H213.713L215.957 717.572H218.047L214.681 728H212.679L209.929 720.212H209.885L207.399 728H205.265L201.833 717.572ZM231.491 719.288H228.653V724.018C228.653 724.311 228.661 724.605 228.675 724.898C228.69 725.177 228.741 725.433 228.829 725.668C228.932 725.888 229.079 726.071 229.269 726.218C229.475 726.35 229.768 726.416 230.149 726.416C230.384 726.416 230.626 726.394 230.875 726.35C231.125 726.306 231.352 726.225 231.557 726.108V727.912C231.323 728.044 231.015 728.132 230.633 728.176C230.267 728.235 229.981 728.264 229.775 728.264C229.013 728.264 228.419 728.161 227.993 727.956C227.583 727.736 227.275 727.457 227.069 727.12C226.879 726.783 226.761 726.409 226.717 725.998C226.688 725.573 226.673 725.147 226.673 724.722V719.288H224.385V717.572H226.673V714.646H228.653V717.572H231.491V719.288ZM235.652 722.786C235.652 723.314 235.732 723.805 235.894 724.26C236.055 724.7 236.282 725.081 236.576 725.404C236.869 725.712 237.228 725.961 237.654 726.152C238.079 726.328 238.556 726.416 239.084 726.416C239.612 726.416 240.088 726.328 240.514 726.152C240.939 725.961 241.298 725.712 241.592 725.404C241.885 725.081 242.112 724.7 242.274 724.26C242.435 723.805 242.516 723.314 242.516 722.786C242.516 722.258 242.435 721.774 242.274 721.334C242.112 720.879 241.885 720.498 241.592 720.19C241.298 719.867 240.939 719.618 240.514 719.442C240.088 719.251 239.612 719.156 239.084 719.156C238.556 719.156 238.079 719.251 237.654 719.442C237.228 719.618 236.869 719.867 236.576 720.19C236.282 720.498 236.055 720.879 235.894 721.334C235.732 721.774 235.652 722.258 235.652 722.786ZM233.54 722.786C233.54 722.023 233.679 721.312 233.958 720.652C234.251 719.992 234.647 719.413 235.146 718.914C235.644 718.415 236.231 718.027 236.906 717.748C237.58 717.455 238.306 717.308 239.084 717.308C239.861 717.308 240.587 717.455 241.262 717.748C241.936 718.027 242.523 718.415 243.022 718.914C243.52 719.413 243.909 719.992 244.188 720.652C244.481 721.312 244.628 722.023 244.628 722.786C244.628 723.549 244.481 724.267 244.188 724.942C243.909 725.602 243.52 726.181 243.022 726.68C242.523 727.164 241.936 727.553 241.262 727.846C240.587 728.125 239.861 728.264 239.084 728.264C238.306 728.264 237.58 728.125 236.906 727.846C236.231 727.553 235.644 727.164 235.146 726.68C234.647 726.181 234.251 725.602 233.958 724.942C233.679 724.267 233.54 723.549 233.54 722.786ZM253.231 717.572H255.211V719.178H255.255C255.387 718.899 255.563 718.65 255.783 718.43C256.003 718.195 256.245 717.997 256.509 717.836C256.788 717.675 257.089 717.55 257.411 717.462C257.734 717.359 258.057 717.308 258.379 717.308C258.702 717.308 258.995 717.352 259.259 717.44L259.171 719.574C259.01 719.53 258.849 719.493 258.687 719.464C258.526 719.435 258.365 719.42 258.203 719.42C257.235 719.42 256.495 719.691 255.981 720.234C255.468 720.777 255.211 721.62 255.211 722.764V728H253.231V717.572ZM261.418 718.848C261.975 718.335 262.621 717.953 263.354 717.704C264.087 717.44 264.821 717.308 265.554 717.308C266.317 717.308 266.969 717.403 267.512 717.594C268.069 717.785 268.524 718.041 268.876 718.364C269.228 718.687 269.485 719.061 269.646 719.486C269.822 719.897 269.91 720.329 269.91 720.784V726.108C269.91 726.475 269.917 726.812 269.932 727.12C269.947 727.428 269.969 727.721 269.998 728H268.238C268.194 727.472 268.172 726.944 268.172 726.416H268.128C267.688 727.091 267.167 727.567 266.566 727.846C265.965 728.125 265.268 728.264 264.476 728.264C263.992 728.264 263.53 728.198 263.09 728.066C262.65 727.934 262.261 727.736 261.924 727.472C261.601 727.208 261.345 726.885 261.154 726.504C260.963 726.108 260.868 725.653 260.868 725.14C260.868 724.465 261.015 723.901 261.308 723.446C261.616 722.991 262.027 722.625 262.54 722.346C263.068 722.053 263.677 721.847 264.366 721.73C265.07 721.598 265.818 721.532 266.61 721.532H268.062V721.092C268.062 720.828 268.011 720.564 267.908 720.3C267.805 720.036 267.651 719.801 267.446 719.596C267.241 719.376 266.984 719.207 266.676 719.09C266.368 718.958 266.001 718.892 265.576 718.892C265.195 718.892 264.857 718.929 264.564 719.002C264.285 719.075 264.029 719.171 263.794 719.288C263.559 719.391 263.347 719.515 263.156 719.662C262.965 719.809 262.782 719.948 262.606 720.08L261.418 718.848ZM267.006 722.984C266.537 722.984 266.053 723.013 265.554 723.072C265.07 723.116 264.623 723.211 264.212 723.358C263.816 723.505 263.486 723.71 263.222 723.974C262.973 724.238 262.848 724.575 262.848 724.986C262.848 725.587 263.046 726.02 263.442 726.284C263.853 726.548 264.403 726.68 265.092 726.68C265.635 726.68 266.097 726.592 266.478 726.416C266.859 726.225 267.167 725.983 267.402 725.69C267.637 725.397 267.805 725.074 267.908 724.722C268.011 724.355 268.062 723.996 268.062 723.644V722.984H267.006ZM272.936 717.572H274.916V728H272.936V717.572ZM272.474 713.832C272.474 713.436 272.613 713.099 272.892 712.82C273.185 712.527 273.53 712.38 273.926 712.38C274.322 712.38 274.659 712.527 274.938 712.82C275.231 713.099 275.378 713.436 275.378 713.832C275.378 714.228 275.231 714.573 274.938 714.866C274.659 715.145 274.322 715.284 273.926 715.284C273.53 715.284 273.185 715.145 272.892 714.866C272.613 714.573 272.474 714.228 272.474 713.832ZM283.611 720.19C283.377 719.897 283.083 719.655 282.731 719.464C282.394 719.259 281.976 719.156 281.477 719.156C281.008 719.156 280.597 719.259 280.245 719.464C279.908 719.655 279.739 719.941 279.739 720.322C279.739 720.63 279.835 720.879 280.025 721.07C280.231 721.261 280.465 721.415 280.729 721.532C281.008 721.649 281.301 721.737 281.609 721.796C281.917 721.855 282.181 721.906 282.401 721.95C282.827 722.053 283.223 722.177 283.589 722.324C283.971 722.471 284.293 722.661 284.557 722.896C284.836 723.131 285.049 723.417 285.195 723.754C285.357 724.091 285.437 724.502 285.437 724.986C285.437 725.573 285.313 726.079 285.063 726.504C284.814 726.915 284.491 727.252 284.095 727.516C283.699 727.78 283.245 727.971 282.731 728.088C282.233 728.205 281.727 728.264 281.213 728.264C280.348 728.264 279.585 728.132 278.925 727.868C278.28 727.604 277.701 727.12 277.187 726.416L278.683 725.184C279.006 725.507 279.365 725.793 279.761 726.042C280.157 726.291 280.641 726.416 281.213 726.416C281.463 726.416 281.712 726.394 281.961 726.35C282.225 726.291 282.453 726.211 282.643 726.108C282.849 725.991 283.01 725.851 283.127 725.69C283.259 725.514 283.325 725.316 283.325 725.096C283.325 724.803 283.23 724.561 283.039 724.37C282.863 724.179 282.643 724.033 282.379 723.93C282.13 723.813 281.859 723.725 281.565 723.666C281.287 723.593 281.037 723.534 280.817 723.49C280.392 723.387 279.989 723.27 279.607 723.138C279.226 723.006 278.889 722.83 278.595 722.61C278.302 722.39 278.067 722.111 277.891 721.774C277.715 721.437 277.627 721.019 277.627 720.52C277.627 719.977 277.737 719.508 277.957 719.112C278.192 718.701 278.493 718.364 278.859 718.1C279.241 717.836 279.666 717.638 280.135 717.506C280.619 717.374 281.103 717.308 281.587 717.308C282.291 717.308 282.966 717.44 283.611 717.704C284.257 717.968 284.77 718.408 285.151 719.024L283.611 720.19ZM289.339 723.512C289.339 723.967 289.434 724.385 289.625 724.766C289.83 725.133 290.094 725.448 290.417 725.712C290.739 725.976 291.113 726.181 291.539 726.328C291.964 726.475 292.404 726.548 292.859 726.548C293.475 726.548 294.01 726.409 294.465 726.13C294.919 725.837 295.337 725.455 295.719 724.986L297.215 726.13C296.115 727.553 294.575 728.264 292.595 728.264C291.773 728.264 291.025 728.125 290.351 727.846C289.691 727.567 289.126 727.186 288.657 726.702C288.202 726.203 287.85 725.624 287.601 724.964C287.351 724.289 287.227 723.563 287.227 722.786C287.227 722.009 287.359 721.29 287.623 720.63C287.901 719.955 288.275 719.376 288.745 718.892C289.229 718.393 289.801 718.005 290.461 717.726C291.121 717.447 291.839 717.308 292.617 717.308C293.541 717.308 294.318 717.469 294.949 717.792C295.594 718.115 296.122 718.54 296.533 719.068C296.943 719.581 297.237 720.168 297.413 720.828C297.603 721.473 297.699 722.133 297.699 722.808V723.512H289.339ZM295.587 721.928C295.572 721.488 295.499 721.085 295.367 720.718C295.249 720.351 295.066 720.036 294.817 719.772C294.567 719.493 294.252 719.281 293.871 719.134C293.504 718.973 293.071 718.892 292.573 718.892C292.089 718.892 291.641 718.987 291.231 719.178C290.835 719.354 290.497 719.589 290.219 719.882C289.94 720.175 289.72 720.505 289.559 720.872C289.412 721.224 289.339 721.576 289.339 721.928H295.587ZM306.96 719.288H304.716V717.572H306.96V715.24C306.96 713.847 307.224 712.813 307.752 712.138C308.295 711.449 309.219 711.104 310.524 711.104C310.744 711.104 310.972 711.111 311.206 711.126C311.456 711.141 311.72 711.185 311.998 711.258L311.778 713.018C311.588 712.945 311.404 712.893 311.228 712.864C311.052 712.835 310.862 712.82 310.656 712.82C310.29 712.82 309.996 712.879 309.776 712.996C309.556 713.099 309.38 713.253 309.248 713.458C309.131 713.663 309.05 713.913 309.006 714.206C308.977 714.485 308.962 714.807 308.962 715.174V717.572H311.316V719.288H308.94V728H306.96V719.288ZM322.757 728H320.777V726.394H320.733C320.483 726.951 320.051 727.406 319.435 727.758C318.819 728.095 318.107 728.264 317.301 728.264C316.787 728.264 316.303 728.183 315.849 728.022C315.394 727.875 314.991 727.641 314.639 727.318C314.301 726.995 314.03 726.585 313.825 726.086C313.619 725.573 313.517 724.971 313.517 724.282V717.572H315.497V723.732C315.497 724.216 315.563 724.634 315.695 724.986C315.827 725.323 316.003 725.602 316.223 725.822C316.443 726.027 316.692 726.181 316.971 726.284C317.264 726.372 317.565 726.416 317.873 726.416C318.283 726.416 318.665 726.35 319.017 726.218C319.369 726.086 319.677 725.881 319.941 725.602C320.205 725.309 320.41 724.942 320.557 724.502C320.703 724.062 320.777 723.541 320.777 722.94V717.572H322.757V728ZM325.741 717.572H327.721V719.178H327.765C328.014 718.621 328.447 718.173 329.063 717.836C329.679 717.484 330.39 717.308 331.197 717.308C331.696 717.308 332.172 717.389 332.627 717.55C333.096 717.697 333.5 717.931 333.837 718.254C334.189 718.577 334.468 718.995 334.673 719.508C334.878 720.007 334.981 720.601 334.981 721.29V728H333.001V721.84C333.001 721.356 332.935 720.945 332.803 720.608C332.671 720.256 332.495 719.977 332.275 719.772C332.055 719.552 331.798 719.398 331.505 719.31C331.226 719.207 330.933 719.156 330.625 719.156C330.214 719.156 329.833 719.222 329.481 719.354C329.129 719.486 328.821 719.699 328.557 719.992C328.293 720.271 328.088 720.63 327.941 721.07C327.794 721.51 327.721 722.031 327.721 722.632V728H325.741V717.572ZM348.416 728H346.436V726.504H346.392C346.01 727.061 345.482 727.494 344.808 727.802C344.148 728.11 343.466 728.264 342.762 728.264C341.955 728.264 341.222 728.125 340.562 727.846C339.916 727.567 339.359 727.179 338.89 726.68C338.435 726.181 338.083 725.602 337.834 724.942C337.584 724.282 337.46 723.563 337.46 722.786C337.46 722.009 337.584 721.29 337.834 720.63C338.083 719.955 338.435 719.376 338.89 718.892C339.359 718.393 339.916 718.005 340.562 717.726C341.222 717.447 341.955 717.308 342.762 717.308C343.51 717.308 344.214 717.469 344.874 717.792C345.534 718.1 346.04 718.525 346.392 719.068H346.436V711.368H348.416V728ZM343.004 726.416C343.532 726.416 344.008 726.328 344.434 726.152C344.859 725.961 345.218 725.712 345.512 725.404C345.805 725.081 346.032 724.7 346.194 724.26C346.355 723.805 346.436 723.314 346.436 722.786C346.436 722.258 346.355 721.774 346.194 721.334C346.032 720.879 345.805 720.498 345.512 720.19C345.218 719.867 344.859 719.618 344.434 719.442C344.008 719.251 343.532 719.156 343.004 719.156C342.476 719.156 341.999 719.251 341.574 719.442C341.148 719.618 340.789 719.867 340.496 720.19C340.202 720.498 339.975 720.879 339.814 721.334C339.652 721.774 339.572 722.258 339.572 722.786C339.572 723.314 339.652 723.805 339.814 724.26C339.975 724.7 340.202 725.081 340.496 725.404C340.789 725.712 341.148 725.961 341.574 726.152C341.999 726.328 342.476 726.416 343.004 726.416ZM356.959 720.19C356.724 719.897 356.431 719.655 356.079 719.464C355.742 719.259 355.324 719.156 354.825 719.156C354.356 719.156 353.945 719.259 353.593 719.464C353.256 719.655 353.087 719.941 353.087 720.322C353.087 720.63 353.182 720.879 353.373 721.07C353.578 721.261 353.813 721.415 354.077 721.532C354.356 721.649 354.649 721.737 354.957 721.796C355.265 721.855 355.529 721.906 355.749 721.95C356.174 722.053 356.57 722.177 356.937 722.324C357.318 722.471 357.641 722.661 357.905 722.896C358.184 723.131 358.396 723.417 358.543 723.754C358.704 724.091 358.785 724.502 358.785 724.986C358.785 725.573 358.66 726.079 358.411 726.504C358.162 726.915 357.839 727.252 357.443 727.516C357.047 727.78 356.592 727.971 356.079 728.088C355.58 728.205 355.074 728.264 354.561 728.264C353.696 728.264 352.933 728.132 352.273 727.868C351.628 727.604 351.048 727.12 350.535 726.416L352.031 725.184C352.354 725.507 352.713 725.793 353.109 726.042C353.505 726.291 353.989 726.416 354.561 726.416C354.81 726.416 355.06 726.394 355.309 726.35C355.573 726.291 355.8 726.211 355.991 726.108C356.196 725.991 356.358 725.851 356.475 725.69C356.607 725.514 356.673 725.316 356.673 725.096C356.673 724.803 356.578 724.561 356.387 724.37C356.211 724.179 355.991 724.033 355.727 723.93C355.478 723.813 355.206 723.725 354.913 723.666C354.634 723.593 354.385 723.534 354.165 723.49C353.74 723.387 353.336 723.27 352.955 723.138C352.574 723.006 352.236 722.83 351.943 722.61C351.65 722.39 351.415 722.111 351.239 721.774C351.063 721.437 350.975 721.019 350.975 720.52C350.975 719.977 351.085 719.508 351.305 719.112C351.54 718.701 351.84 718.364 352.207 718.1C352.588 717.836 353.014 717.638 353.483 717.506C353.967 717.374 354.451 717.308 354.935 717.308C355.639 717.308 356.314 717.44 356.959 717.704C357.604 717.968 358.118 718.408 358.499 719.024L356.959 720.19ZM368.083 719.288H365.839V717.572H368.083V715.24C368.083 713.847 368.347 712.813 368.875 712.138C369.418 711.449 370.342 711.104 371.647 711.104C371.867 711.104 372.095 711.111 372.329 711.126C372.579 711.141 372.843 711.185 373.121 711.258L372.901 713.018C372.711 712.945 372.527 712.893 372.351 712.864C372.175 712.835 371.985 712.82 371.779 712.82C371.413 712.82 371.119 712.879 370.899 712.996C370.679 713.099 370.503 713.253 370.371 713.458C370.254 713.663 370.173 713.913 370.129 714.206C370.1 714.485 370.085 714.807 370.085 715.174V717.572H372.439V719.288H370.063V728H368.083V719.288ZM376.246 722.786C376.246 723.314 376.326 723.805 376.488 724.26C376.649 724.7 376.876 725.081 377.17 725.404C377.463 725.712 377.822 725.961 378.248 726.152C378.673 726.328 379.15 726.416 379.678 726.416C380.206 726.416 380.682 726.328 381.108 726.152C381.533 725.961 381.892 725.712 382.186 725.404C382.479 725.081 382.706 724.7 382.868 724.26C383.029 723.805 383.11 723.314 383.11 722.786C383.11 722.258 383.029 721.774 382.868 721.334C382.706 720.879 382.479 720.498 382.186 720.19C381.892 719.867 381.533 719.618 381.108 719.442C380.682 719.251 380.206 719.156 379.678 719.156C379.15 719.156 378.673 719.251 378.248 719.442C377.822 719.618 377.463 719.867 377.17 720.19C376.876 720.498 376.649 720.879 376.488 721.334C376.326 721.774 376.246 722.258 376.246 722.786ZM374.134 722.786C374.134 722.023 374.273 721.312 374.552 720.652C374.845 719.992 375.241 719.413 375.74 718.914C376.238 718.415 376.825 718.027 377.5 717.748C378.174 717.455 378.9 717.308 379.678 717.308C380.455 717.308 381.181 717.455 381.856 717.748C382.53 718.027 383.117 718.415 383.616 718.914C384.114 719.413 384.503 719.992 384.782 720.652C385.075 721.312 385.222 722.023 385.222 722.786C385.222 723.549 385.075 724.267 384.782 724.942C384.503 725.602 384.114 726.181 383.616 726.68C383.117 727.164 382.53 727.553 381.856 727.846C381.181 728.125 380.455 728.264 379.678 728.264C378.9 728.264 378.174 728.125 377.5 727.846C376.825 727.553 376.238 727.164 375.74 726.68C375.241 726.181 374.845 725.602 374.552 724.942C374.273 724.267 374.134 723.549 374.134 722.786ZM387.702 717.572H389.682V719.178H389.726C389.858 718.899 390.034 718.65 390.254 718.43C390.474 718.195 390.716 717.997 390.98 717.836C391.259 717.675 391.559 717.55 391.882 717.462C392.205 717.359 392.527 717.308 392.85 717.308C393.173 717.308 393.466 717.352 393.73 717.44L393.642 719.574C393.481 719.53 393.319 719.493 393.158 719.464C392.997 719.435 392.835 719.42 392.674 719.42C391.706 719.42 390.965 719.691 390.452 720.234C389.939 720.777 389.682 721.62 389.682 722.764V728H387.702V717.572ZM401.968 717.572H403.816V719.2H403.86C403.904 719.053 404.014 718.87 404.19 718.65C404.38 718.43 404.615 718.225 404.894 718.034C405.187 717.829 405.524 717.66 405.906 717.528C406.302 717.381 406.734 717.308 407.204 717.308C407.981 717.308 408.634 717.469 409.162 717.792C409.69 718.115 410.122 718.599 410.46 719.244C410.797 718.599 411.274 718.115 411.89 717.792C412.506 717.469 413.129 717.308 413.76 717.308C414.566 717.308 415.226 717.44 415.74 717.704C416.253 717.968 416.656 718.32 416.95 718.76C417.243 719.185 417.441 719.677 417.544 720.234C417.661 720.777 417.72 721.341 417.72 721.928V728H415.74V722.192C415.74 721.796 415.71 721.415 415.652 721.048C415.608 720.681 415.505 720.359 415.344 720.08C415.182 719.801 414.955 719.581 414.662 719.42C414.368 719.244 413.98 719.156 413.496 719.156C412.542 719.156 411.86 719.449 411.45 720.036C411.039 720.623 410.834 721.378 410.834 722.302V728H408.854V722.544C408.854 722.045 408.824 721.591 408.766 721.18C408.722 720.769 408.619 720.417 408.458 720.124C408.311 719.816 408.091 719.581 407.798 719.42C407.519 719.244 407.138 719.156 406.654 719.156C406.302 719.156 405.957 719.229 405.62 719.376C405.297 719.508 405.011 719.713 404.762 719.992C404.512 720.271 404.314 720.63 404.168 721.07C404.021 721.495 403.948 722.001 403.948 722.588V728H401.968V717.572ZM419.448 717.572H421.736L424.838 725.712H424.882L427.83 717.572H429.964L425.014 730.244C424.838 730.699 424.655 731.109 424.464 731.476C424.273 731.857 424.046 732.18 423.782 732.444C423.518 732.708 423.195 732.913 422.814 733.06C422.447 733.207 421.993 733.28 421.45 733.28C421.157 733.28 420.856 733.258 420.548 733.214C420.255 733.185 419.969 733.111 419.69 732.994L419.932 731.19C420.328 731.351 420.724 731.432 421.12 731.432C421.428 731.432 421.685 731.388 421.89 731.3C422.11 731.227 422.293 731.109 422.44 730.948C422.601 730.801 422.733 730.625 422.836 730.42C422.939 730.215 423.041 729.98 423.144 729.716L423.782 728.066L419.448 717.572ZM438.595 719.288H436.351V717.572H438.595V715.24C438.595 713.847 438.859 712.813 439.387 712.138C439.93 711.449 440.854 711.104 442.159 711.104C442.379 711.104 442.606 711.111 442.841 711.126C443.09 711.141 443.354 711.185 443.633 711.258L443.413 713.018C443.222 712.945 443.039 712.893 442.863 712.864C442.687 712.835 442.496 712.82 442.291 712.82C441.924 712.82 441.631 712.879 441.411 712.996C441.191 713.099 441.015 713.253 440.883 713.458C440.766 713.663 440.685 713.913 440.641 714.206C440.612 714.485 440.597 714.807 440.597 715.174V717.572H442.951V719.288H440.575V728H438.595V719.288ZM445.305 717.572H447.285V728H445.305V717.572ZM444.843 713.832C444.843 713.436 444.983 713.099 445.261 712.82C445.555 712.527 445.899 712.38 446.295 712.38C446.691 712.38 447.029 712.527 447.307 712.82C447.601 713.099 447.747 713.436 447.747 713.832C447.747 714.228 447.601 714.573 447.307 714.866C447.029 715.145 446.691 715.284 446.295 715.284C445.899 715.284 445.555 715.145 445.261 714.866C444.983 714.573 444.843 714.228 444.843 713.832ZM450.436 717.572H452.416V719.178H452.46C452.71 718.621 453.142 718.173 453.758 717.836C454.374 717.484 455.086 717.308 455.892 717.308C456.391 717.308 456.868 717.389 457.322 717.55C457.792 717.697 458.195 717.931 458.532 718.254C458.884 718.577 459.163 718.995 459.368 719.508C459.574 720.007 459.676 720.601 459.676 721.29V728H457.696V721.84C457.696 721.356 457.63 720.945 457.498 720.608C457.366 720.256 457.19 719.977 456.97 719.772C456.75 719.552 456.494 719.398 456.2 719.31C455.922 719.207 455.628 719.156 455.32 719.156C454.91 719.156 454.528 719.222 454.176 719.354C453.824 719.486 453.516 719.699 453.252 719.992C452.988 720.271 452.783 720.63 452.636 721.07C452.49 721.51 452.416 722.031 452.416 722.632V728H450.436V717.572ZM468.249 719.288H465.411V724.018C465.411 724.311 465.418 724.605 465.433 724.898C465.448 725.177 465.499 725.433 465.587 725.668C465.69 725.888 465.836 726.071 466.027 726.218C466.232 726.35 466.526 726.416 466.907 726.416C467.142 726.416 467.384 726.394 467.633 726.35C467.882 726.306 468.11 726.225 468.315 726.108V727.912C468.08 728.044 467.772 728.132 467.391 728.176C467.024 728.235 466.738 728.264 466.533 728.264C465.77 728.264 465.176 728.161 464.751 727.956C464.34 727.736 464.032 727.457 463.827 727.12C463.636 726.783 463.519 726.409 463.475 725.998C463.446 725.573 463.431 725.147 463.431 724.722V719.288H461.143V717.572H463.431V714.646H465.411V717.572H468.249V719.288ZM472.3 723.512C472.3 723.967 472.395 724.385 472.586 724.766C472.791 725.133 473.055 725.448 473.378 725.712C473.7 725.976 474.074 726.181 474.5 726.328C474.925 726.475 475.365 726.548 475.82 726.548C476.436 726.548 476.971 726.409 477.426 726.13C477.88 725.837 478.298 725.455 478.68 724.986L480.176 726.13C479.076 727.553 477.536 728.264 475.556 728.264C474.734 728.264 473.986 728.125 473.312 727.846C472.652 727.567 472.087 727.186 471.618 726.702C471.163 726.203 470.811 725.624 470.562 724.964C470.312 724.289 470.188 723.563 470.188 722.786C470.188 722.009 470.32 721.29 470.584 720.63C470.862 719.955 471.236 719.376 471.706 718.892C472.19 718.393 472.762 718.005 473.422 717.726C474.082 717.447 474.8 717.308 475.578 717.308C476.502 717.308 477.279 717.469 477.91 717.792C478.555 718.115 479.083 718.54 479.494 719.068C479.904 719.581 480.198 720.168 480.374 720.828C480.564 721.473 480.66 722.133 480.66 722.808V723.512H472.3ZM478.548 721.928C478.533 721.488 478.46 721.085 478.328 720.718C478.21 720.351 478.027 720.036 477.778 719.772C477.528 719.493 477.213 719.281 476.832 719.134C476.465 718.973 476.032 718.892 475.534 718.892C475.05 718.892 474.602 718.987 474.192 719.178C473.796 719.354 473.458 719.589 473.18 719.882C472.901 720.175 472.681 720.505 472.52 720.872C472.373 721.224 472.3 721.576 472.3 721.928H478.548ZM490.486 720.344C490.12 719.963 489.731 719.677 489.32 719.486C488.924 719.281 488.448 719.178 487.89 719.178C487.348 719.178 486.871 719.281 486.46 719.486C486.064 719.677 485.727 719.948 485.448 720.3C485.184 720.637 484.979 721.033 484.832 721.488C484.7 721.928 484.634 722.39 484.634 722.874C484.634 723.358 484.715 723.82 484.876 724.26C485.038 724.685 485.265 725.059 485.558 725.382C485.852 725.705 486.204 725.961 486.614 726.152C487.025 726.328 487.487 726.416 488 726.416C488.558 726.416 489.034 726.321 489.43 726.13C489.826 725.925 490.193 725.631 490.53 725.25L491.938 726.658C491.425 727.23 490.824 727.641 490.134 727.89C489.46 728.139 488.741 728.264 487.978 728.264C487.172 728.264 486.431 728.132 485.756 727.868C485.096 727.604 484.524 727.237 484.04 726.768C483.556 726.284 483.182 725.712 482.918 725.052C482.654 724.377 482.522 723.637 482.522 722.83C482.522 722.023 482.654 721.283 482.918 720.608C483.182 719.933 483.549 719.354 484.018 718.87C484.502 718.386 485.074 718.012 485.734 717.748C486.409 717.469 487.157 717.33 487.978 717.33C488.741 717.33 489.467 717.469 490.156 717.748C490.86 718.012 491.469 718.423 491.982 718.98L490.486 720.344ZM493.642 711.368H495.622V719.178H495.666C495.915 718.621 496.348 718.173 496.964 717.836C497.58 717.484 498.291 717.308 499.098 717.308C499.596 717.308 500.073 717.389 500.528 717.55C500.997 717.697 501.4 717.931 501.738 718.254C502.09 718.577 502.368 718.995 502.574 719.508C502.779 720.007 502.882 720.601 502.882 721.29V728H500.902V721.84C500.902 721.356 500.836 720.945 500.704 720.608C500.572 720.256 500.396 719.977 500.176 719.772C499.956 719.552 499.699 719.398 499.406 719.31C499.127 719.207 498.834 719.156 498.526 719.156C498.115 719.156 497.734 719.222 497.382 719.354C497.03 719.486 496.722 719.699 496.458 719.992C496.194 720.271 495.988 720.63 495.842 721.07C495.695 721.51 495.622 722.031 495.622 722.632V728H493.642V711.368ZM517.533 720.19C517.298 719.897 517.005 719.655 516.653 719.464C516.316 719.259 515.898 719.156 515.399 719.156C514.93 719.156 514.519 719.259 514.167 719.464C513.83 719.655 513.661 719.941 513.661 720.322C513.661 720.63 513.756 720.879 513.947 721.07C514.152 721.261 514.387 721.415 514.651 721.532C514.93 721.649 515.223 721.737 515.531 721.796C515.839 721.855 516.103 721.906 516.323 721.95C516.748 722.053 517.144 722.177 517.511 722.324C517.892 722.471 518.215 722.661 518.479 722.896C518.758 723.131 518.97 723.417 519.117 723.754C519.278 724.091 519.359 724.502 519.359 724.986C519.359 725.573 519.234 726.079 518.985 726.504C518.736 726.915 518.413 727.252 518.017 727.516C517.621 727.78 517.166 727.971 516.653 728.088C516.154 728.205 515.648 728.264 515.135 728.264C514.27 728.264 513.507 728.132 512.847 727.868C512.202 727.604 511.622 727.12 511.109 726.416L512.605 725.184C512.928 725.507 513.287 725.793 513.683 726.042C514.079 726.291 514.563 726.416 515.135 726.416C515.384 726.416 515.634 726.394 515.883 726.35C516.147 726.291 516.374 726.211 516.565 726.108C516.77 725.991 516.932 725.851 517.049 725.69C517.181 725.514 517.247 725.316 517.247 725.096C517.247 724.803 517.152 724.561 516.961 724.37C516.785 724.179 516.565 724.033 516.301 723.93C516.052 723.813 515.78 723.725 515.487 723.666C515.208 723.593 514.959 723.534 514.739 723.49C514.314 723.387 513.91 723.27 513.529 723.138C513.148 723.006 512.81 722.83 512.517 722.61C512.224 722.39 511.989 722.111 511.813 721.774C511.637 721.437 511.549 721.019 511.549 720.52C511.549 719.977 511.659 719.508 511.879 719.112C512.114 718.701 512.414 718.364 512.781 718.1C513.162 717.836 513.588 717.638 514.057 717.506C514.541 717.374 515.025 717.308 515.509 717.308C516.213 717.308 516.888 717.44 517.533 717.704C518.178 717.968 518.692 718.408 519.073 719.024L517.533 720.19ZM527.353 719.288H524.515V724.018C524.515 724.311 524.522 724.605 524.537 724.898C524.551 725.177 524.603 725.433 524.691 725.668C524.793 725.888 524.94 726.071 525.131 726.218C525.336 726.35 525.629 726.416 526.011 726.416C526.245 726.416 526.487 726.394 526.737 726.35C526.986 726.306 527.213 726.225 527.419 726.108V727.912C527.184 728.044 526.876 728.132 526.495 728.176C526.128 728.235 525.842 728.264 525.637 728.264C524.874 728.264 524.28 728.161 523.855 727.956C523.444 727.736 523.136 727.457 522.931 727.12C522.74 726.783 522.623 726.409 522.579 725.998C522.549 725.573 522.535 725.147 522.535 724.722V719.288H520.247V717.572H522.535V714.646H524.515V717.572H527.353V719.288ZM529.951 718.848C530.508 718.335 531.154 717.953 531.887 717.704C532.62 717.44 533.354 717.308 534.087 717.308C534.85 717.308 535.502 717.403 536.045 717.594C536.602 717.785 537.057 718.041 537.409 718.364C537.761 718.687 538.018 719.061 538.179 719.486C538.355 719.897 538.443 720.329 538.443 720.784V726.108C538.443 726.475 538.45 726.812 538.465 727.12C538.48 727.428 538.502 727.721 538.531 728H536.771C536.727 727.472 536.705 726.944 536.705 726.416H536.661C536.221 727.091 535.7 727.567 535.099 727.846C534.498 728.125 533.801 728.264 533.009 728.264C532.525 728.264 532.063 728.198 531.623 728.066C531.183 727.934 530.794 727.736 530.457 727.472C530.134 727.208 529.878 726.885 529.687 726.504C529.496 726.108 529.401 725.653 529.401 725.14C529.401 724.465 529.548 723.901 529.841 723.446C530.149 722.991 530.56 722.625 531.073 722.346C531.601 722.053 532.21 721.847 532.899 721.73C533.603 721.598 534.351 721.532 535.143 721.532H536.595V721.092C536.595 720.828 536.544 720.564 536.441 720.3C536.338 720.036 536.184 719.801 535.979 719.596C535.774 719.376 535.517 719.207 535.209 719.09C534.901 718.958 534.534 718.892 534.109 718.892C533.728 718.892 533.39 718.929 533.097 719.002C532.818 719.075 532.562 719.171 532.327 719.288C532.092 719.391 531.88 719.515 531.689 719.662C531.498 719.809 531.315 719.948 531.139 720.08L529.951 718.848ZM535.539 722.984C535.07 722.984 534.586 723.013 534.087 723.072C533.603 723.116 533.156 723.211 532.745 723.358C532.349 723.505 532.019 723.71 531.755 723.974C531.506 724.238 531.381 724.575 531.381 724.986C531.381 725.587 531.579 726.02 531.975 726.284C532.386 726.548 532.936 726.68 533.625 726.68C534.168 726.68 534.63 726.592 535.011 726.416C535.392 726.225 535.7 725.983 535.935 725.69C536.17 725.397 536.338 725.074 536.441 724.722C536.544 724.355 536.595 723.996 536.595 723.644V722.984H535.539ZM541.315 717.572H543.295V719.178H543.339C543.471 718.899 543.647 718.65 543.867 718.43C544.087 718.195 544.329 717.997 544.593 717.836C544.872 717.675 545.173 717.55 545.495 717.462C545.818 717.359 546.141 717.308 546.463 717.308C546.786 717.308 547.079 717.352 547.343 717.44L547.255 719.574C547.094 719.53 546.933 719.493 546.771 719.464C546.61 719.435 546.449 719.42 546.287 719.42C545.319 719.42 544.579 719.691 544.065 720.234C543.552 720.777 543.295 721.62 543.295 722.764V728H541.315V717.572ZM555.046 719.288H552.208V724.018C552.208 724.311 552.215 724.605 552.23 724.898C552.245 725.177 552.296 725.433 552.384 725.668C552.487 725.888 552.633 726.071 552.824 726.218C553.029 726.35 553.323 726.416 553.704 726.416C553.939 726.416 554.181 726.394 554.43 726.35C554.679 726.306 554.907 726.225 555.112 726.108V727.912C554.877 728.044 554.569 728.132 554.188 728.176C553.821 728.235 553.535 728.264 553.33 728.264C552.567 728.264 551.973 728.161 551.548 727.956C551.137 727.736 550.829 727.457 550.624 727.12C550.433 726.783 550.316 726.409 550.272 725.998C550.243 725.573 550.228 725.147 550.228 724.722V719.288H547.94V717.572H550.228V714.646H552.208V717.572H555.046V719.288ZM566.84 728H564.86V726.394H564.816C564.567 726.951 564.134 727.406 563.518 727.758C562.902 728.095 562.191 728.264 561.384 728.264C560.871 728.264 560.387 728.183 559.932 728.022C559.478 727.875 559.074 727.641 558.722 727.318C558.385 726.995 558.114 726.585 557.908 726.086C557.703 725.573 557.6 724.971 557.6 724.282V717.572H559.58V723.732C559.58 724.216 559.646 724.634 559.778 724.986C559.91 725.323 560.086 725.602 560.306 725.822C560.526 726.027 560.776 726.181 561.054 726.284C561.348 726.372 561.648 726.416 561.956 726.416C562.367 726.416 562.748 726.35 563.1 726.218C563.452 726.086 563.76 725.881 564.024 725.602C564.288 725.309 564.494 724.942 564.64 724.502C564.787 724.062 564.86 723.541 564.86 722.94V717.572H566.84V728ZM569.825 717.572H571.805V719.068H571.849C572.23 718.511 572.751 718.078 573.411 717.77C574.086 717.462 574.775 717.308 575.479 717.308C576.286 717.308 577.012 717.447 577.657 717.726C578.317 718.005 578.874 718.393 579.329 718.892C579.798 719.391 580.158 719.977 580.407 720.652C580.656 721.312 580.781 722.023 580.781 722.786C580.781 723.563 580.656 724.289 580.407 724.964C580.158 725.624 579.798 726.203 579.329 726.702C578.874 727.186 578.317 727.567 577.657 727.846C577.012 728.125 576.286 728.264 575.479 728.264C574.731 728.264 574.027 728.11 573.367 727.802C572.707 727.479 572.201 727.047 571.849 726.504H571.805V734.204H569.825V717.572ZM575.237 719.156C574.709 719.156 574.232 719.251 573.807 719.442C573.382 719.618 573.022 719.867 572.729 720.19C572.436 720.498 572.208 720.879 572.047 721.334C571.886 721.774 571.805 722.258 571.805 722.786C571.805 723.314 571.886 723.805 572.047 724.26C572.208 724.7 572.436 725.081 572.729 725.404C573.022 725.712 573.382 725.961 573.807 726.152C574.232 726.328 574.709 726.416 575.237 726.416C575.765 726.416 576.242 726.328 576.667 726.152C577.092 725.961 577.452 725.712 577.745 725.404C578.038 725.081 578.266 724.7 578.427 724.26C578.588 723.805 578.669 723.314 578.669 722.786C578.669 722.258 578.588 721.774 578.427 721.334C578.266 720.879 578.038 720.498 577.745 720.19C577.452 719.867 577.092 719.618 576.667 719.442C576.242 719.251 575.765 719.156 575.237 719.156ZM586.398 723.644V722.302C586.398 721.906 586.428 721.576 586.486 721.312C586.545 721.048 586.633 720.813 586.75 720.608C586.868 720.388 587.022 720.183 587.212 719.992C587.418 719.787 587.667 719.545 587.96 719.266C588.195 719.046 588.43 718.826 588.664 718.606C588.899 718.371 589.112 718.137 589.302 717.902C589.493 717.653 589.647 717.396 589.764 717.132C589.896 716.853 589.962 716.545 589.962 716.208C589.962 715.871 589.896 715.563 589.764 715.284C589.647 714.991 589.486 714.741 589.28 714.536C589.075 714.331 588.826 714.169 588.532 714.052C588.254 713.935 587.953 713.876 587.63 713.876C586.912 713.876 586.325 714.103 585.87 714.558C585.43 715.013 585.166 715.607 585.078 716.34L582.834 716.12C583.025 714.844 583.553 713.847 584.418 713.128C585.298 712.395 586.384 712.028 587.674 712.028C588.29 712.028 588.862 712.123 589.39 712.314C589.933 712.49 590.402 712.754 590.798 713.106C591.194 713.443 591.502 713.869 591.722 714.382C591.957 714.881 592.074 715.453 592.074 716.098C592.074 716.655 591.994 717.147 591.832 717.572C591.671 717.983 591.444 718.371 591.15 718.738L589.83 720.102L589.61 720.3C589.376 720.52 589.185 720.711 589.038 720.872C588.906 721.019 588.796 721.18 588.708 721.356C588.635 721.517 588.584 721.701 588.554 721.906C588.525 722.111 588.51 722.368 588.51 722.676V723.644H586.398ZM585.98 726.68C585.98 726.284 586.12 725.947 586.398 725.668C586.692 725.375 587.036 725.228 587.432 725.228C587.828 725.228 588.166 725.375 588.444 725.668C588.738 725.947 588.884 726.284 588.884 726.68C588.884 727.076 588.738 727.421 588.444 727.714C588.166 727.993 587.828 728.132 587.432 728.132C587.036 728.132 586.692 727.993 586.398 727.714C586.12 727.421 585.98 727.076 585.98 726.68Z" fill="white"/>
<g opacity="0.5" clip-path="url(#clip0_5_1585)">
<path d="M972.05 708.123L977.643 713.83C979.244 715.382 980.5 716.098 982.107 716.495C982.971 716.709 983.662 717.478 983.661 718.447C983.66 719.557 982.841 720.521 981.688 720.522C980.534 720.523 955.033 720.543 955.033 720.543C955.01 720.543 954.991 720.562 954.991 720.585L954.99 722.413C954.99 722.436 955.008 722.455 955.031 722.455L981.686 722.433C984.032 722.431 984.306 725.919 982.089 726.457C980.428 726.859 979.118 727.592 977.415 729.297L972.025 734.845C972.009 734.861 972.009 734.887 972.025 734.903L973.234 736.148C973.251 736.165 973.278 736.165 973.294 736.148L987.971 721.529C987.987 721.513 987.987 721.487 987.971 721.471L973.32 706.819C973.303 706.802 973.276 706.802 973.259 706.819L972.05 708.064C972.034 708.081 972.034 708.107 972.05 708.123Z" fill="url(#paint2_linear_5_1585)"/>
</g>
<defs>
<radialGradient id="paint0_radial_5_1585" cx="0" cy="0" r="1" gradientUnits="userSpaceOnUse" gradientTransform="translate(595.166 435.716) rotate(90) scale(440.992 579.004)">
<stop stop-color="#2A7D82" stop-opacity="0"/>
<stop offset="1" stop-color="#2A7D82"/>
</radialGradient>
<radialGradient id="paint1_radial_5_1585" cx="0" cy="0" r="1" gradientUnits="userSpaceOnUse" gradientTransform="translate(613.886 721.818) rotate(90) scale(52.5659 465.691)">
<stop stop-color="#2A7D82" stop-opacity="0"/>
<stop offset="1" stop-color="#2A7D82"/>
</radialGradient>
<linearGradient id="paint2_linear_5_1585" x1="962.544" y1="713.015" x2="977.194" y2="727.665" gradientUnits="userSpaceOnUse">
<stop stop-color="#FFDDBD"/>
<stop offset="1" stop-color="#E59E5F"/>
</linearGradient>
<clipPath id="clip0_5_1585">
<rect width="24" height="24" fill="white" transform="translate(971.03 704.529) rotate(45)"/>
</clipPath>
</defs>
</svg>
