<svg width="1160" height="823" viewBox="0 0 1160 823" fill="none" xmlns="http://www.w3.org/2000/svg">
<path d="M1 212.039V56.2354L60.8332 6.16086L1133.41 1L1159 40.4738V822H1V343.711" stroke="url(#paint0_radial_5_1850)" stroke-width="1.63784"/>
<path d="M1 56.2354V212.039V343.711V822H1159V40.4738L1133.41 1L60.8332 6.16086L1 56.2354Z" fill="#0C3538"/>
<path d="M136 695.156V676.584L144.559 670L1015.25 670L1024 680.995V761.572L1006.21 773H144.559L136 762.297V710.851" stroke="url(#paint1_radial_5_1850)" stroke-width="2"/>
<path d="M174.561 724.744C174.942 725.316 175.426 725.741 176.013 726.02C176.614 726.284 177.23 726.416 177.861 726.416C178.213 726.416 178.572 726.365 178.939 726.262C179.305 726.145 179.635 725.976 179.929 725.756C180.237 725.536 180.486 725.265 180.677 724.942C180.867 724.619 180.963 724.245 180.963 723.82C180.963 723.219 180.772 722.764 180.391 722.456C180.009 722.133 179.533 721.869 178.961 721.664C178.403 721.444 177.787 721.239 177.113 721.048C176.453 720.843 175.837 720.564 175.265 720.212C174.707 719.86 174.238 719.391 173.857 718.804C173.475 718.203 173.285 717.396 173.285 716.384C173.285 715.929 173.38 715.445 173.571 714.932C173.776 714.419 174.091 713.949 174.517 713.524C174.942 713.099 175.485 712.747 176.145 712.468C176.819 712.175 177.626 712.028 178.565 712.028C179.415 712.028 180.229 712.145 181.007 712.38C181.784 712.615 182.466 713.091 183.053 713.81L181.337 715.372C181.073 714.961 180.699 714.631 180.215 714.382C179.731 714.133 179.181 714.008 178.565 714.008C177.978 714.008 177.487 714.089 177.091 714.25C176.709 714.397 176.401 714.595 176.167 714.844C175.932 715.079 175.763 715.335 175.661 715.614C175.573 715.893 175.529 716.149 175.529 716.384C175.529 717.044 175.719 717.55 176.101 717.902C176.482 718.254 176.951 718.54 177.509 718.76C178.081 718.98 178.697 719.178 179.357 719.354C180.031 719.53 180.647 719.779 181.205 720.102C181.777 720.41 182.253 720.835 182.635 721.378C183.016 721.906 183.207 722.639 183.207 723.578C183.207 724.326 183.06 725.001 182.767 725.602C182.488 726.203 182.107 726.709 181.623 727.12C181.139 727.531 180.567 727.846 179.907 728.066C179.247 728.286 178.543 728.396 177.795 728.396C176.797 728.396 175.851 728.22 174.957 727.868C174.062 727.516 173.351 726.973 172.823 726.24L174.561 724.744ZM185.817 711.368H187.797V719.178H187.841C188.091 718.621 188.523 718.173 189.139 717.836C189.755 717.484 190.467 717.308 191.273 717.308C191.772 717.308 192.249 717.389 192.703 717.55C193.173 717.697 193.576 717.931 193.913 718.254C194.265 718.577 194.544 718.995 194.749 719.508C194.955 720.007 195.057 720.601 195.057 721.29V728H193.077V721.84C193.077 721.356 193.011 720.945 192.879 720.608C192.747 720.256 192.571 719.977 192.351 719.772C192.131 719.552 191.875 719.398 191.581 719.31C191.303 719.207 191.009 719.156 190.701 719.156C190.291 719.156 189.909 719.222 189.557 719.354C189.205 719.486 188.897 719.699 188.633 719.992C188.369 720.271 188.164 720.63 188.017 721.07C187.871 721.51 187.797 722.031 187.797 722.632V728H185.817V711.368ZM198.086 718.848C198.643 718.335 199.289 717.953 200.022 717.704C200.755 717.44 201.489 717.308 202.222 717.308C202.985 717.308 203.637 717.403 204.18 717.594C204.737 717.785 205.192 718.041 205.544 718.364C205.896 718.687 206.153 719.061 206.314 719.486C206.49 719.897 206.578 720.329 206.578 720.784V726.108C206.578 726.475 206.585 726.812 206.6 727.12C206.615 727.428 206.637 727.721 206.666 728H204.906C204.862 727.472 204.84 726.944 204.84 726.416H204.796C204.356 727.091 203.835 727.567 203.234 727.846C202.633 728.125 201.936 728.264 201.144 728.264C200.66 728.264 200.198 728.198 199.758 728.066C199.318 727.934 198.929 727.736 198.592 727.472C198.269 727.208 198.013 726.885 197.822 726.504C197.631 726.108 197.536 725.653 197.536 725.14C197.536 724.465 197.683 723.901 197.976 723.446C198.284 722.991 198.695 722.625 199.208 722.346C199.736 722.053 200.345 721.847 201.034 721.73C201.738 721.598 202.486 721.532 203.278 721.532H204.73V721.092C204.73 720.828 204.679 720.564 204.576 720.3C204.473 720.036 204.319 719.801 204.114 719.596C203.909 719.376 203.652 719.207 203.344 719.09C203.036 718.958 202.669 718.892 202.244 718.892C201.863 718.892 201.525 718.929 201.232 719.002C200.953 719.075 200.697 719.171 200.462 719.288C200.227 719.391 200.015 719.515 199.824 719.662C199.633 719.809 199.45 719.948 199.274 720.08L198.086 718.848ZM203.674 722.984C203.205 722.984 202.721 723.013 202.222 723.072C201.738 723.116 201.291 723.211 200.88 723.358C200.484 723.505 200.154 723.71 199.89 723.974C199.641 724.238 199.516 724.575 199.516 724.986C199.516 725.587 199.714 726.02 200.11 726.284C200.521 726.548 201.071 726.68 201.76 726.68C202.303 726.68 202.765 726.592 203.146 726.416C203.527 726.225 203.835 725.983 204.07 725.69C204.305 725.397 204.473 725.074 204.576 724.722C204.679 724.355 204.73 723.996 204.73 723.644V722.984H203.674ZM209.45 717.572H211.43V719.178H211.474C211.606 718.899 211.782 718.65 212.002 718.43C212.222 718.195 212.464 717.997 212.728 717.836C213.007 717.675 213.307 717.55 213.63 717.462C213.953 717.359 214.275 717.308 214.598 717.308C214.921 717.308 215.214 717.352 215.478 717.44L215.39 719.574C215.229 719.53 215.067 719.493 214.906 719.464C214.745 719.435 214.583 719.42 214.422 719.42C213.454 719.42 212.713 719.691 212.2 720.234C211.687 720.777 211.43 721.62 211.43 722.764V728H209.45V717.572ZM218.702 723.512C218.702 723.967 218.797 724.385 218.988 724.766C219.193 725.133 219.457 725.448 219.78 725.712C220.103 725.976 220.477 726.181 220.902 726.328C221.327 726.475 221.767 726.548 222.222 726.548C222.838 726.548 223.373 726.409 223.828 726.13C224.283 725.837 224.701 725.455 225.082 724.986L226.578 726.13C225.478 727.553 223.938 728.264 221.958 728.264C221.137 728.264 220.389 728.125 219.714 727.846C219.054 727.567 218.489 727.186 218.02 726.702C217.565 726.203 217.213 725.624 216.964 724.964C216.715 724.289 216.59 723.563 216.59 722.786C216.59 722.009 216.722 721.29 216.986 720.63C217.265 719.955 217.639 719.376 218.108 718.892C218.592 718.393 219.164 718.005 219.824 717.726C220.484 717.447 221.203 717.308 221.98 717.308C222.904 717.308 223.681 717.469 224.312 717.792C224.957 718.115 225.485 718.54 225.896 719.068C226.307 719.581 226.6 720.168 226.776 720.828C226.967 721.473 227.062 722.133 227.062 722.808V723.512H218.702ZM224.95 721.928C224.935 721.488 224.862 721.085 224.73 720.718C224.613 720.351 224.429 720.036 224.18 719.772C223.931 719.493 223.615 719.281 223.234 719.134C222.867 718.973 222.435 718.892 221.936 718.892C221.452 718.892 221.005 718.987 220.594 719.178C220.198 719.354 219.861 719.589 219.582 719.882C219.303 720.175 219.083 720.505 218.922 720.872C218.775 721.224 218.702 721.576 218.702 721.928H224.95ZM241.098 720.19C240.863 719.897 240.57 719.655 240.218 719.464C239.88 719.259 239.462 719.156 238.964 719.156C238.494 719.156 238.084 719.259 237.732 719.464C237.394 719.655 237.226 719.941 237.226 720.322C237.226 720.63 237.321 720.879 237.512 721.07C237.717 721.261 237.952 721.415 238.216 721.532C238.494 721.649 238.788 721.737 239.096 721.796C239.404 721.855 239.668 721.906 239.888 721.95C240.313 722.053 240.709 722.177 241.076 722.324C241.457 722.471 241.78 722.661 242.044 722.896C242.322 723.131 242.535 723.417 242.682 723.754C242.843 724.091 242.924 724.502 242.924 724.986C242.924 725.573 242.799 726.079 242.55 726.504C242.3 726.915 241.978 727.252 241.582 727.516C241.186 727.78 240.731 727.971 240.218 728.088C239.719 728.205 239.213 728.264 238.7 728.264C237.834 728.264 237.072 728.132 236.412 727.868C235.766 727.604 235.187 727.12 234.674 726.416L236.17 725.184C236.492 725.507 236.852 725.793 237.248 726.042C237.644 726.291 238.128 726.416 238.7 726.416C238.949 726.416 239.198 726.394 239.448 726.35C239.712 726.291 239.939 726.211 240.13 726.108C240.335 725.991 240.496 725.851 240.614 725.69C240.746 725.514 240.812 725.316 240.812 725.096C240.812 724.803 240.716 724.561 240.526 724.37C240.35 724.179 240.13 724.033 239.866 723.93C239.616 723.813 239.345 723.725 239.052 723.666C238.773 723.593 238.524 723.534 238.304 723.49C237.878 723.387 237.475 723.27 237.094 723.138C236.712 723.006 236.375 722.83 236.082 722.61C235.788 722.39 235.554 722.111 235.378 721.774C235.202 721.437 235.114 721.019 235.114 720.52C235.114 719.977 235.224 719.508 235.444 719.112C235.678 718.701 235.979 718.364 236.346 718.1C236.727 717.836 237.152 717.638 237.622 717.506C238.106 717.374 238.59 717.308 239.074 717.308C239.778 717.308 240.452 717.44 241.098 717.704C241.743 717.968 242.256 718.408 242.638 719.024L241.098 720.19ZM246.935 722.786C246.935 723.314 247.016 723.805 247.177 724.26C247.338 724.7 247.566 725.081 247.859 725.404C248.152 725.712 248.512 725.961 248.937 726.152C249.362 726.328 249.839 726.416 250.367 726.416C250.895 726.416 251.372 726.328 251.797 726.152C252.222 725.961 252.582 725.712 252.875 725.404C253.168 725.081 253.396 724.7 253.557 724.26C253.718 723.805 253.799 723.314 253.799 722.786C253.799 722.258 253.718 721.774 253.557 721.334C253.396 720.879 253.168 720.498 252.875 720.19C252.582 719.867 252.222 719.618 251.797 719.442C251.372 719.251 250.895 719.156 250.367 719.156C249.839 719.156 249.362 719.251 248.937 719.442C248.512 719.618 248.152 719.867 247.859 720.19C247.566 720.498 247.338 720.879 247.177 721.334C247.016 721.774 246.935 722.258 246.935 722.786ZM244.823 722.786C244.823 722.023 244.962 721.312 245.241 720.652C245.534 719.992 245.93 719.413 246.429 718.914C246.928 718.415 247.514 718.027 248.189 717.748C248.864 717.455 249.59 717.308 250.367 717.308C251.144 717.308 251.87 717.455 252.545 717.748C253.22 718.027 253.806 718.415 254.305 718.914C254.804 719.413 255.192 719.992 255.471 720.652C255.764 721.312 255.911 722.023 255.911 722.786C255.911 723.549 255.764 724.267 255.471 724.942C255.192 725.602 254.804 726.181 254.305 726.68C253.806 727.164 253.22 727.553 252.545 727.846C251.87 728.125 251.144 728.264 250.367 728.264C249.59 728.264 248.864 728.125 248.189 727.846C247.514 727.553 246.928 727.164 246.429 726.68C245.93 726.181 245.534 725.602 245.241 724.942C244.962 724.267 244.823 723.549 244.823 722.786ZM258.392 717.572H260.24V719.2H260.284C260.328 719.053 260.438 718.87 260.614 718.65C260.804 718.43 261.039 718.225 261.318 718.034C261.611 717.829 261.948 717.66 262.33 717.528C262.726 717.381 263.158 717.308 263.628 717.308C264.405 717.308 265.058 717.469 265.586 717.792C266.114 718.115 266.546 718.599 266.884 719.244C267.221 718.599 267.698 718.115 268.314 717.792C268.93 717.469 269.553 717.308 270.184 717.308C270.99 717.308 271.65 717.44 272.164 717.704C272.677 717.968 273.08 718.32 273.374 718.76C273.667 719.185 273.865 719.677 273.968 720.234C274.085 720.777 274.144 721.341 274.144 721.928V728H272.164V722.192C272.164 721.796 272.134 721.415 272.076 721.048C272.032 720.681 271.929 720.359 271.768 720.08C271.606 719.801 271.379 719.581 271.086 719.42C270.792 719.244 270.404 719.156 269.92 719.156C268.966 719.156 268.284 719.449 267.874 720.036C267.463 720.623 267.258 721.378 267.258 722.302V728H265.278V722.544C265.278 722.045 265.248 721.591 265.19 721.18C265.146 720.769 265.043 720.417 264.882 720.124C264.735 719.816 264.515 719.581 264.222 719.42C263.943 719.244 263.562 719.156 263.078 719.156C262.726 719.156 262.381 719.229 262.044 719.376C261.721 719.508 261.435 719.713 261.186 719.992C260.936 720.271 260.738 720.63 260.592 721.07C260.445 721.495 260.372 722.001 260.372 722.588V728H258.392V717.572ZM278.622 723.512C278.622 723.967 278.717 724.385 278.908 724.766C279.113 725.133 279.377 725.448 279.7 725.712C280.023 725.976 280.397 726.181 280.822 726.328C281.247 726.475 281.687 726.548 282.142 726.548C282.758 726.548 283.293 726.409 283.748 726.13C284.203 725.837 284.621 725.455 285.002 724.986L286.498 726.13C285.398 727.553 283.858 728.264 281.878 728.264C281.057 728.264 280.309 728.125 279.634 727.846C278.974 727.567 278.409 727.186 277.94 726.702C277.485 726.203 277.133 725.624 276.884 724.964C276.635 724.289 276.51 723.563 276.51 722.786C276.51 722.009 276.642 721.29 276.906 720.63C277.185 719.955 277.559 719.376 278.028 718.892C278.512 718.393 279.084 718.005 279.744 717.726C280.404 717.447 281.123 717.308 281.9 717.308C282.824 717.308 283.601 717.469 284.232 717.792C284.877 718.115 285.405 718.54 285.816 719.068C286.227 719.581 286.52 720.168 286.696 720.828C286.887 721.473 286.982 722.133 286.982 722.808V723.512H278.622ZM284.87 721.928C284.855 721.488 284.782 721.085 284.65 720.718C284.533 720.351 284.349 720.036 284.1 719.772C283.851 719.493 283.535 719.281 283.154 719.134C282.787 718.973 282.355 718.892 281.856 718.892C281.372 718.892 280.925 718.987 280.514 719.178C280.118 719.354 279.781 719.589 279.502 719.882C279.223 720.175 279.003 720.505 278.842 720.872C278.695 721.224 278.622 721.576 278.622 721.928H284.87ZM295.474 717.572H297.454V719.178H297.498C297.63 718.899 297.806 718.65 298.026 718.43C298.246 718.195 298.488 717.997 298.752 717.836C299.03 717.675 299.331 717.55 299.654 717.462C299.976 717.359 300.299 717.308 300.622 717.308C300.944 717.308 301.238 717.352 301.502 717.44L301.414 719.574C301.252 719.53 301.091 719.493 300.93 719.464C300.768 719.435 300.607 719.42 300.446 719.42C299.478 719.42 298.737 719.691 298.224 720.234C297.71 720.777 297.454 721.62 297.454 722.764V728H295.474V717.572ZM304.725 723.512C304.725 723.967 304.821 724.385 305.011 724.766C305.217 725.133 305.481 725.448 305.803 725.712C306.126 725.976 306.5 726.181 306.925 726.328C307.351 726.475 307.791 726.548 308.245 726.548C308.861 726.548 309.397 726.409 309.851 726.13C310.306 725.837 310.724 725.455 311.105 724.986L312.601 726.13C311.501 727.553 309.961 728.264 307.981 728.264C307.16 728.264 306.412 728.125 305.737 727.846C305.077 727.567 304.513 727.186 304.043 726.702C303.589 726.203 303.237 725.624 302.987 724.964C302.738 724.289 302.613 723.563 302.613 722.786C302.613 722.009 302.745 721.29 303.009 720.63C303.288 719.955 303.662 719.376 304.131 718.892C304.615 718.393 305.187 718.005 305.847 717.726C306.507 717.447 307.226 717.308 308.003 717.308C308.927 717.308 309.705 717.469 310.335 717.792C310.981 718.115 311.509 718.54 311.919 719.068C312.33 719.581 312.623 720.168 312.799 720.828C312.99 721.473 313.085 722.133 313.085 722.808V723.512H304.725ZM310.973 721.928C310.959 721.488 310.885 721.085 310.753 720.718C310.636 720.351 310.453 720.036 310.203 719.772C309.954 719.493 309.639 719.281 309.257 719.134C308.891 718.973 308.458 718.892 307.959 718.892C307.475 718.892 307.028 718.987 306.617 719.178C306.221 719.354 305.884 719.589 305.605 719.882C305.327 720.175 305.107 720.505 304.945 720.872C304.799 721.224 304.725 721.576 304.725 721.928H310.973ZM320.998 720.19C320.763 719.897 320.47 719.655 320.118 719.464C319.781 719.259 319.363 719.156 318.864 719.156C318.395 719.156 317.984 719.259 317.632 719.464C317.295 719.655 317.126 719.941 317.126 720.322C317.126 720.63 317.221 720.879 317.412 721.07C317.617 721.261 317.852 721.415 318.116 721.532C318.395 721.649 318.688 721.737 318.996 721.796C319.304 721.855 319.568 721.906 319.788 721.95C320.213 722.053 320.609 722.177 320.976 722.324C321.357 722.471 321.68 722.661 321.944 722.896C322.223 723.131 322.435 723.417 322.582 723.754C322.743 724.091 322.824 724.502 322.824 724.986C322.824 725.573 322.699 726.079 322.45 726.504C322.201 726.915 321.878 727.252 321.482 727.516C321.086 727.78 320.631 727.971 320.118 728.088C319.619 728.205 319.113 728.264 318.6 728.264C317.735 728.264 316.972 728.132 316.312 727.868C315.667 727.604 315.087 727.12 314.574 726.416L316.07 725.184C316.393 725.507 316.752 725.793 317.148 726.042C317.544 726.291 318.028 726.416 318.6 726.416C318.849 726.416 319.099 726.394 319.348 726.35C319.612 726.291 319.839 726.211 320.03 726.108C320.235 725.991 320.397 725.851 320.514 725.69C320.646 725.514 320.712 725.316 320.712 725.096C320.712 724.803 320.617 724.561 320.426 724.37C320.25 724.179 320.03 724.033 319.766 723.93C319.517 723.813 319.245 723.725 318.952 723.666C318.673 723.593 318.424 723.534 318.204 723.49C317.779 723.387 317.375 723.27 316.994 723.138C316.613 723.006 316.275 722.83 315.982 722.61C315.689 722.39 315.454 722.111 315.278 721.774C315.102 721.437 315.014 721.019 315.014 720.52C315.014 719.977 315.124 719.508 315.344 719.112C315.579 718.701 315.879 718.364 316.246 718.1C316.627 717.836 317.053 717.638 317.522 717.506C318.006 717.374 318.49 717.308 318.974 717.308C319.678 717.308 320.353 717.44 320.998 717.704C321.643 717.968 322.157 718.408 322.538 719.024L320.998 720.19ZM326.835 722.786C326.835 723.314 326.916 723.805 327.077 724.26C327.239 724.7 327.466 725.081 327.759 725.404C328.053 725.712 328.412 725.961 328.837 726.152C329.263 726.328 329.739 726.416 330.267 726.416C330.795 726.416 331.272 726.328 331.697 726.152C332.123 725.961 332.482 725.712 332.775 725.404C333.069 725.081 333.296 724.7 333.457 724.26C333.619 723.805 333.699 723.314 333.699 722.786C333.699 722.258 333.619 721.774 333.457 721.334C333.296 720.879 333.069 720.498 332.775 720.19C332.482 719.867 332.123 719.618 331.697 719.442C331.272 719.251 330.795 719.156 330.267 719.156C329.739 719.156 329.263 719.251 328.837 719.442C328.412 719.618 328.053 719.867 327.759 720.19C327.466 720.498 327.239 720.879 327.077 721.334C326.916 721.774 326.835 722.258 326.835 722.786ZM324.723 722.786C324.723 722.023 324.863 721.312 325.141 720.652C325.435 719.992 325.831 719.413 326.329 718.914C326.828 718.415 327.415 718.027 328.089 717.748C328.764 717.455 329.49 717.308 330.267 717.308C331.045 717.308 331.771 717.455 332.445 717.748C333.12 718.027 333.707 718.415 334.205 718.914C334.704 719.413 335.093 719.992 335.371 720.652C335.665 721.312 335.811 722.023 335.811 722.786C335.811 723.549 335.665 724.267 335.371 724.942C335.093 725.602 334.704 726.181 334.205 726.68C333.707 727.164 333.12 727.553 332.445 727.846C331.771 728.125 331.045 728.264 330.267 728.264C329.49 728.264 328.764 728.125 328.089 727.846C327.415 727.553 326.828 727.164 326.329 726.68C325.831 726.181 325.435 725.602 325.141 724.942C324.863 724.267 324.723 723.549 324.723 722.786ZM347.532 728H345.552V726.394H345.508C345.259 726.951 344.826 727.406 344.21 727.758C343.594 728.095 342.883 728.264 342.076 728.264C341.563 728.264 341.079 728.183 340.624 728.022C340.169 727.875 339.766 727.641 339.414 727.318C339.077 726.995 338.805 726.585 338.6 726.086C338.395 725.573 338.292 724.971 338.292 724.282V717.572H340.272V723.732C340.272 724.216 340.338 724.634 340.47 724.986C340.602 725.323 340.778 725.602 340.998 725.822C341.218 726.027 341.467 726.181 341.746 726.284C342.039 726.372 342.34 726.416 342.648 726.416C343.059 726.416 343.44 726.35 343.792 726.218C344.144 726.086 344.452 725.881 344.716 725.602C344.98 725.309 345.185 724.942 345.332 724.502C345.479 724.062 345.552 723.541 345.552 722.94V717.572H347.532V728ZM350.517 717.572H352.497V719.178H352.541C352.673 718.899 352.849 718.65 353.069 718.43C353.289 718.195 353.531 717.997 353.795 717.836C354.073 717.675 354.374 717.55 354.697 717.462C355.019 717.359 355.342 717.308 355.665 717.308C355.987 717.308 356.281 717.352 356.545 717.44L356.457 719.574C356.295 719.53 356.134 719.493 355.973 719.464C355.811 719.435 355.65 719.42 355.489 719.42C354.521 719.42 353.78 719.691 353.267 720.234C352.753 720.777 352.497 721.62 352.497 722.764V728H350.517V717.572ZM365.73 720.344C365.364 719.963 364.975 719.677 364.564 719.486C364.168 719.281 363.692 719.178 363.134 719.178C362.592 719.178 362.115 719.281 361.704 719.486C361.308 719.677 360.971 719.948 360.692 720.3C360.428 720.637 360.223 721.033 360.076 721.488C359.944 721.928 359.878 722.39 359.878 722.874C359.878 723.358 359.959 723.82 360.12 724.26C360.282 724.685 360.509 725.059 360.802 725.382C361.096 725.705 361.448 725.961 361.858 726.152C362.269 726.328 362.731 726.416 363.244 726.416C363.802 726.416 364.278 726.321 364.674 726.13C365.07 725.925 365.437 725.631 365.774 725.25L367.182 726.658C366.669 727.23 366.068 727.641 365.378 727.89C364.704 728.139 363.985 728.264 363.222 728.264C362.416 728.264 361.675 728.132 361 727.868C360.34 727.604 359.768 727.237 359.284 726.768C358.8 726.284 358.426 725.712 358.162 725.052C357.898 724.377 357.766 723.637 357.766 722.83C357.766 722.023 357.898 721.283 358.162 720.608C358.426 719.933 358.793 719.354 359.262 718.87C359.746 718.386 360.318 718.012 360.978 717.748C361.653 717.469 362.401 717.33 363.222 717.33C363.985 717.33 364.711 717.469 365.4 717.748C366.104 718.012 366.713 718.423 367.226 718.98L365.73 720.344ZM370.382 723.512C370.382 723.967 370.477 724.385 370.668 724.766C370.873 725.133 371.137 725.448 371.46 725.712C371.782 725.976 372.156 726.181 372.582 726.328C373.007 726.475 373.447 726.548 373.902 726.548C374.518 726.548 375.053 726.409 375.508 726.13C375.962 725.837 376.38 725.455 376.762 724.986L378.258 726.13C377.158 727.553 375.618 728.264 373.638 728.264C372.816 728.264 372.068 728.125 371.394 727.846C370.734 727.567 370.169 727.186 369.7 726.702C369.245 726.203 368.893 725.624 368.644 724.964C368.394 724.289 368.27 723.563 368.27 722.786C368.27 722.009 368.402 721.29 368.666 720.63C368.944 719.955 369.318 719.376 369.788 718.892C370.272 718.393 370.844 718.005 371.504 717.726C372.164 717.447 372.882 717.308 373.66 717.308C374.584 717.308 375.361 717.469 375.992 717.792C376.637 718.115 377.165 718.54 377.576 719.068C377.986 719.581 378.28 720.168 378.456 720.828C378.646 721.473 378.742 722.133 378.742 722.808V723.512H370.382ZM376.63 721.928C376.615 721.488 376.542 721.085 376.41 720.718C376.292 720.351 376.109 720.036 375.86 719.772C375.61 719.493 375.295 719.281 374.914 719.134C374.547 718.973 374.114 718.892 373.616 718.892C373.132 718.892 372.684 718.987 372.274 719.178C371.878 719.354 371.54 719.589 371.262 719.882C370.983 720.175 370.763 720.505 370.602 720.872C370.455 721.224 370.382 721.576 370.382 721.928H376.63ZM386.654 720.19C386.42 719.897 386.126 719.655 385.774 719.464C385.437 719.259 385.019 719.156 384.52 719.156C384.051 719.156 383.64 719.259 383.288 719.464C382.951 719.655 382.782 719.941 382.782 720.322C382.782 720.63 382.878 720.879 383.068 721.07C383.274 721.261 383.508 721.415 383.772 721.532C384.051 721.649 384.344 721.737 384.652 721.796C384.96 721.855 385.224 721.906 385.444 721.95C385.87 722.053 386.266 722.177 386.632 722.324C387.014 722.471 387.336 722.661 387.6 722.896C387.879 723.131 388.092 723.417 388.238 723.754C388.4 724.091 388.48 724.502 388.48 724.986C388.48 725.573 388.356 726.079 388.106 726.504C387.857 726.915 387.534 727.252 387.138 727.516C386.742 727.78 386.288 727.971 385.774 728.088C385.276 728.205 384.77 728.264 384.256 728.264C383.391 728.264 382.628 728.132 381.968 727.868C381.323 727.604 380.744 727.12 380.23 726.416L381.726 725.184C382.049 725.507 382.408 725.793 382.804 726.042C383.2 726.291 383.684 726.416 384.256 726.416C384.506 726.416 384.755 726.394 385.004 726.35C385.268 726.291 385.496 726.211 385.686 726.108C385.892 725.991 386.053 725.851 386.17 725.69C386.302 725.514 386.368 725.316 386.368 725.096C386.368 724.803 386.273 724.561 386.082 724.37C385.906 724.179 385.686 724.033 385.422 723.93C385.173 723.813 384.902 723.725 384.608 723.666C384.33 723.593 384.08 723.534 383.86 723.49C383.435 723.387 383.032 723.27 382.65 723.138C382.269 723.006 381.932 722.83 381.638 722.61C381.345 722.39 381.11 722.111 380.934 721.774C380.758 721.437 380.67 721.019 380.67 720.52C380.67 719.977 380.78 719.508 381 719.112C381.235 718.701 381.536 718.364 381.902 718.1C382.284 717.836 382.709 717.638 383.178 717.506C383.662 717.374 384.146 717.308 384.63 717.308C385.334 717.308 386.009 717.44 386.654 717.704C387.3 717.968 387.813 718.408 388.194 719.024L386.654 720.19ZM402.597 719.288H399.759V724.018C399.759 724.311 399.766 724.605 399.781 724.898C399.795 725.177 399.847 725.433 399.935 725.668C400.037 725.888 400.184 726.071 400.375 726.218C400.58 726.35 400.873 726.416 401.255 726.416C401.489 726.416 401.731 726.394 401.981 726.35C402.23 726.306 402.457 726.225 402.663 726.108V727.912C402.428 728.044 402.12 728.132 401.739 728.176C401.372 728.235 401.086 728.264 400.881 728.264C400.118 728.264 399.524 728.161 399.099 727.956C398.688 727.736 398.38 727.457 398.175 727.12C397.984 726.783 397.867 726.409 397.823 725.998C397.793 725.573 397.779 725.147 397.779 724.722V719.288H395.491V717.572H397.779V714.646H399.759V717.572H402.597V719.288ZM406.757 722.786C406.757 723.314 406.838 723.805 406.999 724.26C407.161 724.7 407.388 725.081 407.681 725.404C407.975 725.712 408.334 725.961 408.759 726.152C409.185 726.328 409.661 726.416 410.189 726.416C410.717 726.416 411.194 726.328 411.619 726.152C412.045 725.961 412.404 725.712 412.697 725.404C412.991 725.081 413.218 724.7 413.379 724.26C413.541 723.805 413.621 723.314 413.621 722.786C413.621 722.258 413.541 721.774 413.379 721.334C413.218 720.879 412.991 720.498 412.697 720.19C412.404 719.867 412.045 719.618 411.619 719.442C411.194 719.251 410.717 719.156 410.189 719.156C409.661 719.156 409.185 719.251 408.759 719.442C408.334 719.618 407.975 719.867 407.681 720.19C407.388 720.498 407.161 720.879 406.999 721.334C406.838 721.774 406.757 722.258 406.757 722.786ZM404.645 722.786C404.645 722.023 404.785 721.312 405.063 720.652C405.357 719.992 405.753 719.413 406.251 718.914C406.75 718.415 407.337 718.027 408.011 717.748C408.686 717.455 409.412 717.308 410.189 717.308C410.967 717.308 411.693 717.455 412.367 717.748C413.042 718.027 413.629 718.415 414.127 718.914C414.626 719.413 415.015 719.992 415.293 720.652C415.587 721.312 415.733 722.023 415.733 722.786C415.733 723.549 415.587 724.267 415.293 724.942C415.015 725.602 414.626 726.181 414.127 726.68C413.629 727.164 413.042 727.553 412.367 727.846C411.693 728.125 410.967 728.264 410.189 728.264C409.412 728.264 408.686 728.125 408.011 727.846C407.337 727.553 406.75 727.164 406.251 726.68C405.753 726.181 405.357 725.602 405.063 724.942C404.785 724.267 404.645 723.549 404.645 722.786ZM424.337 717.572H426.317V719.178H426.361C426.493 718.899 426.669 718.65 426.889 718.43C427.109 718.195 427.351 717.997 427.615 717.836C427.893 717.675 428.194 717.55 428.517 717.462C428.839 717.359 429.162 717.308 429.485 717.308C429.807 717.308 430.101 717.352 430.365 717.44L430.277 719.574C430.115 719.53 429.954 719.493 429.793 719.464C429.631 719.435 429.47 719.42 429.309 719.42C428.341 719.42 427.6 719.691 427.087 720.234C426.573 720.777 426.317 721.62 426.317 722.764V728H424.337V717.572ZM432.523 718.848C433.081 718.335 433.726 717.953 434.459 717.704C435.193 717.44 435.926 717.308 436.659 717.308C437.422 717.308 438.075 717.403 438.617 717.594C439.175 717.785 439.629 718.041 439.981 718.364C440.333 718.687 440.59 719.061 440.751 719.486C440.927 719.897 441.015 720.329 441.015 720.784V726.108C441.015 726.475 441.023 726.812 441.037 727.12C441.052 727.428 441.074 727.721 441.103 728H439.343C439.299 727.472 439.277 726.944 439.277 726.416H439.233C438.793 727.091 438.273 727.567 437.671 727.846C437.07 728.125 436.373 728.264 435.581 728.264C435.097 728.264 434.635 728.198 434.195 728.066C433.755 727.934 433.367 727.736 433.029 727.472C432.707 727.208 432.45 726.885 432.259 726.504C432.069 726.108 431.973 725.653 431.973 725.14C431.973 724.465 432.12 723.901 432.413 723.446C432.721 722.991 433.132 722.625 433.645 722.346C434.173 722.053 434.782 721.847 435.471 721.73C436.175 721.598 436.923 721.532 437.715 721.532H439.167V721.092C439.167 720.828 439.116 720.564 439.013 720.3C438.911 720.036 438.757 719.801 438.551 719.596C438.346 719.376 438.089 719.207 437.781 719.09C437.473 718.958 437.107 718.892 436.681 718.892C436.3 718.892 435.963 718.929 435.669 719.002C435.391 719.075 435.134 719.171 434.899 719.288C434.665 719.391 434.452 719.515 434.261 719.662C434.071 719.809 433.887 719.948 433.711 720.08L432.523 718.848ZM438.111 722.984C437.642 722.984 437.158 723.013 436.659 723.072C436.175 723.116 435.728 723.211 435.317 723.358C434.921 723.505 434.591 723.71 434.327 723.974C434.078 724.238 433.953 724.575 433.953 724.986C433.953 725.587 434.151 726.02 434.547 726.284C434.958 726.548 435.508 726.68 436.197 726.68C436.74 726.68 437.202 726.592 437.583 726.416C437.965 726.225 438.273 725.983 438.507 725.69C438.742 725.397 438.911 725.074 439.013 724.722C439.116 724.355 439.167 723.996 439.167 723.644V722.984H438.111ZM444.042 717.572H446.022V728H444.042V717.572ZM443.58 713.832C443.58 713.436 443.719 713.099 443.998 712.82C444.291 712.527 444.636 712.38 445.032 712.38C445.428 712.38 445.765 712.527 446.044 712.82C446.337 713.099 446.484 713.436 446.484 713.832C446.484 714.228 446.337 714.573 446.044 714.866C445.765 715.145 445.428 715.284 445.032 715.284C444.636 715.284 444.291 715.145 443.998 714.866C443.719 714.573 443.58 714.228 443.58 713.832ZM454.717 720.19C454.482 719.897 454.189 719.655 453.837 719.464C453.499 719.259 453.081 719.156 452.583 719.156C452.113 719.156 451.703 719.259 451.351 719.464C451.013 719.655 450.845 719.941 450.845 720.322C450.845 720.63 450.94 720.879 451.131 721.07C451.336 721.261 451.571 721.415 451.835 721.532C452.113 721.649 452.407 721.737 452.715 721.796C453.023 721.855 453.287 721.906 453.507 721.95C453.932 722.053 454.328 722.177 454.695 722.324C455.076 722.471 455.399 722.661 455.663 722.896C455.941 723.131 456.154 723.417 456.301 723.754C456.462 724.091 456.543 724.502 456.543 724.986C456.543 725.573 456.418 726.079 456.169 726.504C455.919 726.915 455.597 727.252 455.201 727.516C454.805 727.78 454.35 727.971 453.837 728.088C453.338 728.205 452.832 728.264 452.319 728.264C451.453 728.264 450.691 728.132 450.031 727.868C449.385 727.604 448.806 727.12 448.293 726.416L449.789 725.184C450.111 725.507 450.471 725.793 450.867 726.042C451.263 726.291 451.747 726.416 452.319 726.416C452.568 726.416 452.817 726.394 453.067 726.35C453.331 726.291 453.558 726.211 453.749 726.108C453.954 725.991 454.115 725.851 454.233 725.69C454.365 725.514 454.431 725.316 454.431 725.096C454.431 724.803 454.335 724.561 454.145 724.37C453.969 724.179 453.749 724.033 453.485 723.93C453.235 723.813 452.964 723.725 452.671 723.666C452.392 723.593 452.143 723.534 451.923 723.49C451.497 723.387 451.094 723.27 450.713 723.138C450.331 723.006 449.994 722.83 449.701 722.61C449.407 722.39 449.173 722.111 448.997 721.774C448.821 721.437 448.733 721.019 448.733 720.52C448.733 719.977 448.843 719.508 449.063 719.112C449.297 718.701 449.598 718.364 449.965 718.1C450.346 717.836 450.771 717.638 451.241 717.506C451.725 717.374 452.209 717.308 452.693 717.308C453.397 717.308 454.071 717.44 454.717 717.704C455.362 717.968 455.875 718.408 456.257 719.024L454.717 720.19ZM460.444 723.512C460.444 723.967 460.539 724.385 460.73 724.766C460.935 725.133 461.199 725.448 461.522 725.712C461.845 725.976 462.219 726.181 462.644 726.328C463.069 726.475 463.509 726.548 463.964 726.548C464.58 726.548 465.115 726.409 465.57 726.13C466.025 725.837 466.443 725.455 466.824 724.986L468.32 726.13C467.22 727.553 465.68 728.264 463.7 728.264C462.879 728.264 462.131 728.125 461.456 727.846C460.796 727.567 460.231 727.186 459.762 726.702C459.307 726.203 458.955 725.624 458.706 724.964C458.457 724.289 458.332 723.563 458.332 722.786C458.332 722.009 458.464 721.29 458.728 720.63C459.007 719.955 459.381 719.376 459.85 718.892C460.334 718.393 460.906 718.005 461.566 717.726C462.226 717.447 462.945 717.308 463.722 717.308C464.646 717.308 465.423 717.469 466.054 717.792C466.699 718.115 467.227 718.54 467.638 719.068C468.049 719.581 468.342 720.168 468.518 720.828C468.709 721.473 468.804 722.133 468.804 722.808V723.512H460.444ZM466.692 721.928C466.677 721.488 466.604 721.085 466.472 720.718C466.355 720.351 466.171 720.036 465.922 719.772C465.673 719.493 465.357 719.281 464.976 719.134C464.609 718.973 464.177 718.892 463.678 718.892C463.194 718.892 462.747 718.987 462.336 719.178C461.94 719.354 461.603 719.589 461.324 719.882C461.045 720.175 460.825 720.505 460.664 720.872C460.517 721.224 460.444 721.576 460.444 721.928H466.692ZM478.066 719.288H475.822V717.572H478.066V715.24C478.066 713.847 478.33 712.813 478.858 712.138C479.4 711.449 480.324 711.104 481.63 711.104C481.85 711.104 482.077 711.111 482.312 711.126C482.561 711.141 482.825 711.185 483.104 711.258L482.884 713.018C482.693 712.945 482.51 712.893 482.334 712.864C482.158 712.835 481.967 712.82 481.762 712.82C481.395 712.82 481.102 712.879 480.882 712.996C480.662 713.099 480.486 713.253 480.354 713.458C480.236 713.663 480.156 713.913 480.112 714.206C480.082 714.485 480.068 714.807 480.068 715.174V717.572H482.422V719.288H480.046V728H478.066V719.288ZM486.228 722.786C486.228 723.314 486.309 723.805 486.47 724.26C486.631 724.7 486.859 725.081 487.152 725.404C487.445 725.712 487.805 725.961 488.23 726.152C488.655 726.328 489.132 726.416 489.66 726.416C490.188 726.416 490.665 726.328 491.09 726.152C491.515 725.961 491.875 725.712 492.168 725.404C492.461 725.081 492.689 724.7 492.85 724.26C493.011 723.805 493.092 723.314 493.092 722.786C493.092 722.258 493.011 721.774 492.85 721.334C492.689 720.879 492.461 720.498 492.168 720.19C491.875 719.867 491.515 719.618 491.09 719.442C490.665 719.251 490.188 719.156 489.66 719.156C489.132 719.156 488.655 719.251 488.23 719.442C487.805 719.618 487.445 719.867 487.152 720.19C486.859 720.498 486.631 720.879 486.47 721.334C486.309 721.774 486.228 722.258 486.228 722.786ZM484.116 722.786C484.116 722.023 484.255 721.312 484.534 720.652C484.827 719.992 485.223 719.413 485.722 718.914C486.221 718.415 486.807 718.027 487.482 717.748C488.157 717.455 488.883 717.308 489.66 717.308C490.437 717.308 491.163 717.455 491.838 717.748C492.513 718.027 493.099 718.415 493.598 718.914C494.097 719.413 494.485 719.992 494.764 720.652C495.057 721.312 495.204 722.023 495.204 722.786C495.204 723.549 495.057 724.267 494.764 724.942C494.485 725.602 494.097 726.181 493.598 726.68C493.099 727.164 492.513 727.553 491.838 727.846C491.163 728.125 490.437 728.264 489.66 728.264C488.883 728.264 488.157 728.125 487.482 727.846C486.807 727.553 486.221 727.164 485.722 726.68C485.223 726.181 484.827 725.602 484.534 724.942C484.255 724.267 484.116 723.549 484.116 722.786ZM497.684 717.572H499.664V719.178H499.708C499.84 718.899 500.016 718.65 500.236 718.43C500.456 718.195 500.698 717.997 500.962 717.836C501.241 717.675 501.542 717.55 501.864 717.462C502.187 717.359 502.51 717.308 502.832 717.308C503.155 717.308 503.448 717.352 503.712 717.44L503.624 719.574C503.463 719.53 503.302 719.493 503.14 719.464C502.979 719.435 502.818 719.42 502.656 719.42C501.688 719.42 500.948 719.691 500.434 720.234C499.921 720.777 499.664 721.62 499.664 722.764V728H497.684V717.572ZM512.72 719.288H510.476V717.572H512.72V715.24C512.72 713.847 512.984 712.813 513.512 712.138C514.055 711.449 514.979 711.104 516.284 711.104C516.504 711.104 516.731 711.111 516.966 711.126C517.215 711.141 517.479 711.185 517.758 711.258L517.538 713.018C517.347 712.945 517.164 712.893 516.988 712.864C516.812 712.835 516.621 712.82 516.416 712.82C516.049 712.82 515.756 712.879 515.536 712.996C515.316 713.099 515.14 713.253 515.008 713.458C514.891 713.663 514.81 713.913 514.766 714.206C514.737 714.485 514.722 714.807 514.722 715.174V717.572H517.076V719.288H514.7V728H512.72V719.288ZM519.43 717.572H521.41V728H519.43V717.572ZM518.968 713.832C518.968 713.436 519.108 713.099 519.386 712.82C519.68 712.527 520.024 712.38 520.42 712.38C520.816 712.38 521.154 712.527 521.432 712.82C521.726 713.099 521.872 713.436 521.872 713.832C521.872 714.228 521.726 714.573 521.432 714.866C521.154 715.145 520.816 715.284 520.42 715.284C520.024 715.284 519.68 715.145 519.386 714.866C519.108 714.573 518.968 714.228 518.968 713.832ZM524.561 717.572H526.541V719.178H526.585C526.835 718.621 527.267 718.173 527.883 717.836C528.499 717.484 529.211 717.308 530.017 717.308C530.516 717.308 530.993 717.389 531.447 717.55C531.917 717.697 532.32 717.931 532.657 718.254C533.009 718.577 533.288 718.995 533.493 719.508C533.699 720.007 533.801 720.601 533.801 721.29V728H531.821V721.84C531.821 721.356 531.755 720.945 531.623 720.608C531.491 720.256 531.315 719.977 531.095 719.772C530.875 719.552 530.619 719.398 530.325 719.31C530.047 719.207 529.753 719.156 529.445 719.156C529.035 719.156 528.653 719.222 528.301 719.354C527.949 719.486 527.641 719.699 527.377 719.992C527.113 720.271 526.908 720.63 526.761 721.07C526.615 721.51 526.541 722.031 526.541 722.632V728H524.561V717.572ZM542.374 719.288H539.536V724.018C539.536 724.311 539.543 724.605 539.558 724.898C539.573 725.177 539.624 725.433 539.712 725.668C539.815 725.888 539.961 726.071 540.152 726.218C540.357 726.35 540.651 726.416 541.032 726.416C541.267 726.416 541.509 726.394 541.758 726.35C542.007 726.306 542.235 726.225 542.44 726.108V727.912C542.205 728.044 541.897 728.132 541.516 728.176C541.149 728.235 540.863 728.264 540.658 728.264C539.895 728.264 539.301 728.161 538.876 727.956C538.465 727.736 538.157 727.457 537.952 727.12C537.761 726.783 537.644 726.409 537.6 725.998C537.571 725.573 537.556 725.147 537.556 724.722V719.288H535.268V717.572H537.556V714.646H539.536V717.572H542.374V719.288ZM546.425 723.512C546.425 723.967 546.52 724.385 546.711 724.766C546.916 725.133 547.18 725.448 547.503 725.712C547.825 725.976 548.199 726.181 548.625 726.328C549.05 726.475 549.49 726.548 549.945 726.548C550.561 726.548 551.096 726.409 551.551 726.13C552.005 725.837 552.423 725.455 552.805 724.986L554.301 726.13C553.201 727.553 551.661 728.264 549.681 728.264C548.859 728.264 548.111 728.125 547.437 727.846C546.777 727.567 546.212 727.186 545.743 726.702C545.288 726.203 544.936 725.624 544.687 724.964C544.437 724.289 544.313 723.563 544.313 722.786C544.313 722.009 544.445 721.29 544.709 720.63C544.987 719.955 545.361 719.376 545.831 718.892C546.315 718.393 546.887 718.005 547.547 717.726C548.207 717.447 548.925 717.308 549.703 717.308C550.627 717.308 551.404 717.469 552.035 717.792C552.68 718.115 553.208 718.54 553.619 719.068C554.029 719.581 554.323 720.168 554.499 720.828C554.689 721.473 554.785 722.133 554.785 722.808V723.512H546.425ZM552.673 721.928C552.658 721.488 552.585 721.085 552.453 720.718C552.335 720.351 552.152 720.036 551.903 719.772C551.653 719.493 551.338 719.281 550.957 719.134C550.59 718.973 550.157 718.892 549.659 718.892C549.175 718.892 548.727 718.987 548.317 719.178C547.921 719.354 547.583 719.589 547.305 719.882C547.026 720.175 546.806 720.505 546.645 720.872C546.498 721.224 546.425 721.576 546.425 721.928H552.673ZM564.611 720.344C564.245 719.963 563.856 719.677 563.445 719.486C563.049 719.281 562.573 719.178 562.015 719.178C561.473 719.178 560.996 719.281 560.585 719.486C560.189 719.677 559.852 719.948 559.573 720.3C559.309 720.637 559.104 721.033 558.957 721.488C558.825 721.928 558.759 722.39 558.759 722.874C558.759 723.358 558.84 723.82 559.001 724.26C559.163 724.685 559.39 725.059 559.683 725.382C559.977 725.705 560.329 725.961 560.739 726.152C561.15 726.328 561.612 726.416 562.125 726.416C562.683 726.416 563.159 726.321 563.555 726.13C563.951 725.925 564.318 725.631 564.655 725.25L566.063 726.658C565.55 727.23 564.949 727.641 564.259 727.89C563.585 728.139 562.866 728.264 562.103 728.264C561.297 728.264 560.556 728.132 559.881 727.868C559.221 727.604 558.649 727.237 558.165 726.768C557.681 726.284 557.307 725.712 557.043 725.052C556.779 724.377 556.647 723.637 556.647 722.83C556.647 722.023 556.779 721.283 557.043 720.608C557.307 719.933 557.674 719.354 558.143 718.87C558.627 718.386 559.199 718.012 559.859 717.748C560.534 717.469 561.282 717.33 562.103 717.33C562.866 717.33 563.592 717.469 564.281 717.748C564.985 718.012 565.594 718.423 566.107 718.98L564.611 720.344ZM567.767 711.368H569.747V719.178H569.791C570.04 718.621 570.473 718.173 571.089 717.836C571.705 717.484 572.416 717.308 573.223 717.308C573.721 717.308 574.198 717.389 574.653 717.55C575.122 717.697 575.525 717.931 575.863 718.254C576.215 718.577 576.493 718.995 576.699 719.508C576.904 720.007 577.007 720.601 577.007 721.29V728H575.027V721.84C575.027 721.356 574.961 720.945 574.829 720.608C574.697 720.256 574.521 719.977 574.301 719.772C574.081 719.552 573.824 719.398 573.531 719.31C573.252 719.207 572.959 719.156 572.651 719.156C572.24 719.156 571.859 719.222 571.507 719.354C571.155 719.486 570.847 719.699 570.583 719.992C570.319 720.271 570.113 720.63 569.967 721.07C569.82 721.51 569.747 722.031 569.747 722.632V728H567.767V711.368ZM591.658 720.19C591.423 719.897 591.13 719.655 590.778 719.464C590.441 719.259 590.023 719.156 589.524 719.156C589.055 719.156 588.644 719.259 588.292 719.464C587.955 719.655 587.786 719.941 587.786 720.322C587.786 720.63 587.881 720.879 588.072 721.07C588.277 721.261 588.512 721.415 588.776 721.532C589.055 721.649 589.348 721.737 589.656 721.796C589.964 721.855 590.228 721.906 590.448 721.95C590.873 722.053 591.269 722.177 591.636 722.324C592.017 722.471 592.34 722.661 592.604 722.896C592.883 723.131 593.095 723.417 593.242 723.754C593.403 724.091 593.484 724.502 593.484 724.986C593.484 725.573 593.359 726.079 593.11 726.504C592.861 726.915 592.538 727.252 592.142 727.516C591.746 727.78 591.291 727.971 590.778 728.088C590.279 728.205 589.773 728.264 589.26 728.264C588.395 728.264 587.632 728.132 586.972 727.868C586.327 727.604 585.747 727.12 585.234 726.416L586.73 725.184C587.053 725.507 587.412 725.793 587.808 726.042C588.204 726.291 588.688 726.416 589.26 726.416C589.509 726.416 589.759 726.394 590.008 726.35C590.272 726.291 590.499 726.211 590.69 726.108C590.895 725.991 591.057 725.851 591.174 725.69C591.306 725.514 591.372 725.316 591.372 725.096C591.372 724.803 591.277 724.561 591.086 724.37C590.91 724.179 590.69 724.033 590.426 723.93C590.177 723.813 589.905 723.725 589.612 723.666C589.333 723.593 589.084 723.534 588.864 723.49C588.439 723.387 588.035 723.27 587.654 723.138C587.273 723.006 586.935 722.83 586.642 722.61C586.349 722.39 586.114 722.111 585.938 721.774C585.762 721.437 585.674 721.019 585.674 720.52C585.674 719.977 585.784 719.508 586.004 719.112C586.239 718.701 586.539 718.364 586.906 718.1C587.287 717.836 587.713 717.638 588.182 717.506C588.666 717.374 589.15 717.308 589.634 717.308C590.338 717.308 591.013 717.44 591.658 717.704C592.303 717.968 592.817 718.408 593.198 719.024L591.658 720.19ZM601.478 719.288H598.64V724.018C598.64 724.311 598.647 724.605 598.662 724.898C598.676 725.177 598.728 725.433 598.816 725.668C598.918 725.888 599.065 726.071 599.256 726.218C599.461 726.35 599.754 726.416 600.136 726.416C600.37 726.416 600.612 726.394 600.862 726.35C601.111 726.306 601.338 726.225 601.544 726.108V727.912C601.309 728.044 601.001 728.132 600.62 728.176C600.253 728.235 599.967 728.264 599.762 728.264C598.999 728.264 598.405 728.161 597.98 727.956C597.569 727.736 597.261 727.457 597.056 727.12C596.865 726.783 596.748 726.409 596.704 725.998C596.674 725.573 596.66 725.147 596.66 724.722V719.288H594.372V717.572H596.66V714.646H598.64V717.572H601.478V719.288ZM604.076 718.848C604.633 718.335 605.279 717.953 606.012 717.704C606.745 717.44 607.479 717.308 608.212 717.308C608.975 717.308 609.627 717.403 610.17 717.594C610.727 717.785 611.182 718.041 611.534 718.364C611.886 718.687 612.143 719.061 612.304 719.486C612.48 719.897 612.568 720.329 612.568 720.784V726.108C612.568 726.475 612.575 726.812 612.59 727.12C612.605 727.428 612.627 727.721 612.656 728H610.896C610.852 727.472 610.83 726.944 610.83 726.416H610.786C610.346 727.091 609.825 727.567 609.224 727.846C608.623 728.125 607.926 728.264 607.134 728.264C606.65 728.264 606.188 728.198 605.748 728.066C605.308 727.934 604.919 727.736 604.582 727.472C604.259 727.208 604.003 726.885 603.812 726.504C603.621 726.108 603.526 725.653 603.526 725.14C603.526 724.465 603.673 723.901 603.966 723.446C604.274 722.991 604.685 722.625 605.198 722.346C605.726 722.053 606.335 721.847 607.024 721.73C607.728 721.598 608.476 721.532 609.268 721.532H610.72V721.092C610.72 720.828 610.669 720.564 610.566 720.3C610.463 720.036 610.309 719.801 610.104 719.596C609.899 719.376 609.642 719.207 609.334 719.09C609.026 718.958 608.659 718.892 608.234 718.892C607.853 718.892 607.515 718.929 607.222 719.002C606.943 719.075 606.687 719.171 606.452 719.288C606.217 719.391 606.005 719.515 605.814 719.662C605.623 719.809 605.44 719.948 605.264 720.08L604.076 718.848ZM609.664 722.984C609.195 722.984 608.711 723.013 608.212 723.072C607.728 723.116 607.281 723.211 606.87 723.358C606.474 723.505 606.144 723.71 605.88 723.974C605.631 724.238 605.506 724.575 605.506 724.986C605.506 725.587 605.704 726.02 606.1 726.284C606.511 726.548 607.061 726.68 607.75 726.68C608.293 726.68 608.755 726.592 609.136 726.416C609.517 726.225 609.825 725.983 610.06 725.69C610.295 725.397 610.463 725.074 610.566 724.722C610.669 724.355 610.72 723.996 610.72 723.644V722.984H609.664ZM615.44 717.572H617.42V719.178H617.464C617.596 718.899 617.772 718.65 617.992 718.43C618.212 718.195 618.454 717.997 618.718 717.836C618.997 717.675 619.298 717.55 619.62 717.462C619.943 717.359 620.266 717.308 620.588 717.308C620.911 717.308 621.204 717.352 621.468 717.44L621.38 719.574C621.219 719.53 621.058 719.493 620.896 719.464C620.735 719.435 620.574 719.42 620.412 719.42C619.444 719.42 618.704 719.691 618.19 720.234C617.677 720.777 617.42 721.62 617.42 722.764V728H615.44V717.572ZM629.171 719.288H626.333V724.018C626.333 724.311 626.34 724.605 626.355 724.898C626.37 725.177 626.421 725.433 626.509 725.668C626.612 725.888 626.758 726.071 626.949 726.218C627.154 726.35 627.448 726.416 627.829 726.416C628.064 726.416 628.306 726.394 628.555 726.35C628.804 726.306 629.032 726.225 629.237 726.108V727.912C629.002 728.044 628.694 728.132 628.313 728.176C627.946 728.235 627.66 728.264 627.455 728.264C626.692 728.264 626.098 728.161 625.673 727.956C625.262 727.736 624.954 727.457 624.749 727.12C624.558 726.783 624.441 726.409 624.397 725.998C624.368 725.573 624.353 725.147 624.353 724.722V719.288H622.065V717.572H624.353V714.646H626.333V717.572H629.171V719.288ZM640.965 728H638.985V726.394H638.941C638.692 726.951 638.259 727.406 637.643 727.758C637.027 728.095 636.316 728.264 635.509 728.264C634.996 728.264 634.512 728.183 634.057 728.022C633.603 727.875 633.199 727.641 632.847 727.318C632.51 726.995 632.239 726.585 632.033 726.086C631.828 725.573 631.725 724.971 631.725 724.282V717.572H633.705V723.732C633.705 724.216 633.771 724.634 633.903 724.986C634.035 725.323 634.211 725.602 634.431 725.822C634.651 726.027 634.901 726.181 635.179 726.284C635.473 726.372 635.773 726.416 636.081 726.416C636.492 726.416 636.873 726.35 637.225 726.218C637.577 726.086 637.885 725.881 638.149 725.602C638.413 725.309 638.619 724.942 638.765 724.502C638.912 724.062 638.985 723.541 638.985 722.94V717.572H640.965V728ZM643.95 717.572H645.93V719.068H645.974C646.355 718.511 646.876 718.078 647.536 717.77C648.211 717.462 648.9 717.308 649.604 717.308C650.411 717.308 651.137 717.447 651.782 717.726C652.442 718.005 652.999 718.393 653.454 718.892C653.923 719.391 654.283 719.977 654.532 720.652C654.781 721.312 654.906 722.023 654.906 722.786C654.906 723.563 654.781 724.289 654.532 724.964C654.283 725.624 653.923 726.203 653.454 726.702C652.999 727.186 652.442 727.567 651.782 727.846C651.137 728.125 650.411 728.264 649.604 728.264C648.856 728.264 648.152 728.11 647.492 727.802C646.832 727.479 646.326 727.047 645.974 726.504H645.93V734.204H643.95V717.572ZM649.362 719.156C648.834 719.156 648.357 719.251 647.932 719.442C647.507 719.618 647.147 719.867 646.854 720.19C646.561 720.498 646.333 720.879 646.172 721.334C646.011 721.774 645.93 722.258 645.93 722.786C645.93 723.314 646.011 723.805 646.172 724.26C646.333 724.7 646.561 725.081 646.854 725.404C647.147 725.712 647.507 725.961 647.932 726.152C648.357 726.328 648.834 726.416 649.362 726.416C649.89 726.416 650.367 726.328 650.792 726.152C651.217 725.961 651.577 725.712 651.87 725.404C652.163 725.081 652.391 724.7 652.552 724.26C652.713 723.805 652.794 723.314 652.794 722.786C652.794 722.258 652.713 721.774 652.552 721.334C652.391 720.879 652.163 720.498 651.87 720.19C651.577 719.867 651.217 719.618 650.792 719.442C650.367 719.251 649.89 719.156 649.362 719.156ZM660.523 723.644V722.302C660.523 721.906 660.553 721.576 660.611 721.312C660.67 721.048 660.758 720.813 660.875 720.608C660.993 720.388 661.147 720.183 661.337 719.992C661.543 719.787 661.792 719.545 662.085 719.266C662.32 719.046 662.555 718.826 662.789 718.606C663.024 718.371 663.237 718.137 663.427 717.902C663.618 717.653 663.772 717.396 663.889 717.132C664.021 716.853 664.087 716.545 664.087 716.208C664.087 715.871 664.021 715.563 663.889 715.284C663.772 714.991 663.611 714.741 663.405 714.536C663.2 714.331 662.951 714.169 662.657 714.052C662.379 713.935 662.078 713.876 661.755 713.876C661.037 713.876 660.45 714.103 659.995 714.558C659.555 715.013 659.291 715.607 659.203 716.34L656.959 716.12C657.15 714.844 657.678 713.847 658.543 713.128C659.423 712.395 660.509 712.028 661.799 712.028C662.415 712.028 662.987 712.123 663.515 712.314C664.058 712.49 664.527 712.754 664.923 713.106C665.319 713.443 665.627 713.869 665.847 714.382C666.082 714.881 666.199 715.453 666.199 716.098C666.199 716.655 666.119 717.147 665.957 717.572C665.796 717.983 665.569 718.371 665.275 718.738L663.955 720.102L663.735 720.3C663.501 720.52 663.31 720.711 663.163 720.872C663.031 721.019 662.921 721.18 662.833 721.356C662.76 721.517 662.709 721.701 662.679 721.906C662.65 722.111 662.635 722.368 662.635 722.676V723.644H660.523ZM660.105 726.68C660.105 726.284 660.245 725.947 660.523 725.668C660.817 725.375 661.161 725.228 661.557 725.228C661.953 725.228 662.291 725.375 662.569 725.668C662.863 725.947 663.009 726.284 663.009 726.68C663.009 727.076 662.863 727.421 662.569 727.714C662.291 727.993 661.953 728.132 661.557 728.132C661.161 728.132 660.817 727.993 660.523 727.714C660.245 727.421 660.105 727.076 660.105 726.68Z" fill="white"/>
<g opacity="0.5" clip-path="url(#clip0_5_1850)">
<path d="M972.05 708.123L977.643 713.83C979.244 715.382 980.5 716.098 982.107 716.495C982.971 716.709 983.662 717.478 983.661 718.447C983.66 719.557 982.841 720.521 981.688 720.522C980.534 720.523 955.033 720.543 955.033 720.543C955.01 720.543 954.991 720.562 954.991 720.585L954.989 722.413C954.989 722.436 955.008 722.455 955.031 722.455L981.686 722.433C984.032 722.431 984.306 725.919 982.088 726.457C980.428 726.859 979.118 727.592 977.414 729.297L972.025 734.845C972.009 734.861 972.009 734.887 972.024 734.903L973.234 736.148C973.25 736.165 973.278 736.165 973.294 736.148L987.971 721.529C987.986 721.513 987.986 721.487 987.971 721.471L973.319 706.819C973.303 706.802 973.276 706.802 973.259 706.819L972.049 708.064C972.034 708.081 972.034 708.107 972.05 708.123Z" fill="url(#paint2_linear_5_1850)"/>
</g>
<defs>
<radialGradient id="paint0_radial_5_1850" cx="0" cy="0" r="1" gradientUnits="userSpaceOnUse" gradientTransform="translate(595.166 435.716) rotate(90) scale(440.992 579.004)">
<stop stop-color="#2A7D82" stop-opacity="0"/>
<stop offset="1" stop-color="#2A7D82"/>
</radialGradient>
<radialGradient id="paint1_radial_5_1850" cx="0" cy="0" r="1" gradientUnits="userSpaceOnUse" gradientTransform="translate(613.886 721.818) rotate(90) scale(52.5659 465.691)">
<stop stop-color="#2A7D82" stop-opacity="0"/>
<stop offset="1" stop-color="#2A7D82"/>
</radialGradient>
<linearGradient id="paint2_linear_5_1850" x1="962.544" y1="713.015" x2="977.194" y2="727.665" gradientUnits="userSpaceOnUse">
<stop stop-color="#FFDDBD"/>
<stop offset="1" stop-color="#E59E5F"/>
</linearGradient>
<clipPath id="clip0_5_1850">
<rect width="24" height="24" fill="white" transform="translate(971.029 704.529) rotate(45)"/>
</clipPath>
</defs>
</svg>
