<svg width="1160" height="823" viewBox="0 0 1160 823" fill="none" xmlns="http://www.w3.org/2000/svg">
<path d="M1 212.039V56.2354L60.8332 6.16086L1133.41 1L1159 40.4738V822H1V343.711" stroke="url(#paint0_radial_5_1645)" stroke-width="1.63784"/>
<path d="M1 56.2354V212.039V343.711V822H1159V40.4738L1133.41 1L60.8332 6.16086L1 56.2354Z" fill="#0C3538"/>
<path d="M136 695.156V676.584L144.559 670L1015.25 670L1024 680.995V761.572L1006.21 773H144.559L136 762.297V710.851" stroke="url(#paint1_radial_5_1645)" stroke-width="2"/>
<path opacity="0.5" d="M177.42 714.404H172.404V712.424H184.548V714.404H179.532V728H177.42V714.404ZM183.886 718.848C184.443 718.335 185.088 717.953 185.822 717.704C186.555 717.44 187.288 717.308 188.022 717.308C188.784 717.308 189.437 717.403 189.98 717.594C190.537 717.785 190.992 718.041 191.344 718.364C191.696 718.687 191.952 719.061 192.114 719.486C192.29 719.897 192.378 720.329 192.378 720.784V726.108C192.378 726.475 192.385 726.812 192.4 727.12C192.414 727.428 192.436 727.721 192.466 728H190.706C190.662 727.472 190.64 726.944 190.64 726.416H190.596C190.156 727.091 189.635 727.567 189.034 727.846C188.432 728.125 187.736 728.264 186.944 728.264C186.46 728.264 185.998 728.198 185.558 728.066C185.118 727.934 184.729 727.736 184.392 727.472C184.069 727.208 183.812 726.885 183.622 726.504C183.431 726.108 183.336 725.653 183.336 725.14C183.336 724.465 183.482 723.901 183.776 723.446C184.084 722.991 184.494 722.625 185.008 722.346C185.536 722.053 186.144 721.847 186.834 721.73C187.538 721.598 188.286 721.532 189.078 721.532H190.53V721.092C190.53 720.828 190.478 720.564 190.376 720.3C190.273 720.036 190.119 719.801 189.914 719.596C189.708 719.376 189.452 719.207 189.144 719.09C188.836 718.958 188.469 718.892 188.044 718.892C187.662 718.892 187.325 718.929 187.032 719.002C186.753 719.075 186.496 719.171 186.262 719.288C186.027 719.391 185.814 719.515 185.624 719.662C185.433 719.809 185.25 719.948 185.074 720.08L183.886 718.848ZM189.474 722.984C189.004 722.984 188.52 723.013 188.022 723.072C187.538 723.116 187.09 723.211 186.68 723.358C186.284 723.505 185.954 723.71 185.69 723.974C185.44 724.238 185.316 724.575 185.316 724.986C185.316 725.587 185.514 726.02 185.91 726.284C186.32 726.548 186.87 726.68 187.56 726.68C188.102 726.68 188.564 726.592 188.946 726.416C189.327 726.225 189.635 725.983 189.87 725.69C190.104 725.397 190.273 725.074 190.376 724.722C190.478 724.355 190.53 723.996 190.53 723.644V722.984H189.474ZM195.404 711.368H197.384V728H195.404V711.368ZM200.535 711.368H202.515V722.104L207.003 717.594H209.753L204.891 722.324L210.171 728H207.355L202.515 722.588V728H200.535V711.368ZM216.812 717.572H219.034L221.388 725.36H221.432L223.918 717.572H226.008L228.648 725.36H228.692L230.936 717.572H233.026L229.66 728H227.658L224.908 720.212H224.864L222.378 728H220.244L216.812 717.572ZM234.914 717.572H236.894V728H234.914V717.572ZM234.452 713.832C234.452 713.436 234.591 713.099 234.87 712.82C235.163 712.527 235.508 712.38 235.904 712.38C236.3 712.38 236.637 712.527 236.916 712.82C237.209 713.099 237.356 713.436 237.356 713.832C237.356 714.228 237.209 714.573 236.916 714.866C236.637 715.145 236.3 715.284 235.904 715.284C235.508 715.284 235.163 715.145 234.87 714.866C234.591 714.573 234.452 714.228 234.452 713.832ZM245.633 719.288H242.795V724.018C242.795 724.311 242.802 724.605 242.817 724.898C242.831 725.177 242.883 725.433 242.971 725.668C243.073 725.888 243.22 726.071 243.411 726.218C243.616 726.35 243.909 726.416 244.291 726.416C244.525 726.416 244.767 726.394 245.017 726.35C245.266 726.306 245.493 726.225 245.699 726.108V727.912C245.464 728.044 245.156 728.132 244.775 728.176C244.408 728.235 244.122 728.264 243.917 728.264C243.154 728.264 242.56 728.161 242.135 727.956C241.724 727.736 241.416 727.457 241.211 727.12C241.02 726.783 240.903 726.409 240.859 725.998C240.829 725.573 240.815 725.147 240.815 724.722V719.288H238.527V717.572H240.815V714.646H242.795V717.572H245.633V719.288ZM248.187 711.368H250.167V719.178H250.211C250.461 718.621 250.893 718.173 251.509 717.836C252.125 717.484 252.837 717.308 253.643 717.308C254.142 717.308 254.619 717.389 255.073 717.55C255.543 717.697 255.946 717.931 256.283 718.254C256.635 718.577 256.914 718.995 257.119 719.508C257.325 720.007 257.427 720.601 257.427 721.29V728H255.447V721.84C255.447 721.356 255.381 720.945 255.249 720.608C255.117 720.256 254.941 719.977 254.721 719.772C254.501 719.552 254.245 719.398 253.951 719.31C253.673 719.207 253.379 719.156 253.071 719.156C252.661 719.156 252.279 719.222 251.927 719.354C251.575 719.486 251.267 719.699 251.003 719.992C250.739 720.271 250.534 720.63 250.387 721.07C250.241 721.51 250.167 722.031 250.167 722.632V728H248.187V711.368ZM266.689 712.424H272.123C273.223 712.424 274.184 712.549 275.005 712.798C275.841 713.047 276.56 713.385 277.161 713.81C277.777 714.221 278.283 714.697 278.679 715.24C279.09 715.783 279.412 716.34 279.647 716.912C279.882 717.484 280.05 718.056 280.153 718.628C280.256 719.2 280.307 719.728 280.307 720.212C280.307 721.209 280.124 722.177 279.757 723.116C279.39 724.04 278.848 724.869 278.129 725.602C277.41 726.321 276.516 726.9 275.445 727.34C274.389 727.78 273.164 728 271.771 728H266.689V712.424ZM268.801 726.02H271.463C272.358 726.02 273.201 725.903 273.993 725.668C274.8 725.419 275.504 725.052 276.105 724.568C276.706 724.084 277.183 723.483 277.535 722.764C277.887 722.031 278.063 721.18 278.063 720.212C278.063 719.713 277.982 719.134 277.821 718.474C277.66 717.799 277.352 717.161 276.897 716.56C276.457 715.959 275.841 715.453 275.049 715.042C274.257 714.617 273.23 714.404 271.969 714.404H268.801V726.02ZM284.338 723.512C284.338 723.967 284.433 724.385 284.624 724.766C284.829 725.133 285.093 725.448 285.416 725.712C285.738 725.976 286.112 726.181 286.538 726.328C286.963 726.475 287.403 726.548 287.858 726.548C288.474 726.548 289.009 726.409 289.464 726.13C289.918 725.837 290.336 725.455 290.718 724.986L292.214 726.13C291.114 727.553 289.574 728.264 287.594 728.264C286.772 728.264 286.024 728.125 285.35 727.846C284.69 727.567 284.125 727.186 283.656 726.702C283.201 726.203 282.849 725.624 282.6 724.964C282.35 724.289 282.226 723.563 282.226 722.786C282.226 722.009 282.358 721.29 282.622 720.63C282.9 719.955 283.274 719.376 283.744 718.892C284.228 718.393 284.8 718.005 285.46 717.726C286.12 717.447 286.838 717.308 287.616 717.308C288.54 717.308 289.317 717.469 289.948 717.792C290.593 718.115 291.121 718.54 291.532 719.068C291.942 719.581 292.236 720.168 292.412 720.828C292.602 721.473 292.698 722.133 292.698 722.808V723.512H284.338ZM290.586 721.928C290.571 721.488 290.498 721.085 290.366 720.718C290.248 720.351 290.065 720.036 289.816 719.772C289.566 719.493 289.251 719.281 288.87 719.134C288.503 718.973 288.07 718.892 287.572 718.892C287.088 718.892 286.64 718.987 286.23 719.178C285.834 719.354 285.496 719.589 285.218 719.882C284.939 720.175 284.719 720.505 284.558 720.872C284.411 721.224 284.338 721.576 284.338 721.928H290.586ZM297.926 722.434L294.23 717.572H296.782L299.312 721.268L301.798 717.572H304.196L300.632 722.434L304.856 728H302.304L299.224 723.622L296.144 728H293.702L297.926 722.434ZM312.063 719.288H309.225V724.018C309.225 724.311 309.232 724.605 309.247 724.898C309.261 725.177 309.313 725.433 309.401 725.668C309.503 725.888 309.65 726.071 309.841 726.218C310.046 726.35 310.339 726.416 310.721 726.416C310.955 726.416 311.197 726.394 311.447 726.35C311.696 726.306 311.923 726.225 312.129 726.108V727.912C311.894 728.044 311.586 728.132 311.205 728.176C310.838 728.235 310.552 728.264 310.347 728.264C309.584 728.264 308.99 728.161 308.565 727.956C308.154 727.736 307.846 727.457 307.641 727.12C307.45 726.783 307.333 726.409 307.289 725.998C307.259 725.573 307.245 725.147 307.245 724.722V719.288H304.957V717.572H307.245V714.646H309.225V717.572H312.063V719.288ZM316.113 723.512C316.113 723.967 316.208 724.385 316.399 724.766C316.604 725.133 316.868 725.448 317.191 725.712C317.514 725.976 317.888 726.181 318.313 726.328C318.738 726.475 319.178 726.548 319.633 726.548C320.249 726.548 320.784 726.409 321.239 726.13C321.694 725.837 322.112 725.455 322.493 724.986L323.989 726.13C322.889 727.553 321.349 728.264 319.369 728.264C318.548 728.264 317.8 728.125 317.125 727.846C316.465 727.567 315.9 727.186 315.431 726.702C314.976 726.203 314.624 725.624 314.375 724.964C314.126 724.289 314.001 723.563 314.001 722.786C314.001 722.009 314.133 721.29 314.397 720.63C314.676 719.955 315.05 719.376 315.519 718.892C316.003 718.393 316.575 718.005 317.235 717.726C317.895 717.447 318.614 717.308 319.391 717.308C320.315 717.308 321.092 717.469 321.723 717.792C322.368 718.115 322.896 718.54 323.307 719.068C323.718 719.581 324.011 720.168 324.187 720.828C324.378 721.473 324.473 722.133 324.473 722.808V723.512H316.113ZM322.361 721.928C322.346 721.488 322.273 721.085 322.141 720.718C322.024 720.351 321.84 720.036 321.591 719.772C321.342 719.493 321.026 719.281 320.645 719.134C320.278 718.973 319.846 718.892 319.347 718.892C318.863 718.892 318.416 718.987 318.005 719.178C317.609 719.354 317.272 719.589 316.993 719.882C316.714 720.175 316.494 720.505 316.333 720.872C316.186 721.224 316.113 721.576 316.113 721.928H322.361ZM326.842 717.572H328.822V719.178H328.866C328.998 718.899 329.174 718.65 329.394 718.43C329.614 718.195 329.856 717.997 330.12 717.836C330.398 717.675 330.699 717.55 331.022 717.462C331.344 717.359 331.667 717.308 331.99 717.308C332.312 717.308 332.606 717.352 332.87 717.44L332.782 719.574C332.62 719.53 332.459 719.493 332.298 719.464C332.136 719.435 331.975 719.42 331.814 719.42C330.846 719.42 330.105 719.691 329.592 720.234C329.078 720.777 328.822 721.62 328.822 722.764V728H326.842V717.572ZM334.527 728.132C334.131 728.132 333.786 727.993 333.493 727.714C333.214 727.421 333.075 727.076 333.075 726.68C333.075 726.284 333.214 725.947 333.493 725.668C333.786 725.375 334.131 725.228 334.527 725.228C334.923 725.228 335.26 725.375 335.539 725.668C335.832 725.947 335.979 726.284 335.979 726.68C335.979 727.076 335.832 727.421 335.539 727.714C335.26 727.993 334.923 728.132 334.527 728.132ZM340.65 728.132C340.254 728.132 339.909 727.993 339.616 727.714C339.337 727.421 339.198 727.076 339.198 726.68C339.198 726.284 339.337 725.947 339.616 725.668C339.909 725.375 340.254 725.228 340.65 725.228C341.046 725.228 341.383 725.375 341.662 725.668C341.955 725.947 342.102 726.284 342.102 726.68C342.102 727.076 341.955 727.421 341.662 727.714C341.383 727.993 341.046 728.132 340.65 728.132ZM346.773 728.132C346.377 728.132 346.032 727.993 345.739 727.714C345.46 727.421 345.321 727.076 345.321 726.68C345.321 726.284 345.46 725.947 345.739 725.668C346.032 725.375 346.377 725.228 346.773 725.228C347.169 725.228 347.506 725.375 347.785 725.668C348.078 725.947 348.225 726.284 348.225 726.68C348.225 727.076 348.078 727.421 347.785 727.714C347.506 727.993 347.169 728.132 346.773 728.132Z" fill="white"/>
<g opacity="0.5" clip-path="url(#clip0_5_1645)">
<path d="M972.05 708.123L977.643 713.83C979.244 715.382 980.5 716.098 982.107 716.495C982.971 716.709 983.662 717.478 983.661 718.447C983.66 719.557 982.841 720.521 981.688 720.522C980.534 720.523 955.033 720.543 955.033 720.543C955.01 720.543 954.991 720.562 954.991 720.585L954.99 722.413C954.99 722.436 955.008 722.455 955.031 722.455L981.686 722.433C984.032 722.431 984.306 725.919 982.089 726.457C980.428 726.859 979.118 727.592 977.415 729.297L972.025 734.845C972.009 734.861 972.009 734.887 972.025 734.903L973.234 736.148C973.251 736.165 973.278 736.165 973.294 736.148L987.971 721.529C987.987 721.513 987.987 721.487 987.971 721.471L973.32 706.819C973.303 706.802 973.276 706.802 973.259 706.819L972.05 708.064C972.034 708.081 972.034 708.107 972.05 708.123Z" fill="url(#paint2_linear_5_1645)"/>
</g>
<defs>
<radialGradient id="paint0_radial_5_1645" cx="0" cy="0" r="1" gradientUnits="userSpaceOnUse" gradientTransform="translate(595.166 435.716) rotate(90) scale(440.992 579.004)">
<stop stop-color="#2A7D82" stop-opacity="0"/>
<stop offset="1" stop-color="#2A7D82"/>
</radialGradient>
<radialGradient id="paint1_radial_5_1645" cx="0" cy="0" r="1" gradientUnits="userSpaceOnUse" gradientTransform="translate(613.886 721.818) rotate(90) scale(52.5659 465.691)">
<stop stop-color="#2A7D82" stop-opacity="0"/>
<stop offset="1" stop-color="#2A7D82"/>
</radialGradient>
<linearGradient id="paint2_linear_5_1645" x1="962.544" y1="713.015" x2="977.194" y2="727.665" gradientUnits="userSpaceOnUse">
<stop stop-color="#FFDDBD"/>
<stop offset="1" stop-color="#E59E5F"/>
</linearGradient>
<clipPath id="clip0_5_1645">
<rect width="24" height="24" fill="white" transform="translate(971.03 704.529) rotate(45)"/>
</clipPath>
</defs>
</svg>
