<svg width="201" height="58" viewBox="0 0 201 58" fill="none" xmlns="http://www.w3.org/2000/svg">
<path opacity="0.4" d="M1 10.3333V15.7778V24.3333V54.6667L2.94463 57H192.222L200 46.8889V4.11111L198.055 1L8.7785 1.77778L1 10.3333Z" fill="#2A7D82"/>
<path d="M1 15.7778V10.3333L8.7785 1.77778L198.055 1L200 4.11111V46.8889L192.221 57H2.94463L1 54.6667V24.3333" stroke="url(#paint0_radial_5_1295)" stroke-width="2"/>
<path d="M60.8343 25.01C60.4743 24.542 60.0183 24.182 59.4663 23.93C58.9143 23.678 58.3443 23.552 57.7563 23.552C57.0363 23.552 56.3823 23.69 55.7943 23.966C55.2183 24.23 54.7203 24.596 54.3003 25.064C53.8923 25.532 53.5743 26.084 53.3463 26.72C53.1183 27.344 53.0043 28.016 53.0043 28.736C53.0043 29.408 53.1123 30.044 53.3283 30.644C53.5443 31.244 53.8563 31.772 54.2643 32.228C54.6723 32.684 55.1703 33.044 55.7583 33.308C56.3463 33.572 57.0123 33.704 57.7563 33.704C58.4883 33.704 59.1303 33.554 59.6823 33.254C60.2343 32.954 60.7023 32.534 61.0863 31.994L62.5443 33.092C62.4483 33.224 62.2803 33.416 62.0403 33.668C61.8003 33.908 61.4823 34.154 61.0863 34.406C60.6903 34.646 60.2103 34.856 59.6463 35.036C59.0943 35.228 58.4523 35.324 57.7203 35.324C56.7123 35.324 55.8003 35.132 54.9843 34.748C54.1803 34.364 53.4903 33.86 52.9143 33.236C52.3503 32.612 51.9183 31.91 51.6183 31.13C51.3183 30.338 51.1683 29.54 51.1683 28.736C51.1683 27.752 51.3303 26.846 51.6543 26.018C51.9783 25.178 52.4283 24.458 53.0043 23.858C53.5923 23.246 54.2943 22.772 55.1103 22.436C55.9263 22.1 56.8263 21.932 57.8103 21.932C58.6503 21.932 59.4723 22.094 60.2763 22.418C61.0923 22.742 61.7583 23.24 62.2743 23.912L60.8343 25.01ZM65.5341 30.734C65.5341 31.166 65.6001 31.568 65.7321 31.94C65.8641 32.3 66.0501 32.612 66.2901 32.876C66.5301 33.128 66.8241 33.332 67.1721 33.488C67.5201 33.632 67.9101 33.704 68.3421 33.704C68.7741 33.704 69.1641 33.632 69.5121 33.488C69.8601 33.332 70.1541 33.128 70.3941 32.876C70.6341 32.612 70.8201 32.3 70.9521 31.94C71.0841 31.568 71.1501 31.166 71.1501 30.734C71.1501 30.302 71.0841 29.906 70.9521 29.546C70.8201 29.174 70.6341 28.862 70.3941 28.61C70.1541 28.346 69.8601 28.142 69.5121 27.998C69.1641 27.842 68.7741 27.764 68.3421 27.764C67.9101 27.764 67.5201 27.842 67.1721 27.998C66.8241 28.142 66.5301 28.346 66.2901 28.61C66.0501 28.862 65.8641 29.174 65.7321 29.546C65.6001 29.906 65.5341 30.302 65.5341 30.734ZM63.8061 30.734C63.8061 30.11 63.9201 29.528 64.1481 28.988C64.3881 28.448 64.7121 27.974 65.1201 27.566C65.5281 27.158 66.0081 26.84 66.5601 26.612C67.1121 26.372 67.7061 26.252 68.3421 26.252C68.9781 26.252 69.5721 26.372 70.1241 26.612C70.6761 26.84 71.1561 27.158 71.5641 27.566C71.9721 27.974 72.2901 28.448 72.5181 28.988C72.7581 29.528 72.8781 30.11 72.8781 30.734C72.8781 31.358 72.7581 31.946 72.5181 32.498C72.2901 33.038 71.9721 33.512 71.5641 33.92C71.1561 34.316 70.6761 34.634 70.1241 34.874C69.5721 35.102 68.9781 35.216 68.3421 35.216C67.7061 35.216 67.1121 35.102 66.5601 34.874C66.0081 34.634 65.5281 34.316 65.1201 33.92C64.7121 33.512 64.3881 33.038 64.1481 32.498C63.9201 31.946 63.8061 31.358 63.8061 30.734ZM74.9076 26.468H76.5276V27.782H76.5636C76.7676 27.326 77.1216 26.96 77.6256 26.684C78.1296 26.396 78.7116 26.252 79.3716 26.252C79.7796 26.252 80.1696 26.318 80.5416 26.45C80.9256 26.57 81.2556 26.762 81.5316 27.026C81.8196 27.29 82.0476 27.632 82.2156 28.052C82.3836 28.46 82.4676 28.946 82.4676 29.51V35H80.8476V29.96C80.8476 29.564 80.7936 29.228 80.6856 28.952C80.5776 28.664 80.4336 28.436 80.2536 28.268C80.0736 28.088 79.8636 27.962 79.6236 27.89C79.3956 27.806 79.1556 27.764 78.9036 27.764C78.5676 27.764 78.2556 27.818 77.9676 27.926C77.6796 28.034 77.4276 28.208 77.2116 28.448C76.9956 28.676 76.8276 28.97 76.7076 29.33C76.5876 29.69 76.5276 30.116 76.5276 30.608V35H74.9076V26.468ZM89.4815 27.872H87.1595V31.742C87.1595 31.982 87.1655 32.222 87.1775 32.462C87.1895 32.69 87.2315 32.9 87.3035 33.092C87.3875 33.272 87.5075 33.422 87.6635 33.542C87.8315 33.65 88.0715 33.704 88.3835 33.704C88.5755 33.704 88.7735 33.686 88.9775 33.65C89.1815 33.614 89.3675 33.548 89.5355 33.452V34.928C89.3435 35.036 89.0915 35.108 88.7795 35.144C88.4795 35.192 88.2455 35.216 88.0775 35.216C87.4535 35.216 86.9675 35.132 86.6195 34.964C86.2835 34.784 86.0315 34.556 85.8635 34.28C85.7075 34.004 85.6115 33.698 85.5755 33.362C85.5515 33.014 85.5395 32.666 85.5395 32.318V27.872H83.6675V26.468H85.5395V24.074H87.1595V26.468H89.4815V27.872ZM91.6977 26.468H93.3177V35H91.6977V26.468ZM91.3197 23.408C91.3197 23.084 91.4337 22.808 91.6617 22.58C91.9017 22.34 92.1837 22.22 92.5077 22.22C92.8317 22.22 93.1077 22.34 93.3357 22.58C93.5757 22.808 93.6957 23.084 93.6957 23.408C93.6957 23.732 93.5757 24.014 93.3357 24.254C93.1077 24.482 92.8317 24.596 92.5077 24.596C92.1837 24.596 91.9017 24.482 91.6617 24.254C91.4337 24.014 91.3197 23.732 91.3197 23.408ZM95.8959 26.468H97.5159V27.782H97.5519C97.7559 27.326 98.1099 26.96 98.6139 26.684C99.1179 26.396 99.6999 26.252 100.36 26.252C100.768 26.252 101.158 26.318 101.53 26.45C101.914 26.57 102.244 26.762 102.52 27.026C102.808 27.29 103.036 27.632 103.204 28.052C103.372 28.46 103.456 28.946 103.456 29.51V35H101.836V29.96C101.836 29.564 101.782 29.228 101.674 28.952C101.566 28.664 101.422 28.436 101.242 28.268C101.062 28.088 100.852 27.962 100.612 27.89C100.384 27.806 100.144 27.764 99.8919 27.764C99.5559 27.764 99.2439 27.818 98.9559 27.926C98.6679 28.034 98.4159 28.208 98.1999 28.448C97.9839 28.676 97.8159 28.97 97.6959 29.33C97.5759 29.69 97.5159 30.116 97.5159 30.608V35H95.8959V26.468ZM113.458 35H111.838V33.686H111.802C111.598 34.142 111.244 34.514 110.74 34.802C110.236 35.078 109.654 35.216 108.994 35.216C108.574 35.216 108.178 35.15 107.806 35.018C107.434 34.898 107.104 34.706 106.816 34.442C106.54 34.178 106.318 33.842 106.15 33.434C105.982 33.014 105.898 32.522 105.898 31.958V26.468H107.518V31.508C107.518 31.904 107.572 32.246 107.68 32.534C107.788 32.81 107.932 33.038 108.112 33.218C108.292 33.386 108.496 33.512 108.724 33.596C108.964 33.668 109.21 33.704 109.462 33.704C109.798 33.704 110.11 33.65 110.398 33.542C110.686 33.434 110.938 33.266 111.154 33.038C111.37 32.798 111.538 32.498 111.658 32.138C111.778 31.778 111.838 31.352 111.838 30.86V26.468H113.458V35ZM117.124 31.328C117.124 31.7 117.202 32.042 117.358 32.354C117.526 32.654 117.742 32.912 118.006 33.128C118.27 33.344 118.576 33.512 118.924 33.632C119.272 33.752 119.632 33.812 120.004 33.812C120.508 33.812 120.946 33.698 121.318 33.47C121.69 33.23 122.032 32.918 122.344 32.534L123.568 33.47C122.668 34.634 121.408 35.216 119.788 35.216C119.116 35.216 118.504 35.102 117.952 34.874C117.412 34.646 116.95 34.334 116.566 33.938C116.194 33.53 115.906 33.056 115.702 32.516C115.498 31.964 115.396 31.37 115.396 30.734C115.396 30.098 115.504 29.51 115.72 28.97C115.948 28.418 116.254 27.944 116.638 27.548C117.034 27.14 117.502 26.822 118.042 26.594C118.582 26.366 119.17 26.252 119.806 26.252C120.562 26.252 121.198 26.384 121.714 26.648C122.242 26.912 122.674 27.26 123.01 27.692C123.346 28.112 123.586 28.592 123.73 29.132C123.886 29.66 123.964 30.2 123.964 30.752V31.328H117.124ZM122.236 30.032C122.224 29.672 122.164 29.342 122.056 29.042C121.96 28.742 121.81 28.484 121.606 28.268C121.402 28.04 121.144 27.866 120.832 27.746C120.532 27.614 120.178 27.548 119.77 27.548C119.374 27.548 119.008 27.626 118.672 27.782C118.348 27.926 118.072 28.118 117.844 28.358C117.616 28.598 117.436 28.868 117.304 29.168C117.184 29.456 117.124 29.744 117.124 30.032H122.236Z" fill="#F2FEFF"/>
<g clip-path="url(#clip0_5_1295)">
<path d="M143.466 22.4618L146.408 25.4644C147.251 26.281 147.912 26.6576 148.757 26.8668C149.212 26.9793 149.575 27.3838 149.575 27.8938C149.574 28.4778 149.143 28.9847 148.536 28.9852C147.93 28.9857 134.512 28.9967 134.512 28.9967C134.5 28.9967 134.49 29.0065 134.49 29.0187L134.489 29.9805C134.489 29.9926 134.499 30.0025 134.511 30.0025L148.536 29.991C149.77 29.99 149.914 31.8253 148.747 32.1079C147.874 32.3194 147.184 32.7053 146.288 33.6022L143.452 36.5212C143.444 36.5298 143.444 36.5434 143.452 36.5519L144.089 37.2069C144.097 37.2159 144.112 37.2158 144.12 37.2068L151.842 29.5153C151.851 29.5067 151.851 29.4932 151.842 29.4847L144.134 21.7759C144.125 21.767 144.111 21.7669 144.102 21.7759L143.465 22.431C143.457 22.4396 143.457 22.4532 143.466 22.4618Z" fill="#F2FEFF"/>
</g>
<defs>
<radialGradient id="paint0_radial_5_1295" cx="0" cy="0" r="1" gradientUnits="userSpaceOnUse" gradientTransform="translate(101.821 30.9882) rotate(90) scale(29.9882 100.821)">
<stop stop-color="#2A7D82" stop-opacity="0"/>
<stop offset="1" stop-color="#2A7D82"/>
</radialGradient>
<clipPath id="clip0_5_1295">
<rect width="12.6274" height="12.6274" fill="white" transform="translate(142.929 20.571) rotate(45)"/>
</clipPath>
</defs>
</svg>
