<svg width="140" height="1023" viewBox="0 0 140 1023" fill="none" xmlns="http://www.w3.org/2000/svg">
<rect y="-1" width="140" height="1024" fill="#0C3538"/>
<path d="M30.8884 217.553H27.6947V226.152H26.5483V217.553H23.3546V216.489H30.8884V217.553ZM30.7986 221.279C30.7986 220.988 30.7895 220.715 30.7713 220.461C30.7531 220.206 30.744 219.974 30.744 219.765H31.754C31.754 219.937 31.7586 220.11 31.7677 220.283C31.7768 220.456 31.7813 220.633 31.7813 220.815H31.8086C31.8814 220.661 31.9815 220.511 32.1089 220.365C32.2453 220.219 32.4046 220.092 32.5865 219.983C32.7685 219.865 32.9732 219.774 33.2007 219.71C33.4282 219.637 33.6739 219.601 33.9377 219.601C34.0105 219.601 34.0833 219.605 34.1561 219.614C34.2289 219.623 34.3017 219.642 34.3745 219.669L34.3062 220.747C34.1242 220.693 33.9332 220.665 33.733 220.665C33.0779 220.665 32.6002 220.879 32.2999 221.307C32.0088 221.725 31.8632 222.303 31.8632 223.04V226.152H30.7986V221.279ZM41.0619 224.992C40.6797 225.483 40.2612 225.829 39.8062 226.029C39.3513 226.22 38.8236 226.316 38.223 226.316C37.7226 226.316 37.2722 226.229 36.8719 226.056C36.4715 225.874 36.1303 225.633 35.8483 225.333C35.5753 225.033 35.3615 224.678 35.2068 224.268C35.0612 223.859 34.9884 223.422 34.9884 222.958C34.9884 222.467 35.0703 222.016 35.2341 221.607C35.3979 221.188 35.6253 220.834 35.9165 220.542C36.2077 220.242 36.5534 220.01 36.9538 219.846C37.3541 219.683 37.7908 219.601 38.264 219.601C38.7098 219.601 39.1193 219.678 39.4923 219.833C39.8654 219.978 40.1838 220.197 40.4477 220.488C40.7207 220.77 40.9299 221.12 41.0755 221.539C41.2211 221.948 41.2939 222.417 41.2939 222.945V223.286H36.1349C36.1531 223.559 36.2168 223.823 36.3259 224.077C36.4442 224.323 36.5944 224.541 36.7763 224.732C36.9583 224.914 37.1721 225.06 37.4178 225.169C37.6635 225.278 37.9319 225.333 38.223 225.333C38.6871 225.333 39.0783 225.251 39.3968 225.087C39.7152 224.924 40.0019 224.682 40.2566 224.364L41.0619 224.992ZM40.1474 222.385C40.1292 221.839 39.9518 221.402 39.6152 221.075C39.2785 220.747 38.8145 220.583 38.223 220.583C37.6316 220.583 37.1539 220.747 36.79 221.075C36.426 221.402 36.2077 221.839 36.1349 222.385H40.1474ZM42.9407 221.279C42.9407 220.988 42.9316 220.715 42.9134 220.461C42.8952 220.206 42.8861 219.974 42.8861 219.765H43.8961C43.8961 219.937 43.9007 220.11 43.9098 220.283C43.9189 220.456 43.9234 220.633 43.9234 220.815H43.9507C44.0235 220.661 44.1236 220.511 44.251 220.365C44.3874 220.219 44.5467 220.092 44.7286 219.983C44.9106 219.865 45.1153 219.774 45.3428 219.71C45.5703 219.637 45.8159 219.601 46.0798 219.601C46.4984 219.601 46.8578 219.664 47.158 219.792C47.4674 219.919 47.7221 220.097 47.9223 220.324C48.1225 220.552 48.2681 220.829 48.3591 221.157C48.4591 221.475 48.5092 221.825 48.5092 222.208V226.152H47.4446V222.317C47.4446 221.78 47.3263 221.357 47.0898 221.047C46.8532 220.738 46.4847 220.583 45.9843 220.583C45.6385 220.583 45.3383 220.643 45.0835 220.761C44.8378 220.879 44.6331 221.047 44.4693 221.266C44.3146 221.484 44.1964 221.743 44.1145 222.044C44.0417 222.344 44.0053 222.676 44.0053 223.04V226.152H42.9407V221.279ZM55.8337 225.019H55.8064C55.6062 225.383 55.2878 225.692 54.851 225.947C54.4234 226.193 53.9229 226.316 53.3497 226.316C52.9039 226.316 52.4853 226.234 52.0941 226.07C51.7028 225.897 51.3616 225.661 51.0705 225.36C50.7884 225.06 50.5655 224.705 50.4017 224.296C50.2379 223.886 50.156 223.44 50.156 222.958C50.156 222.476 50.2379 222.03 50.4017 221.621C50.5655 221.211 50.793 220.856 51.0841 220.556C51.3753 220.256 51.7256 220.024 52.135 219.86C52.5536 219.687 53.0131 219.601 53.5135 219.601C53.9775 219.601 54.4006 219.696 54.7828 219.887C55.174 220.078 55.5152 220.347 55.8064 220.693H55.8337V215.834H56.8982V226.152H55.8337V225.019ZM55.8337 222.958C55.8337 222.622 55.7791 222.312 55.6699 222.03C55.5698 221.739 55.4197 221.489 55.2195 221.279C55.0193 221.061 54.7782 220.893 54.4962 220.774C54.2232 220.647 53.9138 220.583 53.5681 220.583C53.2223 220.583 52.9084 220.647 52.6264 220.774C52.3534 220.893 52.1168 221.061 51.9167 221.279C51.7165 221.489 51.5618 221.739 51.4526 222.03C51.3525 222.312 51.3025 222.622 51.3025 222.958C51.3025 223.295 51.3525 223.609 51.4526 223.9C51.5618 224.182 51.7165 224.432 51.9167 224.651C52.1168 224.86 52.3534 225.028 52.6264 225.156C52.9084 225.274 53.2223 225.333 53.5681 225.333C53.9138 225.333 54.2232 225.274 54.4962 225.156C54.7782 225.028 55.0193 224.86 55.2195 224.651C55.4197 224.432 55.5698 224.182 55.6699 223.9C55.7791 223.609 55.8337 223.295 55.8337 222.958ZM58.9769 219.765H60.0415V226.152H58.9769V219.765ZM58.7313 217.267C58.7313 217.058 58.8041 216.876 58.9496 216.721C59.1043 216.566 59.2908 216.489 59.5092 216.489C59.7276 216.489 59.9096 216.566 60.0551 216.721C60.2098 216.876 60.2872 217.058 60.2872 217.267C60.2872 217.494 60.2144 217.681 60.0688 217.826C59.9232 217.972 59.7367 218.045 59.5092 218.045C59.2817 218.045 59.0952 217.972 58.9496 217.826C58.8041 217.681 58.7313 217.494 58.7313 217.267ZM62.1602 221.279C62.1602 220.988 62.1511 220.715 62.1329 220.461C62.1147 220.206 62.1056 219.974 62.1056 219.765H63.1155C63.1155 219.937 63.1201 220.11 63.1292 220.283C63.1383 220.456 63.1428 220.633 63.1428 220.815H63.1701C63.2429 220.661 63.343 220.511 63.4704 220.365C63.6069 220.219 63.7661 220.092 63.9481 219.983C64.13 219.865 64.3348 219.774 64.5622 219.71C64.7897 219.637 65.0354 219.601 65.2992 219.601C65.7178 219.601 66.0772 219.664 66.3774 219.792C66.6868 219.919 66.9416 220.097 67.1417 220.324C67.3419 220.552 67.4875 220.829 67.5785 221.157C67.6786 221.475 67.7286 221.825 67.7286 222.208V226.152H66.6641V222.317C66.6641 221.78 66.5458 221.357 66.3092 221.047C66.0726 220.738 65.7041 220.583 65.2037 220.583C64.8579 220.583 64.5577 220.643 64.3029 220.761C64.0573 220.879 63.8525 221.047 63.6888 221.266C63.5341 221.484 63.4158 221.743 63.3339 222.044C63.2611 222.344 63.2247 222.676 63.2247 223.04V226.152H62.1602V221.279ZM76.1177 225.865C76.1177 227.03 75.8174 227.912 75.2169 228.513C74.6255 229.123 73.7656 229.427 72.6374 229.427C72.0096 229.427 71.4409 229.336 70.9314 229.154C70.4309 228.972 69.9532 228.659 69.4983 228.213L70.2626 227.339C70.5993 227.703 70.9541 227.976 71.3272 228.158C71.7093 228.349 72.146 228.445 72.6374 228.445C73.1105 228.445 73.5018 228.372 73.8111 228.226C74.1296 228.09 74.3798 227.899 74.5618 227.653C74.7438 227.417 74.8711 227.144 74.9439 226.834C75.0167 226.525 75.0531 226.202 75.0531 225.865V225.046H75.0258C74.7711 225.456 74.4389 225.756 74.0295 225.947C73.6201 226.138 73.2015 226.234 72.7739 226.234C72.2734 226.234 71.8139 226.152 71.3954 225.988C70.9769 225.824 70.6175 225.597 70.3172 225.306C70.0169 225.015 69.7849 224.669 69.6211 224.268C69.4574 223.868 69.3755 223.431 69.3755 222.958C69.3755 222.44 69.4574 221.971 69.6211 221.552C69.7849 221.134 70.0124 220.784 70.3035 220.502C70.6038 220.21 70.9632 219.987 71.3818 219.833C71.8003 219.678 72.2643 219.601 72.7739 219.601C72.9922 219.601 73.2106 219.628 73.429 219.683C73.6474 219.728 73.8566 219.805 74.0568 219.915C74.2661 220.015 74.4526 220.147 74.6164 220.31C74.7802 220.465 74.9166 220.647 75.0258 220.856H75.0531V219.765H76.1177V225.865ZM70.5219 222.958C70.5219 223.286 70.5811 223.591 70.6993 223.873C70.8176 224.146 70.9769 224.387 71.177 224.596C71.3863 224.796 71.6274 224.955 71.9004 225.074C72.1733 225.192 72.4645 225.251 72.7739 225.251C73.1378 225.251 73.4608 225.187 73.7429 225.06C74.025 224.933 74.2615 224.764 74.4526 224.555C74.6528 224.337 74.8029 224.091 74.903 223.818C75.0031 223.536 75.0531 223.24 75.0531 222.931C75.0531 222.585 74.9985 222.271 74.8893 221.989C74.7802 221.698 74.6255 221.448 74.4253 221.239C74.2251 221.029 73.984 220.87 73.7019 220.761C73.4199 220.643 73.1105 220.583 72.7739 220.583C72.4372 220.583 72.1279 220.647 71.8458 220.774C71.5728 220.893 71.3363 221.061 71.1361 221.279C70.945 221.489 70.7949 221.739 70.6857 222.03C70.5765 222.312 70.5219 222.622 70.5219 222.958ZM85.38 220.665H83.4965V223.859C83.4965 224.068 83.5011 224.264 83.5102 224.446C83.5193 224.619 83.5557 224.773 83.6194 224.91C83.6831 225.037 83.7786 225.142 83.906 225.224C84.0334 225.297 84.2153 225.333 84.4519 225.333C84.6066 225.333 84.7658 225.315 84.9296 225.278C85.0934 225.242 85.2481 225.187 85.3936 225.115L85.4346 226.084C85.2526 226.166 85.0479 226.225 84.8204 226.261C84.602 226.297 84.3928 226.316 84.1926 226.316C83.8105 226.316 83.5056 226.266 83.2782 226.166C83.0507 226.065 82.8733 225.924 82.7459 225.742C82.6185 225.56 82.5321 225.338 82.4866 225.074C82.4502 224.801 82.432 224.5 82.432 224.173V220.665H81.0399V219.765H82.432V217.949H83.4965V219.765H85.38V220.665ZM86.3158 222.958C86.3158 222.458 86.4022 222.003 86.5751 221.593C86.7479 221.184 86.9845 220.834 87.2848 220.542C87.585 220.242 87.9444 220.01 88.363 219.846C88.7815 219.683 89.2365 219.601 89.7278 219.601C90.2191 219.601 90.6741 219.683 91.0926 219.846C91.5112 220.01 91.8706 220.242 92.1708 220.542C92.4711 220.834 92.7077 221.184 92.8805 221.593C93.0534 222.003 93.1398 222.458 93.1398 222.958C93.1398 223.459 93.0534 223.914 92.8805 224.323C92.7077 224.732 92.4711 225.087 92.1708 225.388C91.8706 225.679 91.5112 225.906 91.0926 226.07C90.6741 226.234 90.2191 226.316 89.7278 226.316C89.2365 226.316 88.7815 226.234 88.363 226.07C87.9444 225.906 87.585 225.679 87.2848 225.388C86.9845 225.087 86.7479 224.732 86.5751 224.323C86.4022 223.914 86.3158 223.459 86.3158 222.958ZM87.4622 222.958C87.4622 223.295 87.5122 223.609 87.6123 223.9C87.7215 224.182 87.8762 224.432 88.0764 224.651C88.2765 224.86 88.5131 225.028 88.7861 225.156C89.0681 225.274 89.382 225.333 89.7278 225.333C90.0736 225.333 90.3829 225.274 90.6559 225.156C90.9379 225.028 91.1791 224.86 91.3792 224.651C91.5794 224.432 91.7295 224.182 91.8296 223.9C91.9388 223.609 91.9934 223.295 91.9934 222.958C91.9934 222.622 91.9388 222.312 91.8296 222.03C91.7295 221.739 91.5794 221.489 91.3792 221.279C91.1791 221.061 90.9379 220.893 90.6559 220.774C90.3829 220.647 90.0736 220.583 89.7278 220.583C89.382 220.583 89.0681 220.647 88.7861 220.774C88.5131 220.893 88.2765 221.061 88.0764 221.279C87.8762 221.489 87.7215 221.739 87.6123 222.03C87.5122 222.312 87.4622 222.622 87.4622 222.958ZM94.7333 219.765H95.7978V220.693H95.8251C96.1163 220.347 96.4529 220.078 96.8351 219.887C97.2263 219.696 97.654 219.601 98.118 219.601C98.6185 219.601 99.0734 219.687 99.4828 219.86C99.9014 220.024 100.256 220.256 100.547 220.556C100.839 220.856 101.066 221.211 101.23 221.621C101.394 222.03 101.475 222.476 101.475 222.958C101.475 223.44 101.394 223.886 101.23 224.296C101.066 224.705 100.839 225.06 100.547 225.36C100.265 225.661 99.9287 225.897 99.5374 226.07C99.1462 226.234 98.7276 226.316 98.2818 226.316C97.7086 226.316 97.2036 226.193 96.7669 225.947C96.3392 225.692 96.0253 225.383 95.8251 225.019H95.7978V229.264H94.7333V219.765ZM95.7978 222.958C95.7978 223.295 95.8479 223.609 95.948 223.9C96.0571 224.182 96.2118 224.432 96.412 224.651C96.6122 224.86 96.8487 225.028 97.1217 225.156C97.4038 225.274 97.7177 225.333 98.0634 225.333C98.4092 225.333 98.7185 225.274 98.9915 225.156C99.2736 225.028 99.5147 224.86 99.7149 224.651C99.915 224.432 100.065 224.182 100.165 223.9C100.274 223.609 100.329 223.295 100.329 222.958C100.329 222.622 100.274 222.312 100.165 222.03C100.065 221.739 99.915 221.489 99.7149 221.279C99.5147 221.061 99.2736 220.893 98.9915 220.774C98.7185 220.647 98.4092 220.583 98.0634 220.583C97.7177 220.583 97.4038 220.647 97.1217 220.774C96.8487 220.893 96.6122 221.061 96.412 221.279C96.2118 221.489 96.0571 221.739 95.948 222.03C95.8479 222.312 95.7978 222.622 95.7978 222.958ZM103.227 219.765H104.291V226.152H103.227V219.765ZM102.981 217.267C102.981 217.058 103.054 216.876 103.2 216.721C103.354 216.566 103.541 216.489 103.759 216.489C103.978 216.489 104.16 216.566 104.305 216.721C104.46 216.876 104.537 217.058 104.537 217.267C104.537 217.494 104.464 217.681 104.319 217.826C104.173 217.972 103.987 218.045 103.759 218.045C103.532 218.045 103.345 217.972 103.2 217.826C103.054 217.681 102.981 217.494 102.981 217.267ZM110.955 221.361C110.728 221.088 110.482 220.893 110.218 220.774C109.954 220.647 109.663 220.583 109.345 220.583C108.99 220.583 108.676 220.647 108.403 220.774C108.13 220.893 107.902 221.061 107.72 221.279C107.548 221.498 107.416 221.753 107.325 222.044C107.234 222.326 107.188 222.631 107.188 222.958C107.188 223.286 107.238 223.595 107.338 223.886C107.447 224.168 107.593 224.419 107.775 224.637C107.966 224.855 108.194 225.028 108.457 225.156C108.721 225.274 109.017 225.333 109.345 225.333C110.045 225.333 110.586 225.069 110.969 224.541L111.76 225.292C111.451 225.647 111.087 225.906 110.668 226.07C110.25 226.234 109.809 226.316 109.345 226.316C108.853 226.316 108.403 226.234 107.993 226.07C107.584 225.906 107.234 225.674 106.942 225.374C106.66 225.074 106.437 224.719 106.274 224.309C106.119 223.9 106.042 223.45 106.042 222.958C106.042 222.476 106.119 222.03 106.274 221.621C106.437 221.211 106.665 220.856 106.956 220.556C107.247 220.256 107.593 220.024 107.993 219.86C108.403 219.687 108.853 219.601 109.345 219.601C109.818 219.601 110.263 219.683 110.682 219.846C111.11 220.01 111.483 220.265 111.801 220.611L110.955 221.361ZM113.131 224.473C113.34 224.737 113.568 224.946 113.813 225.101C114.068 225.256 114.386 225.333 114.769 225.333C114.932 225.333 115.096 225.315 115.26 225.278C115.433 225.242 115.587 225.183 115.724 225.101C115.86 225.019 115.97 224.919 116.052 224.801C116.133 224.673 116.174 224.523 116.174 224.35C116.174 224.177 116.133 224.036 116.052 223.927C115.979 223.818 115.879 223.727 115.751 223.654C115.624 223.572 115.478 223.509 115.315 223.463C115.151 223.418 114.982 223.377 114.81 223.34C114.509 223.277 114.223 223.204 113.95 223.122C113.677 223.04 113.436 222.935 113.226 222.808C113.026 222.672 112.862 222.499 112.735 222.289C112.617 222.08 112.558 221.812 112.558 221.484C112.558 221.175 112.626 220.902 112.762 220.665C112.899 220.429 113.081 220.233 113.308 220.078C113.536 219.924 113.79 219.805 114.073 219.724C114.355 219.642 114.646 219.601 114.946 219.601C115.401 219.601 115.82 219.692 116.202 219.874C116.593 220.056 116.898 220.351 117.116 220.761L116.229 221.348C116.092 221.12 115.911 220.938 115.683 220.802C115.465 220.656 115.196 220.583 114.878 220.583C114.732 220.583 114.582 220.602 114.427 220.638C114.282 220.674 114.15 220.729 114.032 220.802C113.913 220.875 113.813 220.97 113.731 221.088C113.659 221.198 113.622 221.325 113.622 221.471C113.622 221.607 113.663 221.725 113.745 221.825C113.836 221.916 113.954 221.998 114.1 222.071C114.255 222.144 114.427 222.208 114.618 222.262C114.819 222.317 115.023 222.362 115.233 222.399C115.515 222.453 115.783 222.526 116.038 222.617C116.293 222.699 116.516 222.813 116.707 222.958C116.898 223.104 117.048 223.286 117.157 223.504C117.266 223.722 117.321 223.991 117.321 224.309C117.321 224.673 117.248 224.983 117.102 225.237C116.957 225.492 116.761 225.701 116.516 225.865C116.279 226.02 116.006 226.134 115.697 226.206C115.396 226.279 115.087 226.316 114.769 226.316C114.223 226.316 113.75 226.234 113.349 226.07C112.958 225.897 112.603 225.583 112.285 225.128L113.131 224.473Z" fill="white"/>
<path d="M41.2798 401.347C41.0888 401.037 40.834 400.814 40.5155 400.678C40.1971 400.532 39.865 400.46 39.5192 400.46C39.2645 400.46 39.0142 400.491 38.7686 400.555C38.5229 400.619 38.3 400.714 38.0998 400.842C37.9087 400.969 37.7541 401.137 37.6358 401.347C37.5175 401.556 37.4583 401.802 37.4583 402.084C37.4583 402.302 37.4902 402.498 37.5539 402.671C37.6267 402.834 37.7404 402.984 37.8951 403.121C38.0498 403.257 38.259 403.385 38.5229 403.503C38.7868 403.621 39.1098 403.74 39.4919 403.858C39.865 403.976 40.2244 404.104 40.5701 404.24C40.925 404.377 41.2343 404.549 41.4982 404.759C41.7712 404.968 41.985 405.232 42.1397 405.55C42.3034 405.86 42.3853 406.251 42.3853 406.724C42.3853 407.206 42.2898 407.625 42.0987 407.98C41.9077 408.335 41.6529 408.63 41.3344 408.867C41.0251 409.094 40.6657 409.263 40.2562 409.372C39.8468 409.49 39.4237 409.549 38.9869 409.549C38.7049 409.549 38.4228 409.522 38.1407 409.467C37.8587 409.422 37.5857 409.349 37.3219 409.249C37.0671 409.14 36.826 409.003 36.5985 408.84C36.371 408.667 36.1754 408.457 36.0116 408.212L36.9943 407.406C37.2036 407.761 37.4947 408.03 37.8678 408.212C38.2408 408.394 38.6366 408.485 39.0552 408.485C39.3008 408.485 39.5465 408.448 39.7922 408.376C40.0469 408.303 40.2744 408.198 40.4746 408.062C40.6748 407.916 40.8385 407.739 40.9659 407.529C41.0933 407.32 41.157 407.079 41.157 406.806C41.157 406.506 41.107 406.265 41.0069 406.083C40.9068 405.892 40.7521 405.728 40.5428 405.591C40.3336 405.455 40.0697 405.332 39.7512 405.223C39.4328 405.114 39.0597 404.986 38.6321 404.841C38.2863 404.731 37.9679 404.609 37.6767 404.472C37.3855 404.327 37.1308 404.154 36.9124 403.953C36.7031 403.744 36.5348 403.499 36.4074 403.216C36.2891 402.925 36.23 402.58 36.23 402.179C36.23 401.715 36.321 401.31 36.503 400.965C36.6849 400.619 36.9306 400.332 37.24 400.105C37.5493 399.868 37.8996 399.691 38.2909 399.572C38.6821 399.454 39.0916 399.395 39.5192 399.395C40.0651 399.395 40.561 399.481 41.0069 399.654C41.4618 399.818 41.8667 400.109 42.2216 400.528L41.2798 401.347ZM47.5807 403.817H45.6973V407.011C45.6973 407.22 45.7018 407.416 45.7109 407.598C45.72 407.77 45.7564 407.925 45.8201 408.062C45.8838 408.189 45.9793 408.294 46.1067 408.376C46.2341 408.448 46.4161 408.485 46.6526 408.485C46.8073 408.485 46.9665 408.466 47.1303 408.43C47.2941 408.394 47.4488 408.339 47.5944 408.266L47.6353 409.235C47.4533 409.317 47.2486 409.376 47.0211 409.413C46.8028 409.449 46.5935 409.467 46.3933 409.467C46.0112 409.467 45.7064 409.417 45.4789 409.317C45.2514 409.217 45.074 409.076 44.9466 408.894C44.8192 408.712 44.7328 408.489 44.6873 408.225C44.6509 407.952 44.6327 407.652 44.6327 407.325V403.817H43.2406V402.916H44.6327V401.101H45.6973V402.916H47.5807V403.817ZM48.8031 403.735C49.1306 403.398 49.5173 403.153 49.9632 402.998C50.4181 402.834 50.8776 402.752 51.3416 402.752C52.2879 402.752 52.9703 402.975 53.3889 403.421C53.8074 403.867 54.0167 404.545 54.0167 405.455V408.198C54.0167 408.38 54.0258 408.571 54.044 408.771C54.0622 408.962 54.0849 409.14 54.1122 409.304H53.0886C53.0522 409.158 53.0295 408.999 53.0204 408.826C53.0204 408.644 53.0204 408.485 53.0204 408.348H52.9931C52.7838 408.676 52.5017 408.944 52.1469 409.153C51.8011 409.363 51.3826 409.467 50.8913 409.467C50.5637 409.467 50.2543 409.426 49.9632 409.345C49.6811 409.263 49.4309 409.144 49.2125 408.99C49.0033 408.826 48.8349 408.626 48.7075 408.389C48.5802 408.153 48.5165 407.88 48.5165 407.57C48.5165 407.043 48.6529 406.629 48.9259 406.328C49.1989 406.028 49.5355 405.805 49.9359 405.66C50.3453 405.514 50.7821 405.423 51.2461 405.387C51.7192 405.35 52.1514 405.332 52.5427 405.332H52.9521V405.141C52.9521 404.677 52.8111 404.327 52.529 404.09C52.2561 403.853 51.8694 403.735 51.3689 403.735C51.0232 403.735 50.682 403.794 50.3453 403.913C50.0178 404.022 49.7266 404.195 49.4718 404.431L48.8031 403.735ZM51.8876 406.233C51.2052 406.233 50.6638 406.328 50.2634 406.519C49.8631 406.71 49.6629 407.024 49.6629 407.461C49.6629 407.861 49.7948 408.148 50.0587 408.321C50.3317 408.485 50.6683 408.567 51.0687 408.567C51.378 408.567 51.6465 408.517 51.8739 408.416C52.1105 408.307 52.3061 408.166 52.4608 407.993C52.6155 407.82 52.7338 407.62 52.8156 407.393C52.8975 407.156 52.943 406.906 52.9521 406.642V406.233H51.8876ZM55.9623 404.431C55.9623 404.14 55.9532 403.867 55.935 403.612C55.9168 403.358 55.9077 403.126 55.9077 402.916H56.9177C56.9177 403.089 56.9222 403.262 56.9313 403.435C56.9404 403.608 56.945 403.785 56.945 403.967H56.9723C57.0451 403.812 57.1451 403.662 57.2725 403.517C57.409 403.371 57.5682 403.244 57.7502 403.135C57.9322 403.016 58.1369 402.925 58.3644 402.862C58.5919 402.789 58.8375 402.752 59.1014 402.752C59.1742 402.752 59.247 402.757 59.3198 402.766C59.3925 402.775 59.4653 402.793 59.5381 402.821L59.4699 403.899C59.2879 403.844 59.0968 403.817 58.8967 403.817C58.2415 403.817 57.7639 404.031 57.4636 404.458C57.1724 404.877 57.0269 405.455 57.0269 406.192V409.304H55.9623V404.431ZM64.2544 403.817H62.371V407.011C62.371 407.22 62.3755 407.416 62.3846 407.598C62.3937 407.77 62.4301 407.925 62.4938 408.062C62.5575 408.189 62.653 408.294 62.7804 408.376C62.9078 408.448 63.0898 408.485 63.3264 408.485C63.481 408.485 63.6403 408.466 63.804 408.43C63.9678 408.394 64.1225 408.339 64.2681 408.266L64.309 409.235C64.127 409.317 63.9223 409.376 63.6949 409.413C63.4765 409.449 63.2672 409.467 63.067 409.467C62.6849 409.467 62.3801 409.417 62.1526 409.317C61.9251 409.217 61.7477 409.076 61.6203 408.894C61.4929 408.712 61.4065 408.489 61.361 408.225C61.3246 407.952 61.3064 407.652 61.3064 407.325V403.817H59.9143V402.916H61.3064V401.101H62.371V402.916H64.2544V403.817ZM69.2754 403.735C69.6029 403.398 69.9896 403.153 70.4355 402.998C70.8904 402.834 71.3499 402.752 71.8139 402.752C72.7602 402.752 73.4426 402.975 73.8612 403.421C74.2797 403.867 74.489 404.545 74.489 405.455V408.198C74.489 408.38 74.4981 408.571 74.5163 408.771C74.5345 408.962 74.5572 409.14 74.5845 409.304H73.5609C73.5245 409.158 73.5018 408.999 73.4927 408.826C73.4927 408.644 73.4927 408.485 73.4927 408.348H73.4654C73.2561 408.676 72.974 408.944 72.6192 409.153C72.2734 409.363 71.8549 409.467 71.3635 409.467C71.036 409.467 70.7266 409.426 70.4355 409.345C70.1534 409.263 69.9032 409.144 69.6848 408.99C69.4755 408.826 69.3072 408.626 69.1798 408.389C69.0524 408.153 68.9888 407.88 68.9888 407.57C68.9888 407.043 69.1252 406.629 69.3982 406.328C69.6712 406.028 70.0078 405.805 70.4082 405.66C70.8176 405.514 71.2544 405.423 71.7184 405.387C72.1915 405.35 72.6237 405.332 73.015 405.332H73.4244V405.141C73.4244 404.677 73.2834 404.327 73.0013 404.09C72.7284 403.853 72.3417 403.735 71.8412 403.735C71.4955 403.735 71.1543 403.794 70.8176 403.913C70.4901 404.022 70.1989 404.195 69.9441 404.431L69.2754 403.735ZM72.3599 406.233C71.6774 406.233 71.1361 406.328 70.7357 406.519C70.3354 406.71 70.1352 407.024 70.1352 407.461C70.1352 407.861 70.2671 408.148 70.531 408.321C70.804 408.485 71.1406 408.567 71.541 408.567C71.8503 408.567 72.1187 408.517 72.3462 408.416C72.5828 408.307 72.7784 408.166 72.9331 407.993C73.0878 407.82 73.206 407.62 73.2879 407.393C73.3698 407.156 73.4153 406.906 73.4244 406.642V406.233H72.3599ZM80.2332 404.431C80.2332 404.14 80.2241 403.867 80.2059 403.612C80.1877 403.358 80.1786 403.126 80.1786 402.916H81.1885C81.1885 403.089 81.1931 403.262 81.2022 403.435C81.2113 403.608 81.2158 403.785 81.2158 403.967H81.2431C81.3159 403.812 81.416 403.662 81.5434 403.517C81.6799 403.371 81.8391 403.244 82.0211 403.135C82.203 403.016 82.4078 402.925 82.6352 402.862C82.8627 402.789 83.1084 402.752 83.3722 402.752C83.7908 402.752 84.1502 402.816 84.4505 402.944C84.7598 403.071 85.0146 403.248 85.2148 403.476C85.4149 403.703 85.5605 403.981 85.6515 404.308C85.7516 404.627 85.8016 404.977 85.8016 405.359V409.304H84.7371V405.468C84.7371 404.932 84.6188 404.509 84.3822 404.199C84.1456 403.89 83.7771 403.735 83.2767 403.735C82.931 403.735 82.6307 403.794 82.3759 403.913C82.1303 404.031 81.9255 404.199 81.7618 404.418C81.6071 404.636 81.4888 404.895 81.4069 405.195C81.3341 405.496 81.2977 405.828 81.2977 406.192V409.304H80.2332V404.431ZM93.5219 408.143C93.1398 408.635 92.7212 408.981 92.2663 409.181C91.8113 409.372 91.2836 409.467 90.6831 409.467C90.1827 409.467 89.7323 409.381 89.3319 409.208C88.9316 409.026 88.5904 408.785 88.3083 408.485C88.0353 408.184 87.8215 407.83 87.6668 407.42C87.5213 407.011 87.4485 406.574 87.4485 406.11C87.4485 405.619 87.5304 405.168 87.6941 404.759C87.8579 404.34 88.0854 403.985 88.3765 403.694C88.6677 403.394 89.0135 403.162 89.4138 402.998C89.8142 402.834 90.2509 402.752 90.724 402.752C91.1699 402.752 91.5793 402.83 91.9524 402.984C92.3254 403.13 92.6439 403.348 92.9077 403.64C93.1807 403.922 93.39 404.272 93.5356 404.69C93.6811 405.1 93.7539 405.569 93.7539 406.096V406.437H88.5949C88.6131 406.71 88.6768 406.974 88.786 407.229C88.9043 407.475 89.0544 407.693 89.2364 407.884C89.4184 408.066 89.6322 408.212 89.8778 408.321C90.1235 408.43 90.3919 408.485 90.6831 408.485C91.1471 408.485 91.5384 408.403 91.8568 408.239C92.1753 408.075 92.4619 407.834 92.7167 407.516L93.5219 408.143ZM92.6075 405.537C92.5893 404.991 92.4119 404.554 92.0752 404.226C91.7385 403.899 91.2745 403.735 90.6831 403.735C90.0917 403.735 89.614 403.899 89.25 404.226C88.8861 404.554 88.6677 404.991 88.5949 405.537H92.6075ZM102.252 409.304H101.201L99.3861 404.39H99.3588L97.7483 409.304H96.6564L94.5819 402.916H95.7556L97.216 407.83H97.2433L98.8947 402.916H100.014L101.693 407.83H101.72L103.167 402.916H104.313L102.252 409.304ZM36.6028 426.513C36.3754 426.24 36.1297 426.044 35.8658 425.926C35.602 425.799 35.3108 425.735 34.9923 425.735C34.6375 425.735 34.3236 425.799 34.0506 425.926C33.7776 426.044 33.5502 426.213 33.3682 426.431C33.1953 426.65 33.0634 426.904 32.9724 427.195C32.8814 427.478 32.8359 427.782 32.8359 428.11C32.8359 428.437 32.886 428.747 32.9861 429.038C33.0952 429.32 33.2408 429.57 33.4228 429.789C33.6139 430.007 33.8413 430.18 34.1052 430.307C34.3691 430.426 34.6648 430.485 34.9923 430.485C35.6929 430.485 36.2343 430.221 36.6165 429.693L37.4081 430.444C37.0987 430.799 36.7348 431.058 36.3162 431.222C35.8977 431.385 35.4564 431.467 34.9923 431.467C34.501 431.467 34.0506 431.385 33.6412 431.222C33.2317 431.058 32.8814 430.826 32.5903 430.526C32.3082 430.225 32.0853 429.871 31.9215 429.461C31.7668 429.052 31.6895 428.601 31.6895 428.11C31.6895 427.628 31.7668 427.182 31.9215 426.772C32.0853 426.363 32.3127 426.008 32.6039 425.708C32.8951 425.408 33.2408 425.176 33.6412 425.012C34.0506 424.839 34.501 424.752 34.9923 424.752C35.4655 424.752 35.9113 424.834 36.3299 424.998C36.7575 425.162 37.1306 425.417 37.449 425.762L36.6028 426.513ZM38.2737 428.11C38.2737 427.609 38.3601 427.155 38.533 426.745C38.7059 426.336 38.9424 425.985 39.2427 425.694C39.5429 425.394 39.9023 425.162 40.3209 424.998C40.7394 424.834 41.1944 424.752 41.6857 424.752C42.177 424.752 42.632 424.834 43.0505 424.998C43.4691 425.162 43.8285 425.394 44.1287 425.694C44.429 425.985 44.6656 426.336 44.8384 426.745C45.0113 427.155 45.0978 427.609 45.0978 428.11C45.0978 428.61 45.0113 429.065 44.8384 429.475C44.6656 429.884 44.429 430.239 44.1287 430.539C43.8285 430.83 43.4691 431.058 43.0505 431.222C42.632 431.385 42.177 431.467 41.6857 431.467C41.1944 431.467 40.7394 431.385 40.3209 431.222C39.9023 431.058 39.5429 430.83 39.2427 430.539C38.9424 430.239 38.7059 429.884 38.533 429.475C38.3601 429.065 38.2737 428.61 38.2737 428.11ZM39.4201 428.11C39.4201 428.447 39.4702 428.76 39.5702 429.052C39.6794 429.334 39.8341 429.584 40.0343 429.802C40.2345 430.012 40.471 430.18 40.744 430.307C41.026 430.426 41.34 430.485 41.6857 430.485C42.0315 430.485 42.3408 430.426 42.6138 430.307C42.8958 430.18 43.137 430.012 43.3371 429.802C43.5373 429.584 43.6874 429.334 43.7875 429.052C43.8967 428.76 43.9513 428.447 43.9513 428.11C43.9513 427.773 43.8967 427.464 43.7875 427.182C43.6874 426.891 43.5373 426.64 43.3371 426.431C43.137 426.213 42.8958 426.044 42.6138 425.926C42.3408 425.799 42.0315 425.735 41.6857 425.735C41.34 425.735 41.026 425.799 40.744 425.926C40.471 426.044 40.2345 426.213 40.0343 426.431C39.8341 426.64 39.6794 426.891 39.5702 427.182C39.4702 427.464 39.4201 427.773 39.4201 428.11ZM46.7458 426.431C46.7458 426.14 46.7367 425.867 46.7185 425.612C46.7003 425.358 46.6912 425.126 46.6912 424.916H47.7011C47.7011 425.089 47.7057 425.262 47.7148 425.435C47.7239 425.608 47.7284 425.785 47.7284 425.967H47.7557C47.8285 425.812 47.9286 425.662 48.056 425.517C48.1925 425.371 48.3517 425.244 48.5337 425.135C48.7157 425.016 48.9204 424.925 49.1479 424.862C49.3753 424.789 49.621 424.752 49.8849 424.752C50.3034 424.752 50.6628 424.816 50.9631 424.944C51.2724 425.071 51.5272 425.248 51.7274 425.476C51.9275 425.703 52.0731 425.981 52.1641 426.308C52.2642 426.627 52.3142 426.977 52.3142 427.359V431.304H51.2497V427.468C51.2497 426.932 51.1314 426.509 50.8948 426.199C50.6583 425.89 50.2898 425.735 49.7893 425.735C49.4436 425.735 49.1433 425.794 48.8885 425.913C48.6429 426.031 48.4382 426.199 48.2744 426.418C48.1197 426.636 48.0014 426.895 47.9195 427.195C47.8467 427.496 47.8103 427.828 47.8103 428.192V431.304H46.7458V426.431ZM57.2366 431.304H56.0629L53.4561 424.916H54.6981L56.6907 429.925H56.718L58.6151 424.916H59.7616L57.2366 431.304ZM66.6187 430.143C66.2366 430.635 65.818 430.981 65.3631 431.181C64.9081 431.372 64.3804 431.467 63.7799 431.467C63.2795 431.467 62.8291 431.381 62.4287 431.208C62.0284 431.026 61.6872 430.785 61.4051 430.485C61.1321 430.184 60.9183 429.83 60.7636 429.42C60.6181 429.011 60.5453 428.574 60.5453 428.11C60.5453 427.619 60.6272 427.168 60.7909 426.759C60.9547 426.34 61.1822 425.985 61.4733 425.694C61.7645 425.394 62.1103 425.162 62.5106 424.998C62.911 424.834 63.3477 424.752 63.8208 424.752C64.2667 424.752 64.6761 424.83 65.0492 424.984C65.4222 425.13 65.7407 425.348 66.0045 425.64C66.2775 425.922 66.4868 426.272 66.6324 426.69C66.7779 427.1 66.8507 427.569 66.8507 428.096V428.437H61.6917C61.7099 428.71 61.7736 428.974 61.8828 429.229C62.0011 429.475 62.1512 429.693 62.3332 429.884C62.5152 430.066 62.729 430.212 62.9746 430.321C63.2203 430.43 63.4887 430.485 63.7799 430.485C64.2439 430.485 64.6352 430.403 64.9536 430.239C65.2721 430.075 65.5587 429.834 65.8135 429.516L66.6187 430.143ZM65.7043 427.537C65.6861 426.991 65.5087 426.554 65.172 426.226C64.8354 425.899 64.3713 425.735 63.7799 425.735C63.1885 425.735 62.7108 425.899 62.3468 426.226C61.9829 426.554 61.7645 426.991 61.6917 427.537H65.7043ZM68.4976 426.431C68.4976 426.14 68.4885 425.867 68.4703 425.612C68.4521 425.358 68.443 425.126 68.443 424.916H69.453C69.453 425.089 69.4575 425.262 69.4666 425.435C69.4757 425.608 69.4802 425.785 69.4802 425.967H69.5075C69.5803 425.812 69.6804 425.662 69.8078 425.517C69.9443 425.371 70.1035 425.244 70.2855 425.135C70.4675 425.016 70.6722 424.925 70.8997 424.862C71.1271 424.789 71.3728 424.752 71.6367 424.752C71.7095 424.752 71.7822 424.757 71.855 424.766C71.9278 424.775 72.0006 424.793 72.0734 424.821L72.0052 425.899C71.8232 425.844 71.6321 425.817 71.4319 425.817C70.7768 425.817 70.2991 426.031 69.9989 426.458C69.7077 426.877 69.5621 427.455 69.5621 428.192V431.304H68.4976V426.431ZM73.4323 429.625C73.6415 429.889 73.869 430.098 74.1147 430.253C74.3694 430.407 74.6879 430.485 75.07 430.485C75.2338 430.485 75.3976 430.466 75.5614 430.43C75.7343 430.394 75.8889 430.335 76.0254 430.253C76.1619 430.171 76.2711 430.071 76.353 429.952C76.4349 429.825 76.4758 429.675 76.4758 429.502C76.4758 429.329 76.4349 429.188 76.353 429.079C76.2802 428.97 76.1801 428.879 76.0527 428.806C75.9253 428.724 75.7797 428.66 75.616 428.615C75.4522 428.569 75.2839 428.528 75.111 428.492C74.8107 428.428 74.5241 428.356 74.2511 428.274C73.9782 428.192 73.7371 428.087 73.5278 427.96C73.3276 427.823 73.1638 427.65 73.0365 427.441C72.9182 427.232 72.859 426.963 72.859 426.636C72.859 426.327 72.9273 426.054 73.0638 425.817C73.2002 425.58 73.3822 425.385 73.6097 425.23C73.8372 425.075 74.0919 424.957 74.374 424.875C74.656 424.793 74.9472 424.752 75.2475 424.752C75.7024 424.752 76.121 424.843 76.5031 425.025C76.8943 425.207 77.1992 425.503 77.4175 425.913L76.5304 426.499C76.3939 426.272 76.2119 426.09 75.9845 425.953C75.7661 425.808 75.4977 425.735 75.1792 425.735C75.0336 425.735 74.8835 425.753 74.7288 425.79C74.5833 425.826 74.4513 425.881 74.333 425.953C74.2148 426.026 74.1147 426.122 74.0328 426.24C73.96 426.349 73.9236 426.477 73.9236 426.622C73.9236 426.759 73.9645 426.877 74.0464 426.977C74.1374 427.068 74.2557 427.15 74.4013 427.223C74.556 427.296 74.7288 427.359 74.9199 427.414C75.1201 427.468 75.3248 427.514 75.5341 427.55C75.8161 427.605 76.0846 427.678 76.3393 427.769C76.5941 427.851 76.817 427.964 77.0081 428.11C77.1992 428.255 77.3493 428.437 77.4585 428.656C77.5677 428.874 77.6223 429.143 77.6223 429.461C77.6223 429.825 77.5495 430.134 77.4039 430.389C77.2583 430.644 77.0627 430.853 76.817 431.017C76.5804 431.172 76.3075 431.285 75.9981 431.358C75.6979 431.431 75.3885 431.467 75.07 431.467C74.5241 431.467 74.051 431.385 73.6506 431.222C73.2594 431.049 72.9045 430.735 72.5861 430.28L73.4323 429.625ZM79.025 425.735C79.3526 425.398 79.7393 425.153 80.1851 424.998C80.6401 424.834 81.0996 424.752 81.5636 424.752C82.5099 424.752 83.1923 424.975 83.6108 425.421C84.0294 425.867 84.2386 426.545 84.2386 427.455V430.198C84.2386 430.38 84.2477 430.571 84.2659 430.771C84.2841 430.962 84.3069 431.14 84.3342 431.304H83.3106C83.2742 431.158 83.2514 430.999 83.2423 430.826C83.2423 430.644 83.2423 430.485 83.2423 430.348H83.215C83.0058 430.676 82.7237 430.944 82.3688 431.153C82.0231 431.363 81.6045 431.467 81.1132 431.467C80.7856 431.467 80.4763 431.426 80.1851 431.345C79.9031 431.263 79.6528 431.144 79.4345 430.99C79.2252 430.826 79.0569 430.626 78.9295 430.389C78.8021 430.153 78.7384 429.88 78.7384 429.57C78.7384 429.043 78.8749 428.629 79.1479 428.328C79.4208 428.028 79.7575 427.805 80.1578 427.66C80.5673 427.514 81.004 427.423 81.4681 427.387C81.9412 427.35 82.3734 427.332 82.7646 427.332H83.1741V427.141C83.1741 426.677 83.033 426.327 82.751 426.09C82.478 425.853 82.0913 425.735 81.5909 425.735C81.2451 425.735 80.9039 425.794 80.5673 425.913C80.2397 426.022 79.9486 426.195 79.6938 426.431L79.025 425.735ZM82.1095 428.233C81.4271 428.233 80.8857 428.328 80.4854 428.519C80.085 428.71 79.8849 429.024 79.8849 429.461C79.8849 429.861 80.0168 430.148 80.2807 430.321C80.5536 430.485 80.8903 430.567 81.2906 430.567C81.6 430.567 81.8684 430.517 82.0959 430.416C82.3324 430.307 82.5281 430.166 82.6827 429.993C82.8374 429.82 82.9557 429.62 83.0376 429.393C83.1195 429.156 83.165 428.906 83.1741 428.642V428.233H82.1095ZM89.6782 425.817H87.7947V429.011C87.7947 429.22 87.7993 429.416 87.8084 429.598C87.8175 429.77 87.8539 429.925 87.9176 430.062C87.9813 430.189 88.0768 430.294 88.2042 430.376C88.3316 430.448 88.5135 430.485 88.7501 430.485C88.9048 430.485 89.064 430.466 89.2278 430.43C89.3916 430.394 89.5463 430.339 89.6918 430.266L89.7328 431.235C89.5508 431.317 89.3461 431.376 89.1186 431.413C88.9002 431.449 88.691 431.467 88.4908 431.467C88.1086 431.467 87.8038 431.417 87.5764 431.317C87.3489 431.217 87.1715 431.076 87.0441 430.894C86.9167 430.712 86.8303 430.489 86.7848 430.225C86.7484 429.952 86.7302 429.652 86.7302 429.325V425.817H85.3381V424.916H86.7302V423.101H87.7947V424.916H89.6782V425.817ZM91.0913 424.916H92.1559V431.304H91.0913V424.916ZM90.8456 422.419C90.8456 422.209 90.9184 422.027 91.064 421.873C91.2187 421.718 91.4052 421.641 91.6236 421.641C91.842 421.641 92.0239 421.718 92.1695 421.873C92.3242 422.027 92.4015 422.209 92.4015 422.419C92.4015 422.646 92.3287 422.833 92.1832 422.978C92.0376 423.124 91.8511 423.197 91.6236 423.197C91.3961 423.197 91.2096 423.124 91.064 422.978C90.9184 422.833 90.8456 422.646 90.8456 422.419ZM93.906 428.11C93.906 427.609 93.9925 427.155 94.1654 426.745C94.3382 426.336 94.5748 425.985 94.8751 425.694C95.1753 425.394 95.5347 425.162 95.9533 424.998C96.3718 424.834 96.8268 424.752 97.3181 424.752C97.8094 424.752 98.2644 424.834 98.6829 424.998C99.1014 425.162 99.4609 425.394 99.7611 425.694C100.061 425.985 100.298 426.336 100.471 426.745C100.644 427.155 100.73 427.609 100.73 428.11C100.73 428.61 100.644 429.065 100.471 429.475C100.298 429.884 100.061 430.239 99.7611 430.539C99.4609 430.83 99.1014 431.058 98.6829 431.222C98.2644 431.385 97.8094 431.467 97.3181 431.467C96.8268 431.467 96.3718 431.385 95.9533 431.222C95.5347 431.058 95.1753 430.83 94.8751 430.539C94.5748 430.239 94.3382 429.884 94.1654 429.475C93.9925 429.065 93.906 428.61 93.906 428.11ZM95.0525 428.11C95.0525 428.447 95.1025 428.76 95.2026 429.052C95.3118 429.334 95.4665 429.584 95.6667 429.802C95.8668 430.012 96.1034 430.18 96.3764 430.307C96.6584 430.426 96.9723 430.485 97.3181 430.485C97.6638 430.485 97.9732 430.426 98.2462 430.307C98.5282 430.18 98.7693 430.012 98.9695 429.802C99.1697 429.584 99.3198 429.334 99.4199 429.052C99.5291 428.76 99.5837 428.447 99.5837 428.11C99.5837 427.773 99.5291 427.464 99.4199 427.182C99.3198 426.891 99.1697 426.64 98.9695 426.431C98.7693 426.213 98.5282 426.044 98.2462 425.926C97.9732 425.799 97.6638 425.735 97.3181 425.735C96.9723 425.735 96.6584 425.799 96.3764 425.926C96.1034 426.044 95.8668 426.213 95.6667 426.431C95.4665 426.64 95.3118 426.891 95.2026 427.182C95.1025 427.464 95.0525 427.773 95.0525 428.11ZM102.378 426.431C102.378 426.14 102.369 425.867 102.351 425.612C102.333 425.358 102.324 425.126 102.324 424.916H103.334C103.334 425.089 103.338 425.262 103.347 425.435C103.356 425.608 103.361 425.785 103.361 425.967H103.388C103.461 425.812 103.561 425.662 103.688 425.517C103.825 425.371 103.984 425.244 104.166 425.135C104.348 425.016 104.553 424.925 104.78 424.862C105.008 424.789 105.253 424.752 105.517 424.752C105.936 424.752 106.295 424.816 106.595 424.944C106.905 425.071 107.16 425.248 107.36 425.476C107.56 425.703 107.705 425.981 107.796 426.308C107.897 426.627 107.947 426.977 107.947 427.359V431.304H106.882V427.468C106.882 426.932 106.764 426.509 106.527 426.199C106.291 425.89 105.922 425.735 105.422 425.735C105.076 425.735 104.776 425.794 104.521 425.913C104.275 426.031 104.071 426.199 103.907 426.418C103.752 426.636 103.634 426.895 103.552 427.195C103.479 427.496 103.443 427.828 103.443 428.192V431.304H102.378V426.431Z" fill="white"/>
<g opacity="0.8">
<circle cx="70" cy="179.164" r="25.1639" stroke="url(#paint0_linear_38_6429)" stroke-width="1.3971"/>
<path d="M65.4268 171.189C65.4268 171.109 65.4586 171.032 65.5151 170.976C65.5716 170.919 65.6483 170.887 65.7283 170.887H80.7283C80.8082 170.887 80.8849 170.919 80.9414 170.976C80.998 171.032 81.0297 171.109 81.0297 171.189C81.0297 171.269 80.998 171.345 80.9414 171.402C80.8849 171.458 80.8082 171.49 80.7283 171.49H65.7283C65.6483 171.49 65.5716 171.458 65.5151 171.402C65.4586 171.345 65.4268 171.269 65.4268 171.189ZM65.7283 178.887H80.7283C80.8082 178.887 80.8849 178.919 80.9414 178.976C80.998 179.032 81.0297 179.109 81.0297 179.189C81.0297 179.269 80.998 179.345 80.9414 179.402C80.8849 179.458 80.8082 179.49 80.7283 179.49H65.7283C65.6483 179.49 65.5716 179.458 65.5151 179.402C65.4586 179.345 65.4268 179.269 65.4268 179.189C65.4268 179.109 65.4586 179.032 65.5151 178.976C65.5716 178.919 65.6483 178.887 65.7283 178.887ZM65.7283 186.887H80.7283C80.8082 186.887 80.8849 186.919 80.9414 186.976C80.998 187.032 81.0297 187.109 81.0297 187.189C81.0297 187.269 80.998 187.345 80.9414 187.402C80.8849 187.458 80.8082 187.49 80.7283 187.49H65.7283C65.6483 187.49 65.5716 187.458 65.5151 187.402C65.4586 187.345 65.4268 187.269 65.4268 187.189C65.4268 187.109 65.4586 187.032 65.5151 186.976C65.5716 186.919 65.6483 186.887 65.7283 186.887ZM58.7283 170.887H60.7283C60.8082 170.887 60.8849 170.919 60.9414 170.976C60.998 171.032 61.0297 171.109 61.0297 171.189C61.0297 171.269 60.998 171.345 60.9414 171.402C60.8849 171.458 60.8082 171.49 60.7283 171.49H58.7283C58.6483 171.49 58.5716 171.458 58.5151 171.402C58.4586 171.345 58.4268 171.269 58.4268 171.189C58.4268 171.109 58.4586 171.032 58.5151 170.976C58.5716 170.919 58.6483 170.887 58.7283 170.887ZM58.7283 178.887H60.7283C60.8082 178.887 60.8849 178.919 60.9414 178.976C60.998 179.032 61.0297 179.109 61.0297 179.189C61.0297 179.269 60.998 179.345 60.9414 179.402C60.8849 179.458 60.8082 179.49 60.7283 179.49H58.7283C58.6483 179.49 58.5716 179.458 58.5151 179.402C58.4586 179.345 58.4268 179.269 58.4268 179.189C58.4268 179.109 58.4586 179.032 58.5151 178.976C58.5716 178.919 58.6483 178.887 58.7283 178.887ZM58.7283 186.887H60.7283C60.8082 186.887 60.8849 186.919 60.9414 186.976C60.998 187.032 61.0297 187.109 61.0297 187.189C61.0297 187.269 60.998 187.345 60.9414 187.402C60.8849 187.458 60.8082 187.49 60.7283 187.49H58.7283C58.6483 187.49 58.5716 187.458 58.5151 187.402C58.4586 187.345 58.4268 187.269 58.4268 187.189C58.4268 187.109 58.4586 187.032 58.5151 186.976C58.5716 186.919 58.6483 186.887 58.7283 186.887Z" stroke="url(#paint1_linear_38_6429)" stroke-width="1.3971"/>
</g>
<g opacity="0.8">
<circle cx="70" cy="362.316" r="26.2424" stroke="url(#paint2_linear_38_6429)" stroke-width="2.15712"/>
<path d="M71.5 362C71.5 362.297 71.412 362.587 71.2472 362.833C71.0824 363.08 70.8481 363.272 70.574 363.386C70.2999 363.499 69.9983 363.529 69.7074 363.471C69.4164 363.413 69.1491 363.27 68.9393 363.061C68.7296 362.851 68.5867 362.584 68.5288 362.293C68.4709 362.002 68.5006 361.7 68.6142 361.426C68.7277 361.152 68.92 360.918 69.1666 360.753C69.4133 360.588 69.7033 360.5 70 360.5C70.3978 360.5 70.7794 360.658 71.0607 360.939C71.342 361.221 71.5 361.602 71.5 362ZM64.5 360.5C64.2033 360.5 63.9133 360.588 63.6666 360.753C63.42 360.918 63.2277 361.152 63.1142 361.426C63.0006 361.7 62.9709 362.002 63.0288 362.293C63.0867 362.584 63.2296 362.851 63.4393 363.061C63.6491 363.27 63.9164 363.413 64.2074 363.471C64.4983 363.529 64.7999 363.499 65.074 363.386C65.3481 363.272 65.5824 363.08 65.7472 362.833C65.912 362.587 66 362.297 66 362C66 361.602 65.842 361.221 65.5607 360.939C65.2794 360.658 64.8978 360.5 64.5 360.5ZM75.5 360.5C75.2033 360.5 74.9133 360.588 74.6666 360.753C74.42 360.918 74.2277 361.152 74.1142 361.426C74.0007 361.7 73.9709 362.002 74.0288 362.293C74.0867 362.584 74.2296 362.851 74.4393 363.061C74.6491 363.27 74.9164 363.413 75.2074 363.471C75.4983 363.529 75.7999 363.499 76.074 363.386C76.3481 363.272 76.5824 363.08 76.7472 362.833C76.912 362.587 77 362.297 77 362C77 361.602 76.842 361.221 76.5607 360.939C76.2794 360.658 75.8978 360.5 75.5 360.5ZM83 362C83.0005 364.244 82.4199 366.451 81.3147 368.404C80.2095 370.358 78.6174 371.992 76.6934 373.147C74.7693 374.303 72.5788 374.941 70.3352 374.999C68.0915 375.056 65.8711 374.532 63.89 373.478L59.6337 374.896C59.2814 375.014 58.9032 375.031 58.5417 374.946C58.1801 374.86 57.8495 374.676 57.5868 374.413C57.3241 374.151 57.1398 373.82 57.0545 373.458C56.9692 373.097 56.9862 372.719 57.1037 372.366L58.5225 368.11C57.5952 366.367 57.0772 364.435 57.008 362.461C56.9387 360.488 57.32 358.524 58.1228 356.72C58.9257 354.916 60.129 353.318 61.6414 352.049C63.1538 350.779 64.9356 349.871 66.8516 349.392C68.7675 348.914 70.7672 348.879 72.699 349.289C74.6307 349.699 76.4436 350.543 78.0001 351.759C79.5566 352.974 80.8158 354.528 81.6822 356.302C82.5485 358.077 82.9992 360.025 83 362ZM81 362C80.9995 360.313 80.6109 358.648 79.8641 357.135C79.1174 355.622 78.0325 354.301 76.6935 353.274C75.3545 352.247 73.7973 351.542 72.1422 351.214C70.4872 350.885 68.7787 350.942 67.149 351.379C65.5194 351.816 64.0121 352.623 62.7439 353.736C61.4758 354.849 60.4806 356.239 59.8356 357.798C59.1905 359.357 58.9128 361.044 59.0239 362.727C59.135 364.411 59.6319 366.047 60.4762 367.508C60.5471 367.63 60.5911 367.766 60.6053 367.907C60.6196 368.048 60.6037 368.191 60.5587 368.325L59 373L63.675 371.441C63.7768 371.407 63.8837 371.389 63.9912 371.389C64.1669 371.389 64.3393 371.436 64.4912 371.524C66.1635 372.491 68.0611 373.001 69.9931 373.003C71.925 373.004 73.8232 372.496 75.4967 371.531C77.1702 370.565 78.5599 369.176 79.526 367.503C80.492 365.83 81.0004 363.932 81 362Z" fill="url(#paint3_linear_38_6429)"/>
</g>
<defs>
<linearGradient id="paint0_linear_38_6429" x1="44.8362" y1="179.164" x2="88.2817" y2="179.164" gradientUnits="userSpaceOnUse">
<stop stop-color="#FFDDBD"/>
<stop offset="1" stop-color="#E59E5F"/>
</linearGradient>
<linearGradient id="paint1_linear_38_6429" x1="57.7283" y1="179.189" x2="78.4463" y2="179.189" gradientUnits="userSpaceOnUse">
<stop stop-color="#FFDDBD"/>
<stop offset="1" stop-color="#E59E5F"/>
</linearGradient>
<linearGradient id="paint2_linear_38_6429" x1="44.8362" y1="362.316" x2="88.2817" y2="362.316" gradientUnits="userSpaceOnUse">
<stop stop-color="#FFDDBD"/>
<stop offset="1" stop-color="#E59E5F"/>
</linearGradient>
<linearGradient id="paint3_linear_38_6429" x1="57" y1="362.004" x2="79.4446" y2="362.004" gradientUnits="userSpaceOnUse">
<stop stop-color="#FFDDBD"/>
<stop offset="1" stop-color="#E59E5F"/>
</linearGradient>
</defs>
</svg>
