<svg width="620" height="157" viewBox="0 0 620 157" fill="none" xmlns="http://www.w3.org/2000/svg">
<path d="M48 62.898V51.8993L53.0505 48L566.837 48L572 54.5118V102.232L561.502 109H53.0505L48 102.661V72.1932" stroke="url(#paint0_radial_5_1785)" stroke-width="2"/>
<g filter="url(#filter0_bf_5_1785)">
<path d="M48 51.8993V62.898V72.1932V102.661L53.0505 109H561.502L572 102.232V54.5118L566.837 48H53.0505L48 51.8993Z" fill="#2A7D82" fill-opacity="0.08"/>
</g>
<path d="M135.889 70.84H137.569V76.84H145.129V70.84H146.809V85H145.129V78.4H137.569V85H135.889V70.84ZM149.503 80.32C149.503 79.5867 149.629 78.92 149.882 78.32C150.136 77.72 150.483 77.2067 150.923 76.78C151.363 76.34 151.889 76 152.503 75.76C153.116 75.52 153.783 75.4 154.503 75.4C155.223 75.4 155.889 75.52 156.503 75.76C157.116 76 157.643 76.34 158.083 76.78C158.523 77.2067 158.869 77.72 159.122 78.32C159.376 78.92 159.503 79.5867 159.503 80.32C159.503 81.0533 159.376 81.72 159.122 82.32C158.869 82.92 158.523 83.44 158.083 83.88C157.643 84.3067 157.116 84.64 156.503 84.88C155.889 85.12 155.223 85.24 154.503 85.24C153.783 85.24 153.116 85.12 152.503 84.88C151.889 84.64 151.363 84.3067 150.923 83.88C150.483 83.44 150.136 82.92 149.882 82.32C149.629 81.72 149.503 81.0533 149.503 80.32ZM151.183 80.32C151.183 80.8133 151.256 81.2733 151.403 81.7C151.563 82.1133 151.789 82.48 152.083 82.8C152.376 83.1067 152.723 83.3533 153.123 83.54C153.536 83.7133 153.996 83.8 154.503 83.8C155.009 83.8 155.463 83.7133 155.863 83.54C156.276 83.3533 156.629 83.1067 156.923 82.8C157.216 82.48 157.436 82.1133 157.583 81.7C157.743 81.2733 157.823 80.8133 157.823 80.32C157.823 79.8267 157.743 79.3733 157.583 78.96C157.436 78.5333 157.216 78.1667 156.923 77.86C156.629 77.54 156.276 77.2933 155.863 77.12C155.463 76.9333 155.009 76.84 154.503 76.84C153.996 76.84 153.536 76.9333 153.123 77.12C152.723 77.2933 152.376 77.54 152.083 77.86C151.789 78.1667 151.563 78.5333 151.403 78.96C151.256 79.3733 151.183 79.8267 151.183 80.32ZM171.958 85H170.418L167.758 77.8H167.718L165.358 85H163.758L160.718 75.64H162.438L164.578 82.84H164.618L167.038 75.64H168.678L171.138 82.84H171.178L173.298 75.64H174.978L171.958 85ZM187.428 76.96H184.668V81.64C184.668 81.9467 184.675 82.2333 184.688 82.5C184.701 82.7533 184.755 82.98 184.848 83.18C184.941 83.3667 185.081 83.52 185.268 83.64C185.455 83.7467 185.721 83.8 186.068 83.8C186.295 83.8 186.528 83.7733 186.768 83.72C187.008 83.6667 187.235 83.5867 187.448 83.48L187.508 84.9C187.241 85.02 186.941 85.1067 186.608 85.16C186.288 85.2133 185.981 85.24 185.688 85.24C185.128 85.24 184.681 85.1667 184.348 85.02C184.015 84.8733 183.755 84.6667 183.568 84.4C183.381 84.1333 183.255 83.8067 183.188 83.42C183.135 83.02 183.108 82.58 183.108 82.1V76.96H181.068V75.64H183.108V72.98H184.668V75.64H187.428V76.96ZM188.799 80.32C188.799 79.5867 188.926 78.92 189.179 78.32C189.433 77.72 189.779 77.2067 190.219 76.78C190.659 76.34 191.186 76 191.799 75.76C192.413 75.52 193.079 75.4 193.799 75.4C194.519 75.4 195.186 75.52 195.799 75.76C196.413 76 196.939 76.34 197.379 76.78C197.819 77.2067 198.166 77.72 198.419 78.32C198.673 78.92 198.799 79.5867 198.799 80.32C198.799 81.0533 198.673 81.72 198.419 82.32C198.166 82.92 197.819 83.44 197.379 83.88C196.939 84.3067 196.413 84.64 195.799 84.88C195.186 85.12 194.519 85.24 193.799 85.24C193.079 85.24 192.413 85.12 191.799 84.88C191.186 84.64 190.659 84.3067 190.219 83.88C189.779 83.44 189.433 82.92 189.179 82.32C188.926 81.72 188.799 81.0533 188.799 80.32ZM190.479 80.32C190.479 80.8133 190.553 81.2733 190.699 81.7C190.859 82.1133 191.086 82.48 191.379 82.8C191.673 83.1067 192.019 83.3533 192.419 83.54C192.833 83.7133 193.293 83.8 193.799 83.8C194.306 83.8 194.759 83.7133 195.159 83.54C195.573 83.3533 195.926 83.1067 196.219 82.8C196.513 82.48 196.733 82.1133 196.879 81.7C197.039 81.2733 197.119 80.8133 197.119 80.32C197.119 79.8267 197.039 79.3733 196.879 78.96C196.733 78.5333 196.513 78.1667 196.219 77.86C195.926 77.54 195.573 77.2933 195.159 77.12C194.759 76.9333 194.306 76.84 193.799 76.84C193.293 76.84 192.833 76.9333 192.419 77.12C192.019 77.2933 191.673 77.54 191.379 77.86C191.086 78.1667 190.859 78.5333 190.699 78.96C190.553 79.3733 190.479 79.8267 190.479 80.32ZM206.781 77.86C206.781 77.4333 206.767 77.0333 206.741 76.66C206.714 76.2867 206.701 75.9467 206.701 75.64H208.181C208.181 75.8933 208.187 76.1467 208.201 76.4C208.214 76.6533 208.221 76.9133 208.221 77.18H208.261C208.367 76.9533 208.514 76.7333 208.701 76.52C208.901 76.3067 209.134 76.12 209.401 75.96C209.667 75.7867 209.967 75.6533 210.301 75.56C210.634 75.4533 210.994 75.4 211.381 75.4C211.487 75.4 211.594 75.4067 211.701 75.42C211.807 75.4333 211.914 75.46 212.021 75.5L211.921 77.08C211.654 77 211.374 76.96 211.081 76.96C210.121 76.96 209.421 77.2733 208.981 77.9C208.554 78.5133 208.341 79.36 208.341 80.44V85H206.781V77.86ZM213.692 76.84C214.172 76.3467 214.739 75.9867 215.392 75.76C216.059 75.52 216.732 75.4 217.412 75.4C218.799 75.4 219.799 75.7267 220.412 76.38C221.025 77.0333 221.332 78.0267 221.332 79.36V83.38C221.332 83.6467 221.345 83.9267 221.372 84.22C221.399 84.5 221.432 84.76 221.472 85H219.972C219.919 84.7867 219.885 84.5533 219.872 84.3C219.872 84.0333 219.872 83.8 219.872 83.6H219.832C219.525 84.08 219.112 84.4733 218.592 84.78C218.085 85.0867 217.472 85.24 216.752 85.24C216.272 85.24 215.819 85.18 215.392 85.06C214.979 84.94 214.612 84.7667 214.292 84.54C213.985 84.3 213.739 84.0067 213.552 83.66C213.365 83.3133 213.272 82.9133 213.272 82.46C213.272 81.6867 213.472 81.08 213.872 80.64C214.272 80.2 214.765 79.8733 215.352 79.66C215.952 79.4467 216.592 79.3133 217.272 79.26C217.965 79.2067 218.599 79.18 219.172 79.18H219.772V78.9C219.772 78.22 219.565 77.7067 219.152 77.36C218.752 77.0133 218.185 76.84 217.452 76.84C216.945 76.84 216.445 76.9267 215.952 77.1C215.472 77.26 215.045 77.5133 214.672 77.86L213.692 76.84ZM218.212 80.5C217.212 80.5 216.419 80.64 215.832 80.92C215.245 81.2 214.952 81.66 214.952 82.3C214.952 82.8867 215.145 83.3067 215.532 83.56C215.932 83.8 216.425 83.92 217.012 83.92C217.465 83.92 217.859 83.8467 218.192 83.7C218.539 83.54 218.825 83.3333 219.052 83.08C219.279 82.8267 219.452 82.5333 219.572 82.2C219.692 81.8533 219.759 81.4867 219.772 81.1V80.5H218.212ZM224.323 75.64H225.883V85H224.323V75.64ZM223.963 71.98C223.963 71.6733 224.07 71.4067 224.283 71.18C224.51 70.9533 224.783 70.84 225.103 70.84C225.423 70.84 225.69 70.9533 225.903 71.18C226.13 71.4067 226.243 71.6733 226.243 71.98C226.243 72.3133 226.136 72.5867 225.923 72.8C225.71 73.0133 225.436 73.12 225.103 73.12C224.77 73.12 224.496 73.0133 224.283 72.8C224.07 72.5867 223.963 72.3133 223.963 71.98ZM229.188 82.54C229.494 82.9267 229.828 83.2333 230.188 83.46C230.561 83.6867 231.028 83.8 231.588 83.8C231.828 83.8 232.068 83.7733 232.308 83.72C232.561 83.6667 232.788 83.58 232.988 83.46C233.188 83.34 233.348 83.1933 233.468 83.02C233.588 82.8333 233.648 82.6133 233.648 82.36C233.648 82.1067 233.588 81.9 233.468 81.74C233.361 81.58 233.214 81.4467 233.028 81.34C232.841 81.22 232.628 81.1267 232.388 81.06C232.148 80.9933 231.901 80.9333 231.648 80.88C231.208 80.7867 230.788 80.68 230.388 80.56C229.988 80.44 229.634 80.2867 229.328 80.1C229.034 79.9 228.794 79.6467 228.608 79.34C228.434 79.0333 228.348 78.64 228.348 78.16C228.348 77.7067 228.448 77.3067 228.648 76.96C228.848 76.6133 229.114 76.3267 229.448 76.1C229.781 75.8733 230.154 75.7 230.568 75.58C230.981 75.46 231.408 75.4 231.848 75.4C232.514 75.4 233.128 75.5333 233.688 75.8C234.261 76.0667 234.708 76.5 235.028 77.1L233.728 77.96C233.528 77.6267 233.261 77.36 232.928 77.16C232.608 76.9467 232.214 76.84 231.748 76.84C231.534 76.84 231.314 76.8667 231.088 76.92C230.874 76.9733 230.681 77.0533 230.508 77.16C230.334 77.2667 230.188 77.4067 230.068 77.58C229.961 77.74 229.908 77.9267 229.908 78.14C229.908 78.34 229.968 78.5133 230.088 78.66C230.221 78.7933 230.394 78.9133 230.608 79.02C230.834 79.1267 231.088 79.22 231.368 79.3C231.661 79.38 231.961 79.4467 232.268 79.5C232.681 79.58 233.074 79.6867 233.448 79.82C233.821 79.94 234.148 80.1067 234.428 80.32C234.708 80.5333 234.928 80.8 235.088 81.12C235.248 81.44 235.328 81.8333 235.328 82.3C235.328 82.8333 235.221 83.2867 235.008 83.66C234.794 84.0333 234.508 84.34 234.148 84.58C233.801 84.8067 233.401 84.9733 232.948 85.08C232.508 85.1867 232.054 85.24 231.588 85.24C230.788 85.24 230.094 85.12 229.508 84.88C228.934 84.6267 228.414 84.1667 227.948 83.5L229.188 82.54ZM245.863 83.3C245.303 84.02 244.69 84.5267 244.023 84.82C243.357 85.1 242.583 85.24 241.703 85.24C240.97 85.24 240.31 85.1133 239.723 84.86C239.137 84.5933 238.637 84.24 238.223 83.8C237.823 83.36 237.51 82.84 237.283 82.24C237.07 81.64 236.963 81 236.963 80.32C236.963 79.6 237.083 78.94 237.323 78.34C237.563 77.7267 237.897 77.2067 238.323 76.78C238.75 76.34 239.257 76 239.843 75.76C240.43 75.52 241.07 75.4 241.763 75.4C242.417 75.4 243.017 75.5133 243.563 75.74C244.11 75.9533 244.577 76.2733 244.963 76.7C245.363 77.1133 245.67 77.6267 245.883 78.24C246.097 78.84 246.203 79.5267 246.203 80.3V80.8H238.643C238.67 81.2 238.763 81.5867 238.923 81.96C239.097 82.32 239.317 82.64 239.583 82.92C239.85 83.1867 240.163 83.4 240.523 83.56C240.883 83.72 241.277 83.8 241.703 83.8C242.383 83.8 242.957 83.68 243.423 83.44C243.89 83.2 244.31 82.8467 244.683 82.38L245.863 83.3ZM244.523 79.48C244.497 78.68 244.237 78.04 243.743 77.56C243.25 77.08 242.57 76.84 241.703 76.84C240.837 76.84 240.137 77.08 239.603 77.56C239.07 78.04 238.75 78.68 238.643 79.48H244.523ZM254.983 76.96H252.943V75.64H254.983V73.54C254.983 72.9667 255.036 72.4467 255.143 71.98C255.25 71.5 255.43 71.0867 255.683 70.74C255.95 70.3933 256.296 70.1267 256.723 69.94C257.15 69.74 257.676 69.64 258.303 69.64C258.503 69.64 258.716 69.66 258.943 69.7C259.17 69.74 259.356 69.8 259.503 69.88L259.283 71.28C258.91 71.1467 258.556 71.08 258.223 71.08C257.823 71.08 257.51 71.1533 257.283 71.3C257.056 71.4333 256.883 71.6267 256.763 71.88C256.656 72.12 256.59 72.4133 256.563 72.76C256.55 73.1067 256.543 73.48 256.543 73.88V75.64H258.823V76.96H256.543V85H254.983V76.96ZM268.652 82.78C268.652 83.2067 268.665 83.6067 268.692 83.98C268.718 84.3533 268.732 84.6933 268.732 85H267.252C267.252 84.7467 267.245 84.4933 267.232 84.24C267.218 83.9867 267.212 83.7267 267.212 83.46H267.172C267.065 83.6867 266.912 83.9067 266.712 84.12C266.525 84.3333 266.298 84.5267 266.032 84.7C265.765 84.86 265.465 84.9867 265.132 85.08C264.798 85.1867 264.438 85.24 264.052 85.24C263.438 85.24 262.905 85.1467 262.452 84.96C262.012 84.7733 261.645 84.5133 261.352 84.18C261.058 83.8467 260.838 83.4467 260.692 82.98C260.558 82.5 260.492 81.98 260.492 81.42V75.64H262.052V81.26C262.052 82.0467 262.225 82.6667 262.572 83.12C262.918 83.5733 263.458 83.8 264.192 83.8C264.698 83.8 265.132 83.7133 265.492 83.54C265.865 83.3667 266.165 83.12 266.392 82.8C266.632 82.48 266.805 82.1 266.912 81.66C267.032 81.22 267.092 80.7333 267.092 80.2V75.64H268.652V82.78ZM271.605 77.86C271.605 77.4333 271.592 77.0333 271.565 76.66C271.538 76.2867 271.525 75.9467 271.525 75.64H273.005C273.005 75.8933 273.012 76.1467 273.025 76.4C273.038 76.6533 273.045 76.9133 273.045 77.18H273.085C273.192 76.9533 273.338 76.7333 273.525 76.52C273.725 76.3067 273.958 76.12 274.225 75.96C274.492 75.7867 274.792 75.6533 275.125 75.56C275.458 75.4533 275.818 75.4 276.205 75.4C276.818 75.4 277.345 75.4933 277.785 75.68C278.238 75.8667 278.612 76.1267 278.905 76.46C279.198 76.7933 279.412 77.2 279.545 77.68C279.692 78.1467 279.765 78.66 279.765 79.22V85H278.205V79.38C278.205 78.5933 278.032 77.9733 277.685 77.52C277.338 77.0667 276.798 76.84 276.065 76.84C275.558 76.84 275.118 76.9267 274.745 77.1C274.385 77.2733 274.085 77.52 273.845 77.84C273.618 78.16 273.445 78.54 273.325 78.98C273.218 79.42 273.165 79.9067 273.165 80.44V85H271.605V77.86ZM290.498 83.34H290.458C290.165 83.8733 289.698 84.3267 289.058 84.7C288.432 85.06 287.698 85.24 286.858 85.24C286.205 85.24 285.592 85.12 285.018 84.88C284.445 84.6267 283.945 84.28 283.518 83.84C283.105 83.4 282.778 82.88 282.538 82.28C282.298 81.68 282.178 81.0267 282.178 80.32C282.178 79.6133 282.298 78.96 282.538 78.36C282.778 77.76 283.112 77.24 283.538 76.8C283.965 76.36 284.478 76.02 285.078 75.78C285.692 75.5267 286.365 75.4 287.098 75.4C287.778 75.4 288.398 75.54 288.958 75.82C289.532 76.1 290.032 76.4933 290.458 77H290.498V69.88H292.058V85H290.498V83.34ZM290.498 80.32C290.498 79.8267 290.418 79.3733 290.258 78.96C290.112 78.5333 289.892 78.1667 289.598 77.86C289.305 77.54 288.952 77.2933 288.538 77.12C288.138 76.9333 287.685 76.84 287.178 76.84C286.672 76.84 286.212 76.9333 285.798 77.12C285.398 77.2933 285.052 77.54 284.758 77.86C284.465 78.1667 284.238 78.5333 284.078 78.96C283.932 79.3733 283.858 79.8267 283.858 80.32C283.858 80.8133 283.932 81.2733 284.078 81.7C284.238 82.1133 284.465 82.48 284.758 82.8C285.052 83.1067 285.398 83.3533 285.798 83.54C286.212 83.7133 286.672 83.8 287.178 83.8C287.685 83.8 288.138 83.7133 288.538 83.54C288.952 83.3533 289.305 83.1067 289.598 82.8C289.892 82.48 290.112 82.1133 290.258 81.7C290.418 81.2733 290.498 80.8133 290.498 80.32ZM295.145 82.54C295.452 82.9267 295.785 83.2333 296.145 83.46C296.518 83.6867 296.985 83.8 297.545 83.8C297.785 83.8 298.025 83.7733 298.265 83.72C298.518 83.6667 298.745 83.58 298.945 83.46C299.145 83.34 299.305 83.1933 299.425 83.02C299.545 82.8333 299.605 82.6133 299.605 82.36C299.605 82.1067 299.545 81.9 299.425 81.74C299.318 81.58 299.172 81.4467 298.985 81.34C298.798 81.22 298.585 81.1267 298.345 81.06C298.105 80.9933 297.858 80.9333 297.605 80.88C297.165 80.7867 296.745 80.68 296.345 80.56C295.945 80.44 295.592 80.2867 295.285 80.1C294.992 79.9 294.752 79.6467 294.565 79.34C294.392 79.0333 294.305 78.64 294.305 78.16C294.305 77.7067 294.405 77.3067 294.605 76.96C294.805 76.6133 295.072 76.3267 295.405 76.1C295.738 75.8733 296.112 75.7 296.525 75.58C296.938 75.46 297.365 75.4 297.805 75.4C298.472 75.4 299.085 75.5333 299.645 75.8C300.218 76.0667 300.665 76.5 300.985 77.1L299.685 77.96C299.485 77.6267 299.218 77.36 298.885 77.16C298.565 76.9467 298.172 76.84 297.705 76.84C297.492 76.84 297.272 76.8667 297.045 76.92C296.832 76.9733 296.638 77.0533 296.465 77.16C296.292 77.2667 296.145 77.4067 296.025 77.58C295.918 77.74 295.865 77.9267 295.865 78.14C295.865 78.34 295.925 78.5133 296.045 78.66C296.178 78.7933 296.352 78.9133 296.565 79.02C296.792 79.1267 297.045 79.22 297.325 79.3C297.618 79.38 297.918 79.4467 298.225 79.5C298.638 79.58 299.032 79.6867 299.405 79.82C299.778 79.94 300.105 80.1067 300.385 80.32C300.665 80.5333 300.885 80.8 301.045 81.12C301.205 81.44 301.285 81.8333 301.285 82.3C301.285 82.8333 301.178 83.2867 300.965 83.66C300.752 84.0333 300.465 84.34 300.105 84.58C299.758 84.8067 299.358 84.9733 298.905 85.08C298.465 85.1867 298.012 85.24 297.545 85.24C296.745 85.24 296.052 85.12 295.465 84.88C294.892 84.6267 294.372 84.1667 293.905 83.5L295.145 82.54ZM309.827 76.96H307.787V75.64H309.827V73.54C309.827 72.9667 309.88 72.4467 309.987 71.98C310.094 71.5 310.274 71.0867 310.527 70.74C310.794 70.3933 311.14 70.1267 311.567 69.94C311.994 69.74 312.52 69.64 313.147 69.64C313.347 69.64 313.56 69.66 313.787 69.7C314.014 69.74 314.2 69.8 314.347 69.88L314.127 71.28C313.754 71.1467 313.4 71.08 313.067 71.08C312.667 71.08 312.354 71.1533 312.127 71.3C311.9 71.4333 311.727 71.6267 311.607 71.88C311.5 72.12 311.434 72.4133 311.407 72.76C311.394 73.1067 311.387 73.48 311.387 73.88V75.64H313.667V76.96H311.387V85H309.827V76.96ZM314.795 80.32C314.795 79.5867 314.922 78.92 315.175 78.32C315.429 77.72 315.775 77.2067 316.215 76.78C316.655 76.34 317.182 76 317.795 75.76C318.409 75.52 319.075 75.4 319.795 75.4C320.515 75.4 321.182 75.52 321.795 75.76C322.409 76 322.935 76.34 323.375 76.78C323.815 77.2067 324.162 77.72 324.415 78.32C324.669 78.92 324.795 79.5867 324.795 80.32C324.795 81.0533 324.669 81.72 324.415 82.32C324.162 82.92 323.815 83.44 323.375 83.88C322.935 84.3067 322.409 84.64 321.795 84.88C321.182 85.12 320.515 85.24 319.795 85.24C319.075 85.24 318.409 85.12 317.795 84.88C317.182 84.64 316.655 84.3067 316.215 83.88C315.775 83.44 315.429 82.92 315.175 82.32C314.922 81.72 314.795 81.0533 314.795 80.32ZM316.475 80.32C316.475 80.8133 316.549 81.2733 316.695 81.7C316.855 82.1133 317.082 82.48 317.375 82.8C317.669 83.1067 318.015 83.3533 318.415 83.54C318.829 83.7133 319.289 83.8 319.795 83.8C320.302 83.8 320.755 83.7133 321.155 83.54C321.569 83.3533 321.922 83.1067 322.215 82.8C322.509 82.48 322.729 82.1133 322.875 81.7C323.035 81.2733 323.115 80.8133 323.115 80.32C323.115 79.8267 323.035 79.3733 322.875 78.96C322.729 78.5333 322.509 78.1667 322.215 77.86C321.922 77.54 321.569 77.2933 321.155 77.12C320.755 76.9333 320.302 76.84 319.795 76.84C319.289 76.84 318.829 76.9333 318.415 77.12C318.015 77.2933 317.669 77.54 317.375 77.86C317.082 78.1667 316.855 78.5333 316.695 78.96C316.549 79.3733 316.475 79.8267 316.475 80.32ZM327.21 77.86C327.21 77.4333 327.197 77.0333 327.17 76.66C327.144 76.2867 327.13 75.9467 327.13 75.64H328.61C328.61 75.8933 328.617 76.1467 328.63 76.4C328.644 76.6533 328.65 76.9133 328.65 77.18H328.69C328.797 76.9533 328.944 76.7333 329.13 76.52C329.33 76.3067 329.564 76.12 329.83 75.96C330.097 75.7867 330.397 75.6533 330.73 75.56C331.064 75.4533 331.424 75.4 331.81 75.4C331.917 75.4 332.024 75.4067 332.13 75.42C332.237 75.4333 332.344 75.46 332.45 75.5L332.35 77.08C332.084 77 331.804 76.96 331.51 76.96C330.55 76.96 329.85 77.2733 329.41 77.9C328.984 78.5133 328.77 79.36 328.77 80.44V85H327.21V77.86ZM339.808 77.86C339.808 77.4333 339.795 77.0333 339.768 76.66C339.741 76.2867 339.728 75.9467 339.728 75.64H341.208C341.208 75.8933 341.215 76.1467 341.228 76.4C341.241 76.6533 341.248 76.9133 341.248 77.18H341.288C341.395 76.9533 341.541 76.7333 341.728 76.52C341.928 76.3067 342.161 76.12 342.428 75.96C342.695 75.7867 342.995 75.6533 343.328 75.56C343.661 75.4533 344.021 75.4 344.408 75.4C344.915 75.4 345.335 75.4667 345.668 75.6C346.015 75.72 346.301 75.8733 346.528 76.06C346.755 76.2333 346.928 76.4267 347.048 76.64C347.181 76.84 347.288 77.02 347.368 77.18C347.715 76.62 348.115 76.1867 348.568 75.88C349.021 75.56 349.608 75.4 350.328 75.4C350.995 75.4 351.555 75.4933 352.008 75.68C352.461 75.8533 352.828 76.1133 353.108 76.46C353.388 76.7933 353.588 77.2067 353.708 77.7C353.828 78.18 353.888 78.72 353.888 79.32V85H352.328V79.4C352.328 79.08 352.295 78.7667 352.228 78.46C352.161 78.1533 352.041 77.88 351.868 77.64C351.695 77.4 351.461 77.2067 351.168 77.06C350.875 76.9133 350.501 76.84 350.048 76.84C349.715 76.84 349.401 76.9067 349.108 77.04C348.815 77.1733 348.555 77.36 348.328 77.6C348.115 77.84 347.941 78.1333 347.808 78.48C347.688 78.8133 347.628 79.1867 347.628 79.6V85H346.068V79.7C346.068 78.66 345.928 77.9267 345.648 77.5C345.368 77.06 344.908 76.84 344.268 76.84C343.761 76.84 343.321 76.9267 342.948 77.1C342.588 77.2733 342.288 77.52 342.048 77.84C341.821 78.16 341.648 78.54 341.528 78.98C341.421 79.42 341.368 79.9067 341.368 80.44V85H339.808V77.86ZM360.279 87.14C360.119 87.54 359.953 87.9 359.779 88.22C359.619 88.5533 359.419 88.8333 359.179 89.06C358.953 89.3 358.673 89.48 358.339 89.6C358.019 89.7333 357.626 89.8 357.159 89.8C356.933 89.8 356.693 89.7867 356.439 89.76C356.199 89.7333 355.973 89.6667 355.759 89.56L355.959 88.2C356.119 88.2667 356.286 88.3067 356.459 88.32C356.633 88.3467 356.833 88.36 357.059 88.36C357.566 88.36 357.939 88.22 358.179 87.94C358.419 87.66 358.626 87.2867 358.799 86.82L359.439 85.06L355.559 75.64H357.379L360.279 82.98H360.319L363.099 75.64H364.799L360.279 87.14ZM376.694 76.96H374.414V85H372.854V76.96H370.814V75.64H372.854V73.54C372.854 72.9667 372.908 72.4467 373.014 71.98C373.121 71.5 373.301 71.0867 373.554 70.74C373.821 70.3933 374.168 70.1267 374.594 69.94C375.021 69.74 375.548 69.64 376.174 69.64C376.374 69.64 376.588 69.66 376.814 69.7C377.041 69.74 377.228 69.8 377.374 69.88L377.154 71.28C376.781 71.1467 376.428 71.08 376.094 71.08C375.694 71.08 375.381 71.1533 375.154 71.3C374.928 71.4333 374.754 71.6267 374.634 71.88C374.528 72.12 374.461 72.4133 374.434 72.76C374.421 73.1067 374.414 73.48 374.414 73.88V75.64H376.694V76.96ZM378.134 75.64H379.694V85H378.134V75.64ZM377.774 71.98C377.774 71.6733 377.881 71.4067 378.094 71.18C378.321 70.9533 378.594 70.84 378.914 70.84C379.234 70.84 379.501 70.9533 379.714 71.18C379.941 71.4067 380.054 71.6733 380.054 71.98C380.054 72.3133 379.948 72.5867 379.734 72.8C379.521 73.0133 379.248 73.12 378.914 73.12C378.581 73.12 378.308 73.0133 378.094 72.8C377.881 72.5867 377.774 72.3133 377.774 71.98ZM382.796 77.86C382.796 77.4333 382.783 77.0333 382.756 76.66C382.73 76.2867 382.716 75.9467 382.716 75.64H384.196C384.196 75.8933 384.203 76.1467 384.216 76.4C384.23 76.6533 384.236 76.9133 384.236 77.18H384.276C384.383 76.9533 384.53 76.7333 384.716 76.52C384.916 76.3067 385.15 76.12 385.416 75.96C385.683 75.7867 385.983 75.6533 386.316 75.56C386.65 75.4533 387.01 75.4 387.396 75.4C388.01 75.4 388.536 75.4933 388.976 75.68C389.43 75.8667 389.803 76.1267 390.096 76.46C390.39 76.7933 390.603 77.2 390.736 77.68C390.883 78.1467 390.956 78.66 390.956 79.22V85H389.396V79.38C389.396 78.5933 389.223 77.9733 388.876 77.52C388.53 77.0667 387.99 76.84 387.256 76.84C386.75 76.84 386.31 76.9267 385.936 77.1C385.576 77.2733 385.276 77.52 385.036 77.84C384.81 78.16 384.636 78.54 384.516 78.98C384.41 79.42 384.356 79.9067 384.356 80.44V85H382.796V77.86ZM399.03 76.96H396.27V81.64C396.27 81.9467 396.276 82.2333 396.29 82.5C396.303 82.7533 396.356 82.98 396.45 83.18C396.543 83.3667 396.683 83.52 396.87 83.64C397.056 83.7467 397.323 83.8 397.67 83.8C397.896 83.8 398.13 83.7733 398.37 83.72C398.61 83.6667 398.836 83.5867 399.05 83.48L399.11 84.9C398.843 85.02 398.543 85.1067 398.21 85.16C397.89 85.2133 397.583 85.24 397.29 85.24C396.73 85.24 396.283 85.1667 395.95 85.02C395.616 84.8733 395.356 84.6667 395.17 84.4C394.983 84.1333 394.856 83.8067 394.79 83.42C394.736 83.02 394.71 82.58 394.71 82.1V76.96H392.67V75.64H394.71V72.98H396.27V75.64H399.03V76.96ZM409.301 83.3C408.741 84.02 408.128 84.5267 407.461 84.82C406.794 85.1 406.021 85.24 405.141 85.24C404.408 85.24 403.748 85.1133 403.161 84.86C402.574 84.5933 402.074 84.24 401.661 83.8C401.261 83.36 400.948 82.84 400.721 82.24C400.508 81.64 400.401 81 400.401 80.32C400.401 79.6 400.521 78.94 400.761 78.34C401.001 77.7267 401.334 77.2067 401.761 76.78C402.188 76.34 402.694 76 403.281 75.76C403.868 75.52 404.508 75.4 405.201 75.4C405.854 75.4 406.454 75.5133 407.001 75.74C407.548 75.9533 408.014 76.2733 408.401 76.7C408.801 77.1133 409.108 77.6267 409.321 78.24C409.534 78.84 409.641 79.5267 409.641 80.3V80.8H402.081C402.108 81.2 402.201 81.5867 402.361 81.96C402.534 82.32 402.754 82.64 403.021 82.92C403.288 83.1867 403.601 83.4 403.961 83.56C404.321 83.72 404.714 83.8 405.141 83.8C405.821 83.8 406.394 83.68 406.861 83.44C407.328 83.2 407.748 82.8467 408.121 82.38L409.301 83.3ZM407.961 79.48C407.934 78.68 407.674 78.04 407.181 77.56C406.688 77.08 406.008 76.84 405.141 76.84C404.274 76.84 403.574 77.08 403.041 77.56C402.508 78.04 402.188 78.68 402.081 79.48H407.961ZM418.714 77.98C418.381 77.58 418.021 77.2933 417.634 77.12C417.248 76.9333 416.821 76.84 416.354 76.84C415.834 76.84 415.374 76.9333 414.974 77.12C414.574 77.2933 414.241 77.54 413.974 77.86C413.721 78.18 413.528 78.5533 413.394 78.98C413.261 79.3933 413.194 79.84 413.194 80.32C413.194 80.8 413.268 81.2533 413.414 81.68C413.574 82.0933 413.788 82.46 414.054 82.78C414.334 83.1 414.668 83.3533 415.054 83.54C415.441 83.7133 415.874 83.8 416.354 83.8C417.381 83.8 418.174 83.4133 418.734 82.64L419.894 83.74C419.441 84.26 418.908 84.64 418.294 84.88C417.681 85.12 417.034 85.24 416.354 85.24C415.634 85.24 414.974 85.12 414.374 84.88C413.774 84.64 413.261 84.3 412.834 83.86C412.421 83.42 412.094 82.9 411.854 82.3C411.628 81.7 411.514 81.04 411.514 80.32C411.514 79.6133 411.628 78.96 411.854 78.36C412.094 77.76 412.428 77.24 412.854 76.8C413.281 76.36 413.788 76.02 414.374 75.78C414.974 75.5267 415.634 75.4 416.354 75.4C417.048 75.4 417.701 75.52 418.314 75.76C418.941 76 419.488 76.3733 419.954 76.88L418.714 77.98ZM421.703 69.88H423.263V76.94H423.303C423.409 76.7533 423.556 76.5733 423.743 76.4C423.929 76.2133 424.149 76.0467 424.403 75.9C424.669 75.7533 424.963 75.6333 425.283 75.54C425.603 75.4467 425.943 75.4 426.303 75.4C426.916 75.4 427.443 75.4933 427.883 75.68C428.336 75.8667 428.709 76.1267 429.003 76.46C429.296 76.7933 429.509 77.2 429.643 77.68C429.789 78.1467 429.863 78.66 429.863 79.22V85H428.303V79.38C428.303 78.5933 428.129 77.9733 427.783 77.52C427.436 77.0667 426.896 76.84 426.163 76.84C425.656 76.84 425.216 76.9267 424.843 77.1C424.483 77.2733 424.183 77.52 423.943 77.84C423.716 78.16 423.543 78.54 423.423 78.98C423.316 79.42 423.263 79.9067 423.263 80.44V85H421.703V69.88ZM438.582 82.54C438.889 82.9267 439.222 83.2333 439.582 83.46C439.956 83.6867 440.422 83.8 440.982 83.8C441.222 83.8 441.462 83.7733 441.702 83.72C441.956 83.6667 442.182 83.58 442.382 83.46C442.582 83.34 442.742 83.1933 442.862 83.02C442.982 82.8333 443.042 82.6133 443.042 82.36C443.042 82.1067 442.982 81.9 442.862 81.74C442.756 81.58 442.609 81.4467 442.422 81.34C442.236 81.22 442.022 81.1267 441.782 81.06C441.542 80.9933 441.296 80.9333 441.042 80.88C440.602 80.7867 440.182 80.68 439.782 80.56C439.382 80.44 439.029 80.2867 438.722 80.1C438.429 79.9 438.189 79.6467 438.002 79.34C437.829 79.0333 437.742 78.64 437.742 78.16C437.742 77.7067 437.842 77.3067 438.042 76.96C438.242 76.6133 438.509 76.3267 438.842 76.1C439.176 75.8733 439.549 75.7 439.962 75.58C440.376 75.46 440.802 75.4 441.242 75.4C441.909 75.4 442.522 75.5333 443.082 75.8C443.656 76.0667 444.102 76.5 444.422 77.1L443.122 77.96C442.922 77.6267 442.656 77.36 442.322 77.16C442.002 76.9467 441.609 76.84 441.142 76.84C440.929 76.84 440.709 76.8667 440.482 76.92C440.269 76.9733 440.076 77.0533 439.902 77.16C439.729 77.2667 439.582 77.4067 439.462 77.58C439.356 77.74 439.302 77.9267 439.302 78.14C439.302 78.34 439.362 78.5133 439.482 78.66C439.616 78.7933 439.789 78.9133 440.002 79.02C440.229 79.1267 440.482 79.22 440.762 79.3C441.056 79.38 441.356 79.4467 441.662 79.5C442.076 79.58 442.469 79.6867 442.842 79.82C443.216 79.94 443.542 80.1067 443.822 80.32C444.102 80.5333 444.322 80.8 444.482 81.12C444.642 81.44 444.722 81.8333 444.722 82.3C444.722 82.8333 444.616 83.2867 444.402 83.66C444.189 84.0333 443.902 84.34 443.542 84.58C443.196 84.8067 442.796 84.9733 442.342 85.08C441.902 85.1867 441.449 85.24 440.982 85.24C440.182 85.24 439.489 85.12 438.902 84.88C438.329 84.6267 437.809 84.1667 437.342 83.5L438.582 82.54ZM452.018 76.96H449.258V81.64C449.258 81.9467 449.265 82.2333 449.278 82.5C449.291 82.7533 449.345 82.98 449.438 83.18C449.531 83.3667 449.671 83.52 449.858 83.64C450.045 83.7467 450.311 83.8 450.658 83.8C450.885 83.8 451.118 83.7733 451.358 83.72C451.598 83.6667 451.825 83.5867 452.038 83.48L452.098 84.9C451.831 85.02 451.531 85.1067 451.198 85.16C450.878 85.2133 450.571 85.24 450.278 85.24C449.718 85.24 449.271 85.1667 448.938 85.02C448.605 84.8733 448.345 84.6667 448.158 84.4C447.971 84.1333 447.845 83.8067 447.778 83.42C447.725 83.02 447.698 82.58 447.698 82.1V76.96H445.658V75.64H447.698V72.98H449.258V75.64H452.018V76.96ZM453.809 76.84C454.289 76.3467 454.856 75.9867 455.509 75.76C456.176 75.52 456.849 75.4 457.529 75.4C458.916 75.4 459.916 75.7267 460.529 76.38C461.143 77.0333 461.449 78.0267 461.449 79.36V83.38C461.449 83.6467 461.463 83.9267 461.489 84.22C461.516 84.5 461.549 84.76 461.589 85H460.089C460.036 84.7867 460.003 84.5533 459.989 84.3C459.989 84.0333 459.989 83.8 459.989 83.6H459.949C459.643 84.08 459.229 84.4733 458.709 84.78C458.203 85.0867 457.589 85.24 456.869 85.24C456.389 85.24 455.936 85.18 455.509 85.06C455.096 84.94 454.729 84.7667 454.409 84.54C454.103 84.3 453.856 84.0067 453.669 83.66C453.483 83.3133 453.389 82.9133 453.389 82.46C453.389 81.6867 453.589 81.08 453.989 80.64C454.389 80.2 454.883 79.8733 455.469 79.66C456.069 79.4467 456.709 79.3133 457.389 79.26C458.083 79.2067 458.716 79.18 459.289 79.18H459.889V78.9C459.889 78.22 459.683 77.7067 459.269 77.36C458.869 77.0133 458.303 76.84 457.569 76.84C457.063 76.84 456.563 76.9267 456.069 77.1C455.589 77.26 455.163 77.5133 454.789 77.86L453.809 76.84ZM458.329 80.5C457.329 80.5 456.536 80.64 455.949 80.92C455.363 81.2 455.069 81.66 455.069 82.3C455.069 82.8867 455.263 83.3067 455.649 83.56C456.049 83.8 456.543 83.92 457.129 83.92C457.583 83.92 457.976 83.8467 458.309 83.7C458.656 83.54 458.943 83.3333 459.169 83.08C459.396 82.8267 459.569 82.5333 459.689 82.2C459.809 81.8533 459.876 81.4867 459.889 81.1V80.5H458.329ZM464.3 77.86C464.3 77.4333 464.287 77.0333 464.26 76.66C464.234 76.2867 464.22 75.9467 464.22 75.64H465.7C465.7 75.8933 465.707 76.1467 465.72 76.4C465.734 76.6533 465.74 76.9133 465.74 77.18H465.78C465.887 76.9533 466.034 76.7333 466.22 76.52C466.42 76.3067 466.654 76.12 466.92 75.96C467.187 75.7867 467.487 75.6533 467.82 75.56C468.154 75.4533 468.514 75.4 468.9 75.4C469.007 75.4 469.114 75.4067 469.22 75.42C469.327 75.4333 469.434 75.46 469.54 75.5L469.44 77.08C469.174 77 468.894 76.96 468.6 76.96C467.64 76.96 466.94 77.2733 466.5 77.9C466.074 78.5133 465.86 79.36 465.86 80.44V85H464.3V77.86ZM476.452 76.96H473.692V81.64C473.692 81.9467 473.698 82.2333 473.712 82.5C473.725 82.7533 473.778 82.98 473.872 83.18C473.965 83.3667 474.105 83.52 474.292 83.64C474.478 83.7467 474.745 83.8 475.092 83.8C475.318 83.8 475.552 83.7733 475.792 83.72C476.032 83.6667 476.258 83.5867 476.472 83.48L476.532 84.9C476.265 85.02 475.965 85.1067 475.632 85.16C475.312 85.2133 475.005 85.24 474.712 85.24C474.152 85.24 473.705 85.1667 473.372 85.02C473.038 84.8733 472.778 84.6667 472.592 84.4C472.405 84.1333 472.278 83.8067 472.212 83.42C472.158 83.02 472.132 82.58 472.132 82.1V76.96H470.092V75.64H472.132V72.98H473.692V75.64H476.452V76.96ZM486.523 82.78C486.523 83.2067 486.536 83.6067 486.563 83.98C486.589 84.3533 486.603 84.6933 486.603 85H485.123C485.123 84.7467 485.116 84.4933 485.103 84.24C485.089 83.9867 485.083 83.7267 485.083 83.46H485.043C484.936 83.6867 484.783 83.9067 484.583 84.12C484.396 84.3333 484.169 84.5267 483.903 84.7C483.636 84.86 483.336 84.9867 483.003 85.08C482.669 85.1867 482.309 85.24 481.923 85.24C481.309 85.24 480.776 85.1467 480.323 84.96C479.883 84.7733 479.516 84.5133 479.223 84.18C478.929 83.8467 478.709 83.4467 478.563 82.98C478.429 82.5 478.363 81.98 478.363 81.42V75.64H479.923V81.26C479.923 82.0467 480.096 82.6667 480.443 83.12C480.789 83.5733 481.329 83.8 482.063 83.8C482.569 83.8 483.003 83.7133 483.363 83.54C483.736 83.3667 484.036 83.12 484.263 82.8C484.503 82.48 484.676 82.1 484.783 81.66C484.903 81.22 484.963 80.7333 484.963 80.2V75.64H486.523V82.78ZM489.396 75.64H490.956V77H490.996C491.423 76.4933 491.916 76.1 492.476 75.82C493.049 75.54 493.676 75.4 494.356 75.4C495.089 75.4 495.756 75.5267 496.356 75.78C496.969 76.02 497.489 76.36 497.916 76.8C498.343 77.24 498.676 77.76 498.916 78.36C499.156 78.96 499.276 79.6133 499.276 80.32C499.276 81.0267 499.156 81.68 498.916 82.28C498.676 82.88 498.343 83.4 497.916 83.84C497.503 84.28 497.009 84.6267 496.436 84.88C495.863 85.12 495.249 85.24 494.596 85.24C493.756 85.24 493.016 85.06 492.376 84.7C491.749 84.3267 491.289 83.8733 490.996 83.34H490.956V89.56H489.396V75.64ZM490.956 80.32C490.956 80.8133 491.029 81.2733 491.176 81.7C491.336 82.1133 491.563 82.48 491.856 82.8C492.149 83.1067 492.496 83.3533 492.896 83.54C493.309 83.7133 493.769 83.8 494.276 83.8C494.783 83.8 495.236 83.7133 495.636 83.54C496.049 83.3533 496.403 83.1067 496.696 82.8C496.989 82.48 497.209 82.1133 497.356 81.7C497.516 81.2733 497.596 80.8133 497.596 80.32C497.596 79.8267 497.516 79.3733 497.356 78.96C497.209 78.5333 496.989 78.1667 496.696 77.86C496.403 77.54 496.049 77.2933 495.636 77.12C495.236 76.9333 494.783 76.84 494.276 76.84C493.769 76.84 493.309 76.9333 492.896 77.12C492.496 77.2933 492.149 77.54 491.856 77.86C491.563 78.1667 491.336 78.5333 491.176 78.96C491.029 79.3733 490.956 79.8267 490.956 80.32ZM504.003 79.78C504.003 79.4067 504.023 79.1 504.063 78.86C504.116 78.62 504.196 78.4067 504.303 78.22C504.409 78.02 504.549 77.8267 504.723 77.64C504.896 77.4533 505.116 77.2267 505.383 76.96C505.583 76.7467 505.783 76.54 505.983 76.34C506.196 76.1267 506.383 75.9067 506.543 75.68C506.716 75.4533 506.856 75.2133 506.963 74.96C507.069 74.7067 507.123 74.42 507.123 74.1C507.123 73.46 506.936 72.94 506.563 72.54C506.189 72.1267 505.669 71.92 505.003 71.92C504.323 71.92 503.769 72.12 503.343 72.52C502.929 72.92 502.669 73.4467 502.563 74.1L500.763 73.9C500.856 73.3533 501.023 72.8667 501.263 72.44C501.516 72.0133 501.829 71.66 502.203 71.38C502.576 71.0867 503.003 70.8667 503.483 70.72C503.963 70.56 504.476 70.48 505.023 70.48C505.569 70.48 506.076 70.56 506.543 70.72C507.023 70.8667 507.436 71.0933 507.783 71.4C508.143 71.6933 508.423 72.0667 508.623 72.52C508.823 72.96 508.923 73.4667 508.923 74.04C508.923 74.48 508.856 74.88 508.723 75.24C508.603 75.5867 508.436 75.9133 508.223 76.22C508.023 76.5133 507.783 76.8 507.503 77.08C507.223 77.3467 506.936 77.62 506.643 77.9C506.429 78.1 506.256 78.2733 506.123 78.42C506.003 78.5667 505.909 78.72 505.843 78.88C505.776 79.04 505.729 79.22 505.703 79.42C505.689 79.6067 505.683 79.84 505.683 80.12V81.04H504.003V79.78ZM504.843 82.72C505.176 82.72 505.456 82.84 505.683 83.08C505.923 83.3067 506.043 83.5867 506.043 83.92C506.043 84.2533 505.916 84.54 505.663 84.78C505.423 85.0067 505.149 85.12 504.843 85.12C504.536 85.12 504.256 85.0067 504.003 84.78C503.763 84.54 503.643 84.2533 503.643 83.92C503.643 83.5867 503.756 83.3067 503.983 83.08C504.223 82.84 504.509 82.72 504.843 82.72Z" fill="white"/>
<defs>
<filter id="filter0_bf_5_1785" x="0" y="0" width="620" height="157" filterUnits="userSpaceOnUse" color-interpolation-filters="sRGB">
<feFlood flood-opacity="0" result="BackgroundImageFix"/>
<feGaussianBlur in="BackgroundImageFix" stdDeviation="2"/>
<feComposite in2="SourceAlpha" operator="in" result="effect1_backgroundBlur_5_1785"/>
<feBlend mode="normal" in="SourceGraphic" in2="effect1_backgroundBlur_5_1785" result="shape"/>
<feGaussianBlur stdDeviation="24" result="effect2_foregroundBlur_5_1785"/>
</filter>
<radialGradient id="paint0_radial_5_1785" cx="0" cy="0" r="1" gradientUnits="userSpaceOnUse" gradientTransform="translate(329.996 78.6882) rotate(90) scale(31.1313 274.8)">
<stop stop-color="#2A7D82" stop-opacity="0"/>
<stop offset="1" stop-color="#2A7D82"/>
</radialGradient>
</defs>
</svg>
