<svg width="1206" height="211" viewBox="0 0 1206 211" fill="none" xmlns="http://www.w3.org/2000/svg">
<g filter="url(#filter0_bf_5_1313)">
<path d="M40 48.3738V71.994V91.9559V157.387L50.8528 171H1143.44L1166 156.466V53.9843L1154.91 40L61.0216 40.7824L40 48.3738Z" fill="#2A7D82" fill-opacity="0.01"/>
</g>
<path d="M40 71.994V48.3738L50.8528 43L1154.91 40L1166 53.9843V156.466L1143.44 171H50.8528L40 157.387V91.9559" stroke="url(#paint0_radial_5_1313)" stroke-width="2"/>
<path d="M117.792 122.114L109.66 99.466C109.483 98.9593 109.242 98.5667 108.938 98.288C108.659 97.984 108.267 97.756 107.76 97.604L106.848 97.3V96.92H117.792V97.3L116.614 97.642C116.031 97.794 115.702 98.06 115.626 98.44C115.575 98.82 115.639 99.2887 115.816 99.846L121.44 116.528L127.102 99.808C127.305 99.2253 127.393 98.744 127.368 98.364C127.368 97.984 127.077 97.718 126.494 97.566L125.506 97.3V96.92H130.826V97.3L129.8 97.604C129.319 97.7307 128.977 97.9587 128.774 98.288C128.571 98.592 128.381 98.9973 128.204 99.504L120.604 122.114H117.792ZM134.957 101.176C134.095 101.176 133.361 100.91 132.753 100.378C132.17 99.8207 131.879 99.124 131.879 98.288C131.879 97.4267 132.17 96.73 132.753 96.198C133.361 95.666 134.095 95.4 134.957 95.4C135.818 95.4 136.54 95.666 137.123 96.198C137.705 96.73 137.997 97.4267 137.997 98.288C137.997 99.124 137.705 99.8207 137.123 100.378C136.54 100.91 135.818 101.176 134.957 101.176ZM130.473 122V121.62L131.005 121.468C131.511 121.316 131.853 121.088 132.031 120.784C132.233 120.48 132.335 120.075 132.335 119.568V107.674C132.335 107.142 132.233 106.749 132.031 106.496C131.853 106.217 131.511 106.027 131.005 105.926L130.473 105.812V105.432L137.427 103.19L137.807 103.57L137.693 108.966V119.606C137.693 120.113 137.781 120.518 137.959 120.822C138.161 121.126 138.503 121.354 138.985 121.506L139.365 121.62V122H130.473ZM141.123 122V121.62L141.693 121.43C142.554 121.151 142.985 120.531 142.985 119.568V99.238C142.985 98.7313 142.884 98.3513 142.681 98.098C142.478 97.8447 142.124 97.642 141.617 97.49L141.123 97.376V96.996L148.077 95.362L148.533 95.704L148.419 101.024V119.568C148.419 120.581 148.837 121.215 149.673 121.468L150.205 121.62V122H141.123ZM155.221 122L148.457 112.5L155.487 106.002C155.816 105.698 156.006 105.381 156.057 105.052C156.133 104.697 155.918 104.444 155.411 104.292L154.765 104.102V103.722H160.427V104.102L159.287 104.406C158.73 104.583 158.274 104.799 157.919 105.052C157.59 105.28 157.184 105.609 156.703 106.04L152.447 110.03L159.249 119.492C159.654 120.049 160.034 120.48 160.389 120.784C160.744 121.088 161.2 121.341 161.757 121.544L161.909 121.62V122H155.221ZM163.164 122V121.62L163.734 121.468C164.241 121.316 164.583 121.088 164.76 120.784C164.963 120.48 165.064 120.087 165.064 119.606V107.712C165.064 107.155 164.963 106.749 164.76 106.496C164.583 106.217 164.241 106.027 163.734 105.926L163.164 105.774V105.394L169.7 103.19L170.08 103.57L170.422 106.838V107.142C170.777 106.433 171.233 105.787 171.79 105.204C172.373 104.596 173.006 104.102 173.69 103.722C174.4 103.342 175.096 103.152 175.78 103.152C176.743 103.152 177.478 103.418 177.984 103.95C178.491 104.482 178.744 105.153 178.744 105.964C178.744 106.825 178.491 107.497 177.984 107.978C177.503 108.434 176.92 108.662 176.236 108.662C175.172 108.662 174.235 108.13 173.424 107.066L173.348 106.99C173.095 106.635 172.804 106.445 172.474 106.42C172.145 106.369 171.841 106.521 171.562 106.876C171.309 107.104 171.094 107.383 170.916 107.712C170.764 108.016 170.612 108.371 170.46 108.776V119.378C170.46 120.391 170.904 121.025 171.79 121.278L173.006 121.62V122H163.164ZM184.669 122.57C183.2 122.57 181.959 122.152 180.945 121.316C179.957 120.48 179.463 119.277 179.463 117.706C179.463 116.515 180.071 115.426 181.287 114.438C182.503 113.425 184.416 112.665 187.025 112.158C187.431 112.082 187.887 112.006 188.393 111.93C188.9 111.829 189.432 111.727 189.989 111.626V108.624C189.989 106.901 189.774 105.698 189.343 105.014C188.938 104.305 188.292 103.95 187.405 103.95C186.797 103.95 186.316 104.153 185.961 104.558C185.607 104.938 185.379 105.609 185.277 106.572L185.201 106.99C185.151 108.079 184.885 108.877 184.403 109.384C183.922 109.891 183.327 110.144 182.617 110.144C181.959 110.144 181.414 109.941 180.983 109.536C180.553 109.131 180.337 108.586 180.337 107.902C180.337 106.863 180.692 105.989 181.401 105.28C182.136 104.571 183.099 104.039 184.289 103.684C185.48 103.329 186.772 103.152 188.165 103.152C190.42 103.152 192.155 103.709 193.371 104.824C194.613 105.913 195.233 107.699 195.233 110.182V118.58C195.233 119.72 195.765 120.29 196.829 120.29H197.665L198.007 120.594C197.526 121.202 196.994 121.671 196.411 122C195.854 122.329 195.056 122.494 194.017 122.494C192.903 122.494 192.016 122.241 191.357 121.734C190.724 121.202 190.306 120.505 190.103 119.644C189.343 120.455 188.558 121.151 187.747 121.734C186.962 122.291 185.936 122.57 184.669 122.57ZM186.987 120.252C187.494 120.252 187.963 120.138 188.393 119.91C188.849 119.657 189.381 119.277 189.989 118.77V112.386C189.736 112.437 189.483 112.487 189.229 112.538C188.976 112.589 188.685 112.639 188.355 112.69C187.19 112.994 186.253 113.513 185.543 114.248C184.859 114.957 184.517 115.92 184.517 117.136C184.517 118.175 184.758 118.96 185.239 119.492C185.721 119.999 186.303 120.252 186.987 120.252ZM198.715 122V121.62L199.247 121.468C200.134 121.215 200.577 120.594 200.577 119.606V107.712C200.577 107.155 200.488 106.749 200.311 106.496C200.134 106.217 199.792 106.027 199.285 105.926L198.715 105.774V105.394L205.213 103.19L205.593 103.57L205.897 105.85C206.784 105.065 207.784 104.419 208.899 103.912C210.014 103.405 211.116 103.152 212.205 103.152C213.877 103.152 215.156 103.608 216.043 104.52C216.955 105.432 217.411 106.825 217.411 108.7V119.644C217.411 120.632 217.892 121.253 218.855 121.506L219.197 121.62V122H210.229V121.62L210.723 121.468C211.61 121.189 212.053 120.569 212.053 119.606V107.484C212.053 105.863 211.242 105.052 209.621 105.052C208.506 105.052 207.29 105.609 205.973 106.724V119.644C205.973 120.632 206.416 121.253 207.303 121.506L207.645 121.62V122H198.715ZM227.718 122.57C226.097 122.57 224.83 122.165 223.918 121.354C223.032 120.543 222.588 119.251 222.588 117.478V104.482H219.966V104.102L220.878 103.95C221.664 103.773 222.335 103.519 222.892 103.19C223.475 102.861 224.045 102.417 224.602 101.86L227.718 98.402H228.098L227.984 103.722H232.24V104.482H227.946V118.162C227.946 119.049 228.136 119.72 228.516 120.176C228.922 120.632 229.428 120.86 230.036 120.86C230.568 120.86 231.037 120.733 231.442 120.48C231.848 120.201 232.253 119.834 232.658 119.378L233.038 119.758C232.532 120.619 231.835 121.303 230.948 121.81C230.062 122.317 228.985 122.57 227.718 122.57Z" fill="#F2FEFF"/>
<defs>
<filter id="filter0_bf_5_1313" x="0" y="0" width="1206" height="211" filterUnits="userSpaceOnUse" color-interpolation-filters="sRGB">
<feFlood flood-opacity="0" result="BackgroundImageFix"/>
<feGaussianBlur in="BackgroundImageFix" stdDeviation="2"/>
<feComposite in2="SourceAlpha" operator="in" result="effect1_backgroundBlur_5_1313"/>
<feBlend mode="normal" in="SourceGraphic" in2="effect1_backgroundBlur_5_1313" result="shape"/>
<feGaussianBlur stdDeviation="20" result="effect2_foregroundBlur_5_1313"/>
</filter>
<radialGradient id="paint0_radial_5_1313" cx="0" cy="0" r="1" gradientUnits="userSpaceOnUse" gradientTransform="translate(645.968 105.904) rotate(90) scale(66.8557 590.504)">
<stop stop-color="#2A7D82" stop-opacity="0"/>
<stop offset="1" stop-color="#2A7D82"/>
</radialGradient>
</defs>
</svg>
