<svg width="1206" height="211" viewBox="0 0 1206 211" fill="none" xmlns="http://www.w3.org/2000/svg">
<g filter="url(#filter0_bf_5_1291)">
<path d="M40 48.3738V71.994V91.9559V157.387L50.8528 171H1143.44L1166 156.466V53.9843L1154.91 40L61.0216 40.7824L40 48.3738Z" fill="#2A7D82" fill-opacity="0.01"/>
</g>
<path d="M40 71.994V48.3738L50.8528 43L1154.91 40L1166 53.9843V156.466L1143.44 171H50.8528L40 157.387V91.9559" stroke="url(#paint0_radial_5_1291)" stroke-width="2"/>
<path opacity="0.4" d="M113.27 122V121.62L114.41 121.316C115.297 121.063 115.74 120.429 115.74 119.416V112.196L109.47 99.428C109.242 98.9213 109.027 98.5413 108.824 98.288C108.647 98.0347 108.368 97.8193 107.988 97.642L107.304 97.3V96.92H117.488V97.3L116.804 97.566C116.247 97.794 115.943 98.1107 115.892 98.516C115.841 98.896 115.943 99.3773 116.196 99.96L120.68 109.916L125.696 99.58C125.899 99.1747 125.975 98.7567 125.924 98.326C125.899 97.8953 125.633 97.6167 125.126 97.49L124.594 97.3V96.92H129.154V97.3L128.432 97.566C127.951 97.7433 127.596 97.9967 127.368 98.326C127.14 98.63 126.912 99.0227 126.684 99.504L121.478 110.448V119.416C121.478 119.923 121.567 120.341 121.744 120.67C121.947 120.974 122.289 121.189 122.77 121.316L123.948 121.62V122H113.27ZM136.04 122.57C134.115 122.57 132.443 122.177 131.024 121.392C129.605 120.581 128.503 119.441 127.718 117.972C126.958 116.503 126.578 114.78 126.578 112.804C126.578 110.828 126.983 109.118 127.794 107.674C128.63 106.23 129.757 105.115 131.176 104.33C132.62 103.545 134.241 103.152 136.04 103.152C137.839 103.152 139.447 103.545 140.866 104.33C142.285 105.09 143.399 106.192 144.21 107.636C145.046 109.08 145.464 110.803 145.464 112.804C145.464 114.805 145.071 116.541 144.286 118.01C143.526 119.454 142.437 120.581 141.018 121.392C139.625 122.177 137.965 122.57 136.04 122.57ZM136.04 121.81C136.927 121.81 137.636 121.557 138.168 121.05C138.7 120.543 139.08 119.644 139.308 118.352C139.561 117.06 139.688 115.236 139.688 112.88C139.688 110.499 139.561 108.662 139.308 107.37C139.08 106.078 138.7 105.179 138.168 104.672C137.636 104.165 136.927 103.912 136.04 103.912C135.153 103.912 134.431 104.165 133.874 104.672C133.342 105.179 132.949 106.078 132.696 107.37C132.468 108.662 132.354 110.499 132.354 112.88C132.354 115.236 132.468 117.06 132.696 118.352C132.949 119.644 133.342 120.543 133.874 121.05C134.431 121.557 135.153 121.81 136.04 121.81ZM153.863 122.57C152.875 122.57 151.963 122.38 151.127 122C150.316 121.62 149.67 121.012 149.189 120.176C148.733 119.315 148.517 118.187 148.543 116.794L148.657 107.028C148.657 106.445 148.555 106.027 148.353 105.774C148.15 105.521 147.833 105.343 147.403 105.242L146.947 105.09V104.71L153.749 103.38L154.129 103.76L153.939 109.156V118.314C153.939 119.125 154.167 119.72 154.623 120.1C155.104 120.48 155.699 120.67 156.409 120.67C157.118 120.67 157.751 120.569 158.309 120.366C158.866 120.163 159.423 119.859 159.981 119.454L160.133 107.066C160.133 106.483 160.044 106.078 159.867 105.85C159.689 105.597 159.36 105.419 158.879 105.318L158.499 105.204V104.824L165.149 103.38L165.529 103.76L165.415 109.156V119.454C165.415 120.011 165.491 120.442 165.643 120.746C165.795 121.05 166.124 121.303 166.631 121.506L167.011 121.62V122L160.361 122.38L160.019 120.138C159.183 120.822 158.271 121.405 157.283 121.886C156.32 122.342 155.18 122.57 153.863 122.57ZM168.545 122V121.62L169.115 121.468C169.622 121.316 169.964 121.088 170.141 120.784C170.344 120.48 170.445 120.087 170.445 119.606V107.712C170.445 107.155 170.344 106.749 170.141 106.496C169.964 106.217 169.622 106.027 169.115 105.926L168.545 105.774V105.394L175.081 103.19L175.461 103.57L175.803 106.838V107.142C176.158 106.433 176.614 105.787 177.171 105.204C177.754 104.596 178.387 104.102 179.071 103.722C179.78 103.342 180.477 103.152 181.161 103.152C182.124 103.152 182.858 103.418 183.365 103.95C183.872 104.482 184.125 105.153 184.125 105.964C184.125 106.825 183.872 107.497 183.365 107.978C182.884 108.434 182.301 108.662 181.617 108.662C180.553 108.662 179.616 108.13 178.805 107.066L178.729 106.99C178.476 106.635 178.184 106.445 177.855 106.42C177.526 106.369 177.222 106.521 176.943 106.876C176.69 107.104 176.474 107.383 176.297 107.712C176.145 108.016 175.993 108.371 175.841 108.776V119.378C175.841 120.391 176.284 121.025 177.171 121.278L178.387 121.62V122H168.545ZM193.632 122V121.62L194.202 121.506C195.215 121.227 195.722 120.569 195.722 119.53C195.747 118.618 195.76 117.668 195.76 116.68C195.76 115.667 195.76 114.78 195.76 114.02V104.482H193.632V104.064L194.24 103.95C195.253 103.773 195.887 103.152 196.14 102.088C196.799 99.6813 198.04 97.8953 199.864 96.73C201.688 95.5647 203.905 94.982 206.514 94.982C208.085 94.982 209.364 95.324 210.352 96.008C211.365 96.6667 211.872 97.5027 211.872 98.516C211.872 99.2 211.657 99.7447 211.226 100.15C210.821 100.53 210.263 100.72 209.554 100.72C208.794 100.72 208.186 100.505 207.73 100.074C207.274 99.618 206.881 99.0733 206.552 98.44L205.678 96.768C205.501 96.4387 205.285 96.2107 205.032 96.084C204.779 95.9573 204.5 95.9827 204.196 96.16C202.245 97.148 201.232 99.6687 201.156 103.722H209.25C210.01 103.722 210.77 103.595 211.53 103.342L212.1 103.152L212.594 103.57L212.48 108.852V114.21C212.48 114.919 212.467 115.755 212.442 116.718C212.442 117.681 212.455 118.618 212.48 119.53C212.48 120.543 212.961 121.202 213.924 121.506L214.19 121.582V122H205.26V121.62L205.64 121.468C206.628 121.164 207.122 120.505 207.122 119.492C207.147 118.555 207.147 117.567 207.122 116.528C207.122 115.489 207.122 114.653 207.122 114.02V111.474C207.122 110.714 207.109 109.903 207.084 109.042C207.084 108.155 207.084 107.307 207.084 106.496C207.084 105.685 207.071 105.014 207.046 104.482H201.156V114.02C201.156 114.755 201.143 115.629 201.118 116.642C201.118 117.63 201.131 118.58 201.156 119.492C201.156 120.531 201.663 121.177 202.676 121.43L203.398 121.62V122H193.632ZM215.711 122V121.62L216.281 121.468C216.788 121.316 217.13 121.088 217.307 120.784C217.51 120.48 217.611 120.087 217.611 119.606V107.712C217.611 107.155 217.51 106.749 217.307 106.496C217.13 106.217 216.788 106.027 216.281 105.926L215.711 105.774V105.394L222.247 103.19L222.627 103.57L222.969 106.838V107.142C223.324 106.433 223.78 105.787 224.337 105.204C224.92 104.596 225.553 104.102 226.237 103.722C226.947 103.342 227.643 103.152 228.327 103.152C229.29 103.152 230.025 103.418 230.531 103.95C231.038 104.482 231.291 105.153 231.291 105.964C231.291 106.825 231.038 107.497 230.531 107.978C230.05 108.434 229.467 108.662 228.783 108.662C227.719 108.662 226.782 108.13 225.971 107.066L225.895 106.99C225.642 106.635 225.351 106.445 225.021 106.42C224.692 106.369 224.388 106.521 224.109 106.876C223.856 107.104 223.641 107.383 223.463 107.712C223.311 108.016 223.159 108.371 223.007 108.776V119.378C223.007 120.391 223.451 121.025 224.337 121.278L225.553 121.62V122H215.711ZM238.688 122.57C237.446 122.57 236.332 122.418 235.344 122.114C234.356 121.835 233.444 121.481 232.608 121.05L232.646 116.528H233.026L234.318 118.808C234.875 119.821 235.483 120.581 236.142 121.088C236.826 121.569 237.687 121.81 238.726 121.81C239.942 121.81 240.917 121.544 241.652 121.012C242.412 120.455 242.792 119.72 242.792 118.808C242.792 117.972 242.526 117.288 241.994 116.756C241.462 116.224 240.474 115.743 239.03 115.312L237.434 114.818C235.888 114.362 234.672 113.653 233.786 112.69C232.899 111.727 232.456 110.549 232.456 109.156C232.456 107.484 233.114 106.065 234.432 104.9C235.749 103.735 237.636 103.152 240.094 103.152C241.082 103.152 242.006 103.266 242.868 103.494C243.754 103.697 244.603 104.013 245.414 104.444L245.186 108.548H244.806L243.476 106.192C242.994 105.356 242.513 104.773 242.032 104.444C241.576 104.089 240.879 103.912 239.942 103.912C239.08 103.912 238.27 104.153 237.51 104.634C236.75 105.115 236.37 105.799 236.37 106.686C236.37 107.547 236.686 108.231 237.32 108.738C237.978 109.245 238.941 109.713 240.208 110.144L241.918 110.638C243.742 111.195 245.046 111.968 245.832 112.956C246.617 113.919 247.01 115.084 247.01 116.452C247.01 118.301 246.275 119.783 244.806 120.898C243.362 122.013 241.322 122.57 238.688 122.57ZM255.884 122.57C254.263 122.57 252.996 122.165 252.084 121.354C251.198 120.543 250.754 119.251 250.754 117.478V104.482H248.132V104.102L249.044 103.95C249.83 103.773 250.501 103.519 251.058 103.19C251.641 102.861 252.211 102.417 252.768 101.86L255.884 98.402H256.264L256.15 103.722H260.406V104.482H256.112V118.162C256.112 119.049 256.302 119.72 256.682 120.176C257.088 120.632 257.594 120.86 258.202 120.86C258.734 120.86 259.203 120.733 259.608 120.48C260.014 120.201 260.419 119.834 260.824 119.378L261.204 119.758C260.698 120.619 260.001 121.303 259.114 121.81C258.228 122.317 257.151 122.57 255.884 122.57ZM270.67 122V121.62L271.202 121.468C272.089 121.215 272.532 120.594 272.532 119.606V107.712C272.532 107.155 272.443 106.749 272.266 106.496C272.089 106.217 271.747 106.027 271.24 105.926L270.67 105.774V105.394L277.168 103.19L277.548 103.57L277.852 105.85C278.739 105.065 279.739 104.419 280.854 103.912C281.969 103.405 283.071 103.152 284.16 103.152C285.832 103.152 287.111 103.608 287.998 104.52C288.91 105.432 289.366 106.825 289.366 108.7V119.644C289.366 120.632 289.847 121.253 290.81 121.506L291.152 121.62V122H282.184V121.62L282.678 121.468C283.565 121.189 284.008 120.569 284.008 119.606V107.484C284.008 105.863 283.197 105.052 281.576 105.052C280.461 105.052 279.245 105.609 277.928 106.724V119.644C277.928 120.632 278.371 121.253 279.258 121.506L279.6 121.62V122H270.67ZM297.964 122.57C296.495 122.57 295.254 122.152 294.24 121.316C293.252 120.48 292.758 119.277 292.758 117.706C292.758 116.515 293.366 115.426 294.582 114.438C295.798 113.425 297.711 112.665 300.32 112.158C300.726 112.082 301.182 112.006 301.688 111.93C302.195 111.829 302.727 111.727 303.284 111.626V108.624C303.284 106.901 303.069 105.698 302.638 105.014C302.233 104.305 301.587 103.95 300.7 103.95C300.092 103.95 299.611 104.153 299.256 104.558C298.902 104.938 298.674 105.609 298.572 106.572L298.496 106.99C298.446 108.079 298.18 108.877 297.698 109.384C297.217 109.891 296.622 110.144 295.912 110.144C295.254 110.144 294.709 109.941 294.278 109.536C293.848 109.131 293.632 108.586 293.632 107.902C293.632 106.863 293.987 105.989 294.696 105.28C295.431 104.571 296.394 104.039 297.584 103.684C298.775 103.329 300.067 103.152 301.46 103.152C303.715 103.152 305.45 103.709 306.666 104.824C307.908 105.913 308.528 107.699 308.528 110.182V118.58C308.528 119.72 309.06 120.29 310.124 120.29H310.96L311.302 120.594C310.821 121.202 310.289 121.671 309.706 122C309.149 122.329 308.351 122.494 307.312 122.494C306.198 122.494 305.311 122.241 304.652 121.734C304.019 121.202 303.601 120.505 303.398 119.644C302.638 120.455 301.853 121.151 301.042 121.734C300.257 122.291 299.231 122.57 297.964 122.57ZM300.282 120.252C300.789 120.252 301.258 120.138 301.688 119.91C302.144 119.657 302.676 119.277 303.284 118.77V112.386C303.031 112.437 302.778 112.487 302.524 112.538C302.271 112.589 301.98 112.639 301.65 112.69C300.485 112.994 299.548 113.513 298.838 114.248C298.154 114.957 297.812 115.92 297.812 117.136C297.812 118.175 298.053 118.96 298.534 119.492C299.016 119.999 299.598 120.252 300.282 120.252ZM312.01 122V121.62L312.542 121.468C313.023 121.341 313.353 121.126 313.53 120.822C313.733 120.518 313.847 120.113 313.872 119.606V107.712C313.872 107.155 313.783 106.749 313.606 106.496C313.429 106.217 313.087 106.027 312.58 105.926L312.01 105.774V105.394L318.508 103.19L318.888 103.57L319.192 106.154C320.028 105.318 320.978 104.609 322.042 104.026C323.131 103.443 324.259 103.152 325.424 103.152C326.64 103.152 327.615 103.405 328.35 103.912C329.085 104.393 329.642 105.153 330.022 106.192C331.01 105.255 332.074 104.52 333.214 103.988C334.379 103.431 335.507 103.152 336.596 103.152C338.395 103.152 339.712 103.583 340.548 104.444C341.409 105.305 341.84 106.661 341.84 108.51V119.644C341.84 120.632 342.296 121.253 343.208 121.506L343.626 121.62V122H334.848V121.62L335.228 121.506C335.709 121.354 336.039 121.126 336.216 120.822C336.419 120.518 336.52 120.113 336.52 119.606V107.978C336.52 106.914 336.33 106.192 335.95 105.812C335.57 105.407 334.962 105.204 334.126 105.204C333.467 105.204 332.821 105.356 332.188 105.66C331.58 105.939 330.934 106.369 330.25 106.952C330.377 107.357 330.453 107.801 330.478 108.282C330.529 108.763 330.554 109.27 330.554 109.802V119.644C330.579 120.632 331.035 121.253 331.922 121.506L332.264 121.62V122H323.448V121.62L323.98 121.468C324.461 121.316 324.791 121.101 324.968 120.822C325.171 120.518 325.272 120.113 325.272 119.606V108.016C325.272 107.003 325.082 106.281 324.702 105.85C324.347 105.419 323.727 105.204 322.84 105.204C322.257 105.204 321.675 105.356 321.092 105.66C320.509 105.939 319.901 106.357 319.268 106.914V119.644C319.268 120.632 319.711 121.253 320.598 121.506L320.94 121.62V122H312.01ZM354.65 103.152C356.296 103.152 357.702 103.494 358.868 104.178C360.033 104.837 360.92 105.749 361.528 106.914C362.161 108.054 362.478 109.359 362.478 110.828C362.478 111.107 362.465 111.398 362.44 111.702C362.414 111.981 362.364 112.234 362.288 112.462H350.964C350.989 115.198 351.47 117.174 352.408 118.39C353.37 119.581 354.789 120.176 356.664 120.176C357.93 120.176 358.956 119.973 359.742 119.568C360.527 119.163 361.262 118.567 361.946 117.782L362.326 118.124C361.54 119.517 360.489 120.607 359.172 121.392C357.88 122.177 356.322 122.57 354.498 122.57C352.699 122.57 351.103 122.19 349.71 121.43C348.316 120.645 347.227 119.53 346.442 118.086C345.656 116.642 345.264 114.919 345.264 112.918C345.264 110.841 345.72 109.08 346.632 107.636C347.544 106.167 348.709 105.052 350.128 104.292C351.572 103.532 353.079 103.152 354.65 103.152ZM354.536 103.912C353.801 103.912 353.168 104.14 352.636 104.596C352.129 105.027 351.724 105.812 351.42 106.952C351.141 108.067 350.989 109.65 350.964 111.702H357.462C357.715 108.941 357.614 106.952 357.158 105.736C356.702 104.52 355.828 103.912 354.536 103.912ZM368.829 122.57C367.917 122.57 367.144 122.253 366.511 121.62C365.878 120.987 365.561 120.227 365.561 119.34C365.561 118.453 365.878 117.681 366.511 117.022C367.144 116.363 367.917 116.034 368.829 116.034C369.741 116.034 370.514 116.363 371.147 117.022C371.78 117.681 372.097 118.453 372.097 119.34C372.097 120.227 371.78 120.987 371.147 121.62C370.514 122.253 369.741 122.57 368.829 122.57ZM380.221 122.57C379.309 122.57 378.537 122.253 377.903 121.62C377.27 120.987 376.953 120.227 376.953 119.34C376.953 118.453 377.27 117.681 377.903 117.022C378.537 116.363 379.309 116.034 380.221 116.034C381.133 116.034 381.906 116.363 382.539 117.022C383.173 117.681 383.489 118.453 383.489 119.34C383.489 120.227 383.173 120.987 382.539 121.62C381.906 122.253 381.133 122.57 380.221 122.57ZM391.614 122.57C390.702 122.57 389.929 122.253 389.296 121.62C388.663 120.987 388.346 120.227 388.346 119.34C388.346 118.453 388.663 117.681 389.296 117.022C389.929 116.363 390.702 116.034 391.614 116.034C392.526 116.034 393.299 116.363 393.932 117.022C394.565 117.681 394.882 118.453 394.882 119.34C394.882 120.227 394.565 120.987 393.932 121.62C393.299 122.253 392.526 122.57 391.614 122.57Z" fill="#F2FEFF"/>
<defs>
<filter id="filter0_bf_5_1291" x="0" y="0" width="1206" height="211" filterUnits="userSpaceOnUse" color-interpolation-filters="sRGB">
<feFlood flood-opacity="0" result="BackgroundImageFix"/>
<feGaussianBlur in="BackgroundImageFix" stdDeviation="2"/>
<feComposite in2="SourceAlpha" operator="in" result="effect1_backgroundBlur_5_1291"/>
<feBlend mode="normal" in="SourceGraphic" in2="effect1_backgroundBlur_5_1291" result="shape"/>
<feGaussianBlur stdDeviation="20" result="effect2_foregroundBlur_5_1291"/>
</filter>
<radialGradient id="paint0_radial_5_1291" cx="0" cy="0" r="1" gradientUnits="userSpaceOnUse" gradientTransform="translate(645.968 105.904) rotate(90) scale(66.8557 590.504)">
<stop stop-color="#2A7D82" stop-opacity="0"/>
<stop offset="1" stop-color="#2A7D82"/>
</radialGradient>
</defs>
</svg>
