<svg width="1440" height="322" viewBox="0 0 1440 322" fill="none" xmlns="http://www.w3.org/2000/svg">
<path d="M645.917 1.00004L359.842 321.999M424.055 1L0.00154904 120.11M350.099 1L0.00154904 79.6775M276.15 1.00004L7.15034e-05 52.7183M498.013 1L0.00043635 187.485M202.194 1.00004L7.15034e-05 33.4588M54.2819 1.00004L0 7.77866M128.238 1.00004L0 19.0129M1237.55 1.00004L1440 33.5176M719.873 1.00004L719.378 321.999M1311.51 1.00004L1440 19.0555M1385.46 1.00004L1440 7.81245M1163.6 1.00004L1440 52.7972M1089.64 1.00004L1440 79.7865M941.736 1.00004L1440 187.795M1015.69 1.00004L1440 120.285M793.83 1.00004L1078.92 321.999M571.961 1.00004L0.307277 321.999M867.779 1.00004L1438.45 321.999M1438.45 322H0.308384M1440 44.8075H0.00156516M1440 15.43H0.00156516M1440 21.4197H0.00156516M1440 28.1941H0.00156516M1440 5.3123H0.00156516M1440 10.095H0.00156516M1440 237.023H0.00156516M1440 55.1412H0.00156516M1440 35.9206H0.00156516M1440 1.00003H0.00156516M1440 67.3051H0.00156516M1440 81.8372H0.00156516M1440 186.226H0.00156516M1440 99.5013H0.00156516M1440 121.43H0.00156516M1440 149.381H0.00156516" stroke="url(#paint0_linear_5_1123)" stroke-linecap="round" stroke-linejoin="round"/>
<defs>
<linearGradient id="paint0_linear_5_1123" x1="720" y1="21.0811" x2="720" y2="143.65" gradientUnits="userSpaceOnUse">
<stop stop-color="#2A7D82" stop-opacity="0"/>
<stop offset="1" stop-color="#2A7D82"/>
</linearGradient>
</defs>
</svg>
